/* XPM */
static char * mozilla_close_p_xpm[] = {
"22 16 202 2",
"  	c None",
". 	c #C7D2DB",
"+ 	c #A9B3BF",
"@ 	c #979FA9",
"# 	c #909BA7",
"$ 	c #A1ABB6",
"% 	c #C0CAD2",
"& 	c #C8D0DA",
"* 	c #8A919E",
"= 	c #55636D",
"- 	c #515C67",
"; 	c #56626F",
"> 	c #58636F",
", 	c #515D67",
"' 	c #4C5562",
") 	c #6C7986",
"! 	c #B3BEC9",
"~ 	c #BDC6CF",
"{ 	c #656E79",
"] 	c #545E6B",
"^ 	c #6D7D8D",
"/ 	c #748593",
"( 	c #7A8897",
"_ 	c #7A899A",
": 	c #7A8997",
"< 	c #748291",
"[ 	c #596372",
"} 	c #4A5560",
"| 	c #98A5AF",
"1 	c #C8D1DA",
"2 	c #646E7C",
"3 	c #535F6E",
"4 	c #778D9C",
"5 	c #7C909E",
"6 	c #7A8A99",
"7 	c #7C8A9B",
"8 	c #7E8C9C",
"9 	c #828F9D",
"0 	c #8496A4",
"a 	c #849CA9",
"b 	c #62717C",
"c 	c #495260",
"d 	c #A5B0BC",
"e 	c #86919E",
"f 	c #525F6B",
"g 	c #77919C",
"h 	c #BEDCDF",
"i 	c #BAD7DA",
"j 	c #8297A4",
"k 	c #7F8D9B",
"l 	c #808E9D",
"m 	c #8696A3",
"n 	c #ABCED2",
"o 	c #B8E5E5",
"p 	c #90AFB7",
"q 	c #54626E",
"r 	c #5C636D",
"s 	c #56606A",
"t 	c #657583",
"u 	c #7E93A3",
"v 	c #C2DEE1",
"w 	c #EEF5F9",
"x 	c #BCD8DA",
"y 	c #859AA9",
"z 	c #8499A7",
"A 	c #B2D2D6",
"B 	c #D9F5F6",
"C 	c #BCDFE1",
"D 	c #88A1AC",
"E 	c #707E8E",
"F 	c #404A53",
"G 	c #91A0AC",
"H 	c #B0B7C3",
"I 	c #4D5966",
"J 	c #758191",
"K 	c #788796",
"L 	c #839CA7",
"M 	c #CDE4E7",
"N 	c #E8F8FA",
"O 	c #C7E8E9",
"P 	c #C4E3E6",
"Q 	c #E1F4F3",
"R 	c #C4E0E1",
"S 	c #8FA4AE",
"T 	c #7E8E9D",
"U 	c #758192",
"V 	c #495362",
"W 	c #6C7785",
"X 	c #9BA4AF",
"Y 	c #576470",
"Z 	c #748494",
"` 	c #7A889A",
" .	c #7C8A9A",
"..	c #8EA6B2",
"+.	c #DAF1F1",
"@.	c #EBFCFB",
"#.	c #EDFCFA",
"$.	c #DCF0F0",
"%.	c #94AAB6",
"&.	c #818F9C",
"*.	c #7C8B9C",
"=.	c #6E808F",
"-.	c #58646E",
";.	c #5E6B79",
">.	c #979EAB",
",.	c #5E6B75",
"'.	c #758291",
").	c #7C8B98",
"!.	c #81919F",
"~.	c #CCE9EA",
"{.	c #ECFBFD",
"].	c #E9FBFA",
"^.	c #D3EAEB",
"/.	c #869DAB",
"(.	c #808D99",
"_.	c #778594",
":.	c #6D7B8B",
"<.	c #5D6A76",
"[.	c #606B79",
"}.	c #A3AEBA",
"|.	c #6E7986",
"1.	c #707E8F",
"2.	c #7B889A",
"3.	c #80909B",
"4.	c #A8C6CC",
"5.	c #E0F1F3",
"6.	c #DAF2F2",
"7.	c #D7F0F0",
"8.	c #D2EEEF",
"9.	c #ACC3CB",
"0.	c #7E8B9B",
"a.	c #6D7F8E",
"b.	c #667687",
"c.	c #6B7381",
"d.	c #657081",
"e.	c #B8C3CE",
"f.	c #687480",
"g.	c #758694",
"h.	c #A0C5CC",
"i.	c #D1EDEE",
"j.	c #93AEB6",
"k.	c #8BA7B1",
"l.	c #B9DADD",
"m.	c #C1E9E8",
"n.	c #96B7BD",
"o.	c #687A8B",
"p.	c #687787",
"q.	c #6A7280",
"r.	c #7B8797",
"s.	c #747F8D",
"t.	c #6F7987",
"u.	c #74909B",
"v.	c #A7D4D7",
"w.	c #ACD5D7",
"x.	c #849AA6",
"y.	c #788795",
"z.	c #778497",
"A.	c #7A909E",
"B.	c #9DCCD0",
"C.	c #98D0D0",
"D.	c #708995",
"E.	c #7A8491",
"F.	c #565F6B",
"G.	c #A8B2BE",
"H.	c #5F6773",
"I.	c #77838D",
"J.	c #7B939E",
"K.	c #748995",
"L.	c #6B7C88",
"M.	c #6C7A88",
"N.	c #637482",
"O.	c #6B7E8C",
"P.	c #76909B",
"Q.	c #83909B",
"R.	c #59636C",
"S.	c #758493",
"T.	c #929DAB",
"U.	c #56616D",
"V.	c #76828B",
"W.	c #7B8795",
"X.	c #717E8F",
"Y.	c #647585",
"Z.	c #697889",
"`.	c #74838F",
" +	c #7D8994",
".+	c #525C66",
"++	c #95A4B0",
"@+	c #5A6573",
"#+	c #575E66",
"$+	c #697582",
"%+	c #768391",
"&+	c #7A8692",
"*+	c #6F7984",
"=+	c #565D66",
"-+	c #48535E",
";+	c #778592",
">+	c #8D9DA9",
",+	c #6E7A87",
"'+	c #545E6C",
")+	c #535C68",
"!+	c #616C78",
"~+	c #7D8D99",
"                . + @ # $ %                 ",
"            & * = - ; > , ' ) !             ",
"          ~ { ] ^ / ( _ : < [ } |           ",
"        1 2 3 4 5 6 7 8 9 0 a b c d         ",
"        e f g h i j k l m n o p q r         ",
"      & s t u v w x y z A B C D E F G       ",
"      H I J K L M N O P Q R S T U V W       ",
"      X Y Z `  ...+.@.#.$.%.&.*.=.-.;.      ",
"      >.,.'.( ).!.~.{.].^./.(._.:.<.[.      ",
"      }.|.1.2.3.4.5.6.7.8.9.0.a.b.c.d.      ",
"      e.f.E g.h.i.R j.k.l.m.n.o.p.q.r.      ",
"        s.t.u.v.w.x.y.z.A.B.C.D.E.F.        ",
"        G.H.I.J.K.L.M.p.N.O.P.Q.R.S.        ",
"          T.U.V.W.X.p.Y.Z.`. +.+)           ",
"            ++@+#+$+%+&+*+=+-+;+            ",
"                >+,+'+)+!+~+                "};
