/* XPM */
static char * mozilla_down_p_xpm[] = {
"22 20 202 2",
"  	c None",
". 	c #C2CBD4",
"+ 	c #A9B2BA",
"@ 	c #8F98A4",
"# 	c #8B94A0",
"$ 	c #9DA8B2",
"% 	c #BBC0CD",
"& 	c #C5CDD5",
"* 	c #828E98",
"= 	c #55606F",
"- 	c #525D67",
"; 	c #57636E",
"> 	c #5A626E",
", 	c #515C67",
"' 	c #4D545F",
") 	c #67737F",
"! 	c #AEB7C3",
"~ 	c #BBC2CC",
"{ 	c #626B77",
"] 	c #535F6D",
"^ 	c #6E7D8E",
"/ 	c #738593",
"( 	c #7A8897",
"_ 	c #7A8999",
": 	c #7B8897",
"< 	c #74828F",
"[ 	c #566370",
"} 	c #485360",
"| 	c #929DA8",
"1 	c #C1CBD5",
"2 	c #606A76",
"3 	c #505D6D",
"4 	c #718192",
"5 	c #798696",
"6 	c #7A8A99",
"7 	c #7C8A9B",
"8 	c #7E8C9C",
"9 	c #818F9D",
"0 	c #828C9D",
"a 	c #7D8A99",
"b 	c #616E7B",
"c 	c #45515D",
"d 	c #A1ABB6",
"e 	c #808A97",
"f 	c #535E6D",
"g 	c #728090",
"h 	c #778597",
"i 	c #778898",
"j 	c #7B8A9A",
"k 	c #A2CBCE",
"l 	c #A4C9CF",
"m 	c #7D8D9C",
"n 	c #8391A0",
"o 	c #818E9F",
"p 	c #7B8A9B",
"q 	c #56616E",
"r 	c #535F6B",
"s 	c #C2CAD2",
"t 	c #535E6A",
"u 	c #637581",
"v 	c #768697",
"w 	c #79889A",
"x 	c #7C8C99",
"y 	c #B8D8DD",
"z 	c #B3D6DB",
"A 	c #818D9C",
"B 	c #81909E",
"C 	c #83919F",
"D 	c #7E8D9C",
"E 	c #717E8E",
"F 	c #404957",
"G 	c #8E9BAA",
"H 	c #ADB6C1",
"I 	c #4C5865",
"J 	c #758191",
"K 	c #788795",
"L 	c #8DA3AD",
"M 	c #89A0AD",
"N 	c #7D8998",
"O 	c #C2DBDE",
"P 	c #BFDADE",
"Q 	c #838F9E",
"R 	c #808C9D",
"S 	c #738190",
"T 	c #4A535F",
"U 	c #626E7D",
"V 	c #939EA9",
"W 	c #576370",
"X 	c #748494",
"Y 	c #7A889A",
"Z 	c #C1E2E3",
"` 	c #C8E4E6",
" .	c #7C8B97",
"..	c #C9DFE2",
"+.	c #CBE0E1",
"@.	c #82909C",
"#.	c #B0DCDD",
"$.	c #9ED9D9",
"%.	c #7D8B99",
"&.	c #718190",
"*.	c #59646F",
"=.	c #556171",
"-.	c #8D9AA5",
";.	c #5F6A76",
">.	c #768292",
",.	c #B5CBD0",
"'.	c #E6F9F8",
").	c #D7EBED",
"!.	c #E1F3F2",
"~.	c #DEF5F3",
"{.	c #C8EFEF",
"].	c #C6F5F3",
"^.	c #A3CACD",
"/.	c #788697",
"(.	c #6B7C8B",
"_.	c #54616F",
":.	c #A2AEB6",
"<.	c #6E7A85",
"[.	c #707E8E",
"}.	c #7B879B",
"|.	c #7B8B9A",
"1.	c #C2D3D8",
"2.	c #EEF9FB",
"3.	c #ECFDFC",
"4.	c #E4FDFC",
"5.	c #D7F9F8",
"6.	c #B5D7DD",
"7.	c #758594",
"8.	c #707F90",
"9.	c #647686",
"0.	c #697581",
"a.	c #5D6A78",
"b.	c #B2BBC8",
"c.	c #67727E",
"d.	c #717E8D",
"e.	c #748293",
"f.	c #798996",
"g.	c #7D8B9A",
"h.	c #BBCDD1",
"i.	c #E4F7F8",
"j.	c #DCF9F6",
"k.	c #BDD2D4",
"l.	c #778594",
"m.	c #6B7C8C",
"n.	c #657684",
"o.	c #697889",
"p.	c #69727F",
"q.	c #778393",
"r.	c #707A87",
"s.	c #6F7A86",
"t.	c #6D7E8A",
"u.	c #6F7F8E",
"v.	c #788392",
"w.	c #758591",
"x.	c #A5BBC3",
"y.	c #ABBDC5",
"z.	c #758292",
"A.	c #69788A",
"B.	c #617282",
"C.	c #5F7080",
"D.	c #7A8491",
"E.	c #515B64",
"F.	c #A2AEBB",
"G.	c #5C6776",
"H.	c #77818B",
"I.	c #707E8C",
"J.	c #6A7A88",
"K.	c #697A88",
"L.	c #6C7A88",
"M.	c #6B7888",
"N.	c #647582",
"O.	c #5F727F",
"P.	c #627283",
"Q.	c #7E8A93",
"R.	c #59616A",
"S.	c #6E7C89",
"T.	c #575F6B",
"U.	c #76818C",
"V.	c #6E7D8C",
"W.	c #6A7787",
"X.	c #677586",
"Y.	c #697989",
"Z.	c #73818F",
"`.	c #7F8998",
" +	c #525A63",
".+	c #63707D",
"++	c #909CAB",
"@+	c #54606D",
"#+	c #535C65",
"$+	c #69747F",
"%+	c #798390",
"&+	c #7A8592",
"*+	c #6D7885",
"=+	c #535A65",
"-+	c #434F5B",
";+	c #717D8C",
">+	c #8796A4",
",+	c #687583",
"'+	c #485362",
")+	c #44525E",
"!+	c #586472",
"~+	c #798594",
"                                            ",
"                                            ",
"                . + @ # $ %                 ",
"            & * = - ; > , ' ) !             ",
"          ~ { ] ^ / ( _ : < [ } |           ",
"        1 2 3 4 5 6 7 8 9 0 a b c d         ",
"        e f g h i j k l m n o p q r         ",
"      s t u v w j x y z A B C D E F G       ",
"      H I J K L M N O P Q L M R S T U       ",
"      V W X Y Z `  ...+.@.#.$.%.&.*.=.      ",
"      -.;.>.( ,.'.).!.~.{.].^./.(.2 _.      ",
"      :.<.[.}.|.1.2.3.4.5.6.7.8.9.0.a.      ",
"      b.c.d.e.f.g.h.i.j.k.l.m.n.o.p.q.      ",
"        r.s.t.u.v.w.x.y.z.A.B.C.D.E.        ",
"        F.G.H.I.J.K.L.M.N.O.P.Q.R.S.        ",
"          -.T.U.: V.W.X.Y.Z.`. +.+          ",
"            ++@+#+$+%+&+*+=+-+;+            ",
"                >+,+'+)+!+~+                ",
"                                            ",
"                                            "};
