/* XPM */
static char * mozilla_sticky_p_xpm[] = {
"22 20 205 2",
"  	c None",
". 	c #C7D2D9",
"+ 	c #A9B3BD",
"@ 	c #94A0AA",
"# 	c #939BA8",
"$ 	c #A1ABB7",
"% 	c #C2CAD6",
"& 	c #C9D1DA",
"* 	c #89929D",
"= 	c #57616E",
"- 	c #525C69",
"; 	c #596371",
"> 	c #56626E",
", 	c #4F5A69",
"' 	c #4C5661",
") 	c #6D7985",
"! 	c #B5BECA",
"~ 	c #BDC6CF",
"{ 	c #656E7A",
"] 	c #535F6C",
"^ 	c #6B7B8A",
"/ 	c #748593",
"( 	c #79879A",
"_ 	c #7A8897",
": 	c #7B8896",
"< 	c #768192",
"[ 	c #566370",
"} 	c #495762",
"| 	c #9AA4B3",
"1 	c #626D7A",
"2 	c #505D6B",
"3 	c #718191",
"4 	c #829AA7",
"5 	c #8FB6BC",
"6 	c #91B8C0",
"7 	c #90B9C1",
"8 	c #90B9C0",
"9 	c #8FB2BA",
"0 	c #808FA0",
"a 	c #626F7B",
"b 	c #48525E",
"c 	c #A3B1BB",
"d 	c #86929B",
"e 	c #525E6C",
"f 	c #728191",
"g 	c #778796",
"h 	c #B4D6DB",
"i 	c #E5F7F8",
"j 	c #E8F7F9",
"k 	c #E3F7F6",
"l 	c #D9EEEE",
"m 	c #BFDDE2",
"n 	c #879FA9",
"o 	c #7C8A9B",
"p 	c #515F6C",
"q 	c #58636D",
"r 	c #CAD0DB",
"s 	c #56606D",
"t 	c #6A7685",
"u 	c #788594",
"v 	c #7B8996",
"w 	c #D0E6E7",
"x 	c #EAFCFA",
"y 	c #E8FCF9",
"z 	c #B2E0E1",
"A 	c #91A6B0",
"B 	c #8C9DAA",
"C 	c #8392A2",
"D 	c #7E8D9C",
"E 	c #707E8B",
"F 	c #414A55",
"G 	c #95A0AE",
"H 	c #B0B9C5",
"I 	c #4C5965",
"J 	c #71818F",
"K 	c #798696",
"L 	c #7D8B98",
"M 	c #D1E7EA",
"N 	c #D9F5F4",
"O 	c #DFF6F7",
"P 	c #DEF4F6",
"Q 	c #9EC0C7",
"R 	c #818F9E",
"S 	c #81909C",
"T 	c #808C9D",
"U 	c #738190",
"V 	c #48545D",
"W 	c #6C7885",
"X 	c #9BA5B2",
"Y 	c #5B6571",
"Z 	c #778494",
"` 	c #7B8998",
" .	c #7D8E9A",
"..	c #CBE5E7",
"+.	c #C2D9DA",
"@.	c #A0C6CC",
"#.	c #DBF1F2",
"$.	c #CAE6E7",
"%.	c #889BA8",
"&.	c #808F9C",
"*.	c #7D8B99",
"=.	c #708191",
"-.	c #57646F",
";.	c #606C7C",
">.	c #989FAC",
",.	c #5E6B78",
"'.	c #748393",
").	c #808E9D",
"!.	c #C1E0E2",
"~.	c #B8D0D3",
"{.	c #849BA7",
"].	c #BBD7DA",
"^.	c #D3F0EF",
"/.	c #90ACB6",
"(.	c #7F8D9C",
"_.	c #788697",
":.	c #6A7C8B",
"<.	c #5E6A76",
"[.	c #606C7A",
"}.	c #A4AFBB",
"|.	c #6E7B83",
"1.	c #728091",
"2.	c #7B8898",
"3.	c #7D8D9D",
"4.	c #9CB5C0",
"5.	c #98B2BB",
"6.	c #80909E",
"7.	c #9EC3C7",
"8.	c #CBEDEE",
"9.	c #99ACB6",
"0.	c #707F90",
"a.	c #647585",
"b.	c #6A757F",
"c.	c #667382",
"d.	c #B7C4CC",
"e.	c #677380",
"f.	c #6E7F8E",
"g.	c #768291",
"h.	c #798898",
"i.	c #7B8B9C",
"j.	c #7E8C9C",
"k.	c #9EC6C9",
"l.	c #BDEDEA",
"m.	c #91A6B2",
"n.	c #707E8E",
"o.	c #657583",
"p.	c #697785",
"q.	c #6A727E",
"r.	c #7B889C",
"s.	c #74808F",
"t.	c #6B7985",
"u.	c #6C7D8B",
"v.	c #728090",
"w.	c #758394",
"x.	c #798693",
"y.	c #7F919F",
"z.	c #A9D2D5",
"A.	c #A5E1DF",
"B.	c #7D95A3",
"C.	c #657184",
"D.	c #617181",
"E.	c #798593",
"F.	c #555F6C",
"G.	c #A8B2C0",
"H.	c #5E6773",
"I.	c #77808B",
"J.	c #6F7F8C",
"K.	c #6C7989",
"L.	c #6C7B87",
"M.	c #6E7E8E",
"N.	c #80A0AC",
"O.	c #799DA7",
"P.	c #607481",
"Q.	c #647183",
"R.	c #7D8A96",
"S.	c #5B636E",
"T.	c #758392",
"U.	c #939EAB",
"V.	c #5A626E",
"W.	c #75818B",
"X.	c #7C8898",
"Y.	c #6F7E8D",
"Z.	c #697787",
"`.	c #677584",
" +	c #6B7A88",
".+	c #738293",
"++	c #7E8996",
"@+	c #525D68",
"#+	c #6D7A87",
"$+	c #95A4B1",
"%+	c #5A6471",
"&+	c #555F66",
"*+	c #6A7480",
"=+	c #788290",
"-+	c #7A8691",
";+	c #6D7983",
">+	c #535C67",
",+	c #495261",
"'+	c #778594",
")+	c #8F9DAB",
"!+	c #6E7B89",
"~+	c #545F6E",
"{+	c #525D6A",
"]+	c #616E7A",
"^+	c #7D8C9B",
"                                            ",
"                                            ",
"                . + @ # $ %                 ",
"            & * = - ; > , ' ) !             ",
"          ~ { ] ^ / ( _ : < [ } |           ",
"        & 1 2 3 4 5 6 7 8 9 0 a b c         ",
"        d e f g h i j k l m n o p q         ",
"      r s t u v w x y z A B C D E F G       ",
"      H I J K L M N O P Q R S T U V W       ",
"      X Y Z `  ...+.@.#.$.%.&.*.=.-.;.      ",
"      >.,.'.` ).!.~.{.].^./.(._.:.<.[.      ",
"      }.|.1.2.3.4.5.6.7.8.9.: 0.a.b.c.      ",
"      d.e.f.g.h.i.(.j.k.l.m.n.o.p.q.r.      ",
"        s.t.u.v.w.x.y.z.A.B.C.D.E.F.        ",
"        G.H.I.J.K.L.M.N.O.P.Q.R.S.T.        ",
"          U.V.W.X.Y.Z.`. +.+++@+#+          ",
"            $+%+&+*+=+-+;+>+,+'+            ",
"                )+!+~+{+]+^+                ",
"                                            ",
"                                            "};
