/* XPM */
static char * mozilla_minimize_xpm[] = {
"22 20 201 2",
"  	c None",
". 	c #C8D1DB",
"+ 	c #ACB6C0",
"@ 	c #98A3AF",
"# 	c #94A1AB",
"$ 	c #A4AFB8",
"% 	c #C0CAD2",
"& 	c #CBD0DC",
"* 	c #8E97A3",
"= 	c #6D7983",
"- 	c #78818B",
"; 	c #84929F",
"> 	c #8590A0",
", 	c #707B84",
"' 	c #636E78",
") 	c #748190",
"! 	c #B4BFC9",
"~ 	c #C0C8D2",
"{ 	c #74818C",
"] 	c #89919C",
"^ 	c #B6BDC8",
"/ 	c #BCC5CF",
"( 	c #B4C0CC",
"_ 	c #B0BAC5",
": 	c #A9B4C0",
"< 	c #98A7B1",
"[ 	c #788290",
"} 	c #5C6975",
"| 	c #9CA7B4",
"1 	c #C9D1DA",
"2 	c #74808C",
"3 	c #96A1AB",
"4 	c #BDC8D4",
"5 	c #B9C4CD",
"6 	c #B3BEC9",
"7 	c #ACB8C3",
"8 	c #A7B4BF",
"9 	c #9EAEB7",
"0 	c #99A7B5",
"a 	c #95A1AD",
"b 	c #788590",
"c 	c #54616C",
"d 	c #A6B1BD",
"e 	c #8E98A1",
"f 	c #83919C",
"g 	c #BEC5D0",
"h 	c #B7C2CC",
"i 	c #B1BBC5",
"j 	c #AAB8BF",
"k 	c #A3B3BB",
"l 	c #9FAFBB",
"m 	c #97A4B1",
"n 	c #959EAE",
"o 	c #8A98A7",
"p 	c #8694A3",
"q 	c #66727F",
"r 	c #5E6A79",
"s 	c #C7D0D9",
"t 	c #6B747D",
"u 	c #ACB5BF",
"v 	c #AFBDC8",
"w 	c #ABBBC4",
"x 	c #A6B3BF",
"y 	c #A0AFBD",
"z 	c #9DADBA",
"A 	c #99A6B6",
"B 	c #8E9DAA",
"C 	c #8996A8",
"D 	c #85939F",
"E 	c #808D9E",
"F 	c #778394",
"G 	c #485460",
"H 	c #919FAE",
"I 	c #AEB8C5",
"J 	c #717A87",
"K 	c #B0BDC7",
"L 	c #ABB7C4",
"M 	c #A1AEBC",
"N 	c #9CA8B4",
"O 	c #97A4B0",
"P 	c #939FAC",
"Q 	c #8B99A6",
"R 	c #838F9F",
"S 	c #7D899A",
"T 	c #798897",
"U 	c #788598",
"V 	c #707F91",
"W 	c #4E5C6B",
"X 	c #6B7989",
"Y 	c #9AA2AD",
"Z 	c #7B8890",
"` 	c #A7B6C1",
" .	c #A1ADBB",
"..	c #D5DBE1",
"+.	c #D7DDE1",
"@.	c #DEE1E9",
"#.	c #DEE2E8",
"$.	c #CED3DB",
"%.	c #7D8A9A",
"&.	c #697A8A",
"*.	c #546373",
"=.	c #5C6775",
"-.	c #97A0AB",
";.	c #A2AEBD",
">.	c #99A8B5",
",.	c #D4DAE0",
"'.	c #D2D9E0",
").	c #D8E0E4",
"!.	c #DBDEE6",
"~.	c #CAD1DB",
"{.	c #BFC6D2",
"].	c #788896",
"^.	c #637284",
"/.	c #515D6A",
"(.	c #576373",
"_.	c #A5AFBB",
":.	c #66727E",
"<.	c #9BA6B4",
"[.	c #93A0AF",
"}.	c #8597A5",
"|.	c #8C97A5",
"1.	c #8794A2",
"2.	c #80909F",
"3.	c #788696",
"4.	c #718190",
"5.	c #6F8090",
"6.	c #677688",
"7.	c #627085",
"8.	c #5C6C7E",
"9.	c #444E5B",
"0.	c #626D7C",
"a.	c #B9C4CC",
"b.	c #5B6671",
"c.	c #8A95A2",
"d.	c #8C99A7",
"e.	c #8492A2",
"f.	c #7D8D9E",
"g.	c #788897",
"h.	c #728392",
"i.	c #6E7D8F",
"j.	c #6B7A8C",
"k.	c #667687",
"l.	c #5C6F7F",
"m.	c #576A7C",
"n.	c #516277",
"o.	c #333E4A",
"p.	c #7B8999",
"q.	c #6F7C88",
"r.	c #64717F",
"s.	c #838F9E",
"t.	c #7D8A9C",
"u.	c #788697",
"v.	c #6E7F8F",
"w.	c #6C7C8D",
"x.	c #617182",
"y.	c #5A6D7F",
"z.	c #55687A",
"A.	c #536376",
"B.	c #414E5E",
"C.	c #424C58",
"D.	c #A7B4C0",
"E.	c #536170",
"F.	c #65707E",
"G.	c #768396",
"H.	c #727F93",
"I.	c #687889",
"J.	c #637485",
"K.	c #5F6E80",
"L.	c #5A6B7C",
"M.	c #536576",
"N.	c #506075",
"O.	c #455365",
"P.	c #37404D",
"Q.	c #778392",
"R.	c #929FAD",
"S.	c #4E5A65",
"T.	c #576573",
"U.	c #657485",
"V.	c #617183",
"W.	c #5C6F7E",
"X.	c #58687B",
"Y.	c #536377",
"Z.	c #4B5D6E",
"`.	c #404D5C",
" +	c #36404B",
".+	c #6D7A88",
"++	c #98A5B3",
"@+	c #5B6673",
"#+	c #404A54",
"$+	c #445260",
"%+	c #475666",
"&+	c #465463",
"*+	c #3E4A58",
"=+	c #404B59",
"-+	c #768594",
";+	c #8D9EAB",
">+	c #6F7D8D",
",+	c #5D6575",
"'+	c #596471",
")+	c #646E7E",
"!+	c #818C9B",
"                                            ",
"                                            ",
"                . + @ # $ %                 ",
"            & * = - ; > , ' ) !             ",
"          ~ { ] ^ / ( _ : < [ } |           ",
"        1 2 3 4 5 6 7 8 9 0 a b c d         ",
"        e f g h i j k l m n o p q r         ",
"      s t u v w x y z A B C D E F G H       ",
"      I J K L M N O P Q R S T U V W X       ",
"      Y Z `  .s ..+.@.#...$.g %.&.*.=.      ",
"      -.b ;.>.g ,.'.).!.,.~.{.].^./.(.      ",
"      _.:.<.[.}.|.1.2.3.4.5.6.7.8.9.0.      ",
"      a.b.c.d.e.f.g.h.i.j.k.l.m.n.o.p.      ",
"        q.r.s.t.u.v.w.k.x.y.z.A.B.C.        ",
"        D.E.F.G.H.I.J.K.L.M.N.O.P.Q.        ",
"          R.S.T.U.V.W.X.Y.Z.`. +.+          ",
"            ++@+#+$+%+&+*+o.=+-+            ",
"                ;+>+,+'+)+!+                ",
"                                            ",
"                                            "};
