/* XPM */
static char * mozilla_minimize_p_xpm[] = {
"22 20 204 2",
"  	c None",
". 	c #C2CBD4",
"+ 	c #A9B2BA",
"@ 	c #8F98A4",
"# 	c #8B94A0",
"$ 	c #9DA8B2",
"% 	c #BBC0CD",
"& 	c #C5CDD5",
"* 	c #828E98",
"= 	c #55606F",
"- 	c #525D67",
"; 	c #57636E",
"> 	c #5A626E",
", 	c #515C67",
"' 	c #4D545F",
") 	c #67737F",
"! 	c #AEB7C3",
"~ 	c #BBC2CC",
"{ 	c #626B77",
"] 	c #535F6D",
"^ 	c #6D7D8D",
"/ 	c #758495",
"( 	c #778897",
"_ 	c #7B8899",
": 	c #7B8898",
"< 	c #76828F",
"[ 	c #566370",
"} 	c #485360",
"| 	c #929DA8",
"1 	c #C1CBD5",
"2 	c #606A76",
"3 	c #505D6D",
"4 	c #718192",
"5 	c #788697",
"6 	c #788998",
"7 	c #7E8E9E",
"8 	c #8193A0",
"9 	c #818E9F",
"0 	c #808F9B",
"a 	c #7D8A9A",
"b 	c #616E7B",
"c 	c #45515D",
"d 	c #A1ABB6",
"e 	c #808A97",
"f 	c #535E6D",
"g 	c #728090",
"h 	c #778597",
"i 	c #778898",
"j 	c #7C8B9A",
"k 	c #ACC5CC",
"l 	c #BFE1E3",
"m 	c #93A6AF",
"n 	c #8391A2",
"o 	c #82909E",
"p 	c #7B8A9B",
"q 	c #56616E",
"r 	c #535F6B",
"s 	c #C2CAD2",
"t 	c #535E6A",
"u 	c #637581",
"v 	c #748695",
"w 	c #79889A",
"x 	c #7B8A9A",
"y 	c #7B8D9B",
"z 	c #AFC7CD",
"A 	c #E0FAF8",
"B 	c #D7ECED",
"C 	c #90A7AD",
"D 	c #8392A0",
"E 	c #818D9C",
"F 	c #717E8D",
"G 	c #404957",
"H 	c #8E9BAA",
"I 	c #ADB6C1",
"J 	c #4C5865",
"K 	c #748192",
"L 	c #778798",
"M 	c #778698",
"N 	c #7A8795",
"O 	c #8294A1",
"P 	c #C2D2D6",
"Q 	c #EAFCFB",
"R 	c #CFEBEA",
"S 	c #95A7B3",
"T 	c #7F8E9C",
"U 	c #758292",
"V 	c #4A535F",
"W 	c #626E7D",
"X 	c #939EA9",
"Y 	c #576370",
"Z 	c #748493",
"` 	c #798898",
" .	c #8DB2B8",
"..	c #A8D5D9",
"+.	c #B2DBDD",
"@.	c #C0E0E1",
"#.	c #D5EDEE",
"$.	c #E3FEFA",
"%.	c #E0FCFB",
"&.	c #C2E4E6",
"*.	c #8C9AA6",
"=.	c #738191",
"-.	c #59646F",
";.	c #556171",
">.	c #8D9AA5",
",.	c #5F6A76",
"'.	c #748291",
").	c #7B8999",
"!.	c #8FB3BB",
"~.	c #A4D9DC",
"{.	c #B3DBDC",
"].	c #BEE2E1",
"^.	c #CBF2EF",
"/.	c #DCFCFC",
"(.	c #D8FAF7",
"_.	c #BDE0E2",
":.	c #8496A1",
"<.	c #6B7D8B",
"[.	c #54616F",
"}.	c #A2AEB6",
"|.	c #6E7A85",
"1.	c #70808D",
"2.	c #7B8895",
"3.	c #7B8B9C",
"4.	c #82909F",
"5.	c #879EAA",
"6.	c #A5E0E0",
"7.	c #CBF7F7",
"8.	c #BBE1E4",
"9.	c #8A9DA6",
"0.	c #707F8E",
"a.	c #657587",
"b.	c #697581",
"c.	c #5D6A78",
"d.	c #B2BBC8",
"e.	c #67727E",
"f.	c #748293",
"g.	c #798996",
"h.	c #7D8B9A",
"i.	c #8092A0",
"j.	c #9BD2D5",
"k.	c #B5F2F3",
"l.	c #ACDEE0",
"m.	c #8699A5",
"n.	c #6F7E8E",
"o.	c #657586",
"p.	c #697789",
"q.	c #69727F",
"r.	c #778393",
"s.	c #707A87",
"t.	c #6F7A86",
"u.	c #6D7E8A",
"v.	c #6F7F8E",
"w.	c #788392",
"x.	c #7A919C",
"y.	c #90D6D5",
"z.	c #9CD7D7",
"A.	c #8195A4",
"B.	c #6B7A8C",
"C.	c #647382",
"D.	c #607181",
"E.	c #7A8491",
"F.	c #515B64",
"G.	c #A2AEBB",
"H.	c #5C6776",
"I.	c #77818B",
"J.	c #707E8C",
"K.	c #6A7A88",
"L.	c #6D7B8A",
"M.	c #758998",
"N.	c #738692",
"O.	c #647585",
"P.	c #5F707F",
"Q.	c #627283",
"R.	c #7E8A93",
"S.	c #59616A",
"T.	c #6E7C89",
"U.	c #575F6B",
"V.	c #76818C",
"W.	c #7B8897",
"X.	c #6E7D8C",
"Y.	c #6A7787",
"Z.	c #677586",
"`.	c #697989",
" +	c #73818F",
".+	c #7F8998",
"++	c #525A63",
"@+	c #63707D",
"#+	c #909CAB",
"$+	c #54606D",
"%+	c #535C65",
"&+	c #69747F",
"*+	c #798390",
"=+	c #7A8592",
"-+	c #6D7885",
";+	c #535A65",
">+	c #434F5B",
",+	c #717D8C",
"'+	c #8796A4",
")+	c #687583",
"!+	c #485362",
"~+	c #44525E",
"{+	c #586472",
"]+	c #798594",
"                                            ",
"                                            ",
"                . + @ # $ %                 ",
"            & * = - ; > , ' ) !             ",
"          ~ { ] ^ / ( _ : < [ } |           ",
"        1 2 3 4 5 6 7 8 9 0 a b c d         ",
"        e f g h i j k l m n o p q r         ",
"      s t u v w x y z A B C D E F G H       ",
"      I J K L M N _ O P Q R S T U V W       ",
"      X Y Z `  ...+.@.#.$.%.&.*.=.-.;.      ",
"      >.,.'.).!.~.{.].^./.(._.:.<.2 [.      ",
"      }.|.1.2.3.0 4.5.6.7.8.9.0.a.b.c.      ",
"      d.e.F f.g.h.i.j.k.l.m.n.o.p.q.r.      ",
"        s.t.u.v.w.x.y.z.A.B.C.D.E.F.        ",
"        G.H.I.J.K.L.M.N.O.P.Q.R.S.T.        ",
"          >.U.V.W.X.Y.Z.`. +.+++@+          ",
"            #+$+%+&+*+=+-+;+>+,+            ",
"                '+)+!+~+{+]+                ",
"                                            ",
"                                            "};
