/* XPM */
static char * mozilla_minimize_xpm[] = {
"22 20 204 2",
"  	c None",
". 	c #C8D1DB",
"+ 	c #ACB6C0",
"@ 	c #98A3AF",
"# 	c #94A1AB",
"$ 	c #A4AFB8",
"% 	c #C0CAD2",
"& 	c #CBD0DC",
"* 	c #8E97A3",
"= 	c #6D7983",
"- 	c #78818B",
"; 	c #84929F",
"> 	c #8491A0",
", 	c #707B85",
"' 	c #636E78",
") 	c #748190",
"! 	c #B4BFC9",
"~ 	c #C0C8D2",
"{ 	c #74818C",
"] 	c #89919C",
"^ 	c #B4BDC8",
"/ 	c #BDC6CE",
"( 	c #B6C1CC",
"_ 	c #AEBCC7",
": 	c #A8B5C0",
"< 	c #98A7B0",
"[ 	c #788190",
"} 	c #5C6975",
"| 	c #9CA7B4",
"1 	c #C9D1DA",
"2 	c #74808C",
"3 	c #96A1AB",
"4 	c #BDC8D4",
"5 	c #B9C3CD",
"6 	c #B1BDC7",
"7 	c #A0ADB7",
"8 	c #94A2AF",
"9 	c #9CA9B4",
"0 	c #9BA7B3",
"a 	c #95A2AE",
"b 	c #778590",
"c 	c #54616C",
"d 	c #A6B1BD",
"e 	c #8E98A1",
"f 	c #83919C",
"g 	c #BEC6D0",
"h 	c #B7C2CC",
"i 	c #B1BBC5",
"j 	c #9FADB8",
"k 	c #C3CDD3",
"l 	c #E3E7EA",
"m 	c #9FABB4",
"n 	c #93A0AD",
"o 	c #8D98A7",
"p 	c #8593A1",
"q 	c #66717F",
"r 	c #5E6A79",
"s 	c #C7D0D9",
"t 	c #6B747D",
"u 	c #ADB5BF",
"v 	c #B3BFCA",
"w 	c #ABBBC4",
"x 	c #A6B3BF",
"y 	c #99A4B2",
"z 	c #C3CBD1",
"A 	c #F6F8F7",
"B 	c #F5F3F7",
"C 	c #98A8B5",
"D 	c #8592A1",
"E 	c #7E8D9C",
"F 	c #768394",
"G 	c #485460",
"H 	c #919FAE",
"I 	c #AEB8C5",
"J 	c #717A87",
"K 	c #AAB9C2",
"L 	c #99A9B7",
"M 	c #8E9CA9",
"N 	c #8C98A6",
"O 	c #8693A1",
"P 	c #CACED4",
"Q 	c #F9FAFB",
"R 	c #EEF0F5",
"S 	c #9EAAB5",
"T 	c #798698",
"U 	c #707F91",
"V 	c #4E5C6B",
"W 	c #6B7989",
"X 	c #9AA2AD",
"Y 	c #7B8790",
"Z 	c #AAB6C1",
"` 	c #9DADB6",
" .	c #9FA9B6",
"..	c #C7CED4",
"+.	c #D1D7DD",
"@.	c #D9DEE5",
"#.	c #E7E9EC",
"$.	c #F9F9FB",
"%.	c #F8F7F8",
"&.	c #E5E8EC",
"*.	c #8894A1",
"=.	c #697A89",
"-.	c #546373",
";.	c #5C6775",
">.	c #97A0AB",
",.	c #788590",
"'.	c #9FAEB9",
").	c #99A6B4",
"!.	c #C8CFD6",
"~.	c #D2D9E0",
"{.	c #D9E0E5",
"].	c #E3E7EC",
"^.	c #EFF2F4",
"/.	c #EEF0F3",
"(.	c #DFE2EA",
"_.	c #818F9E",
":.	c #617282",
"<.	c #515D6A",
"[.	c #576373",
"}.	c #A5AFBB",
"|.	c #66717E",
"1.	c #97A4B3",
"2.	c #909FAC",
"3.	c #8897A5",
"4.	c #8A96A3",
"5.	c #8593A4",
"6.	c #BCC4CC",
"7.	c #E4E7EE",
"8.	c #D5DCE1",
"9.	c #8694A2",
"0.	c #627283",
"a.	c #5B6C7E",
"b.	c #444E5B",
"c.	c #626D7C",
"d.	c #B9C4CC",
"e.	c #5B6671",
"f.	c #8994A1",
"g.	c #8A98A6",
"h.	c #8793A0",
"i.	c #7D8D9E",
"j.	c #808D9E",
"k.	c #B3BEC8",
"l.	c #D4DDE4",
"m.	c #CAD4DC",
"n.	c #8493A3",
"o.	c #5E6F7F",
"p.	c #56697A",
"q.	c #506276",
"r.	c #333E4A",
"s.	c #7B8999",
"t.	c #6F7C88",
"u.	c #64717F",
"v.	c #83909E",
"w.	c #7D8A9C",
"x.	c #788597",
"y.	c #7C8B9A",
"z.	c #BCC4CD",
"A.	c #BCC6CF",
"B.	c #81909B",
"C.	c #5D6E7E",
"D.	c #55677D",
"E.	c #506377",
"F.	c #414E5E",
"G.	c #424C58",
"H.	c #A7B4C0",
"I.	c #536170",
"J.	c #65707E",
"K.	c #768396",
"L.	c #6A7B8C",
"M.	c #7A8896",
"N.	c #748695",
"O.	c #5C6D7E",
"P.	c #546677",
"Q.	c #4E6174",
"R.	c #445364",
"S.	c #37404D",
"T.	c #778392",
"U.	c #929FAD",
"V.	c #4E5A65",
"W.	c #576573",
"X.	c #657485",
"Y.	c #617284",
"Z.	c #5C6F7D",
"`.	c #55697C",
" +	c #526477",
".+	c #4C5E6F",
"++	c #404D5C",
"@+	c #36404B",
"#+	c #6D7A88",
"$+	c #98A5B3",
"%+	c #5B6673",
"&+	c #404A54",
"*+	c #445260",
"=+	c #475666",
"-+	c #465463",
";+	c #3E4A58",
">+	c #404B59",
",+	c #768594",
"'+	c #8D9EAB",
")+	c #6F7D8D",
"!+	c #5D6575",
"~+	c #596471",
"{+	c #646E7E",
"]+	c #818C9B",
"                                            ",
"                                            ",
"                . + @ # $ %                 ",
"            & * = - ; > , ' ) !             ",
"          ~ { ] ^ / ( _ : < [ } |           ",
"        1 2 3 4 5 6 7 8 9 0 a b c d         ",
"        e f g h i j k l m n o p q r         ",
"      s t u v w x y z A B C D E F G H       ",
"      I J 6 K L M N O P Q R S T U V W       ",
"      X Y Z `  ...+.@.#.$.%.&.*.=.-.;.      ",
"      >.,.'.).: !.~.{.].^./.(._.:.<.[.      ",
"      }.|.1.2.3.4.5.3.6.7.8.9.0.a.b.c.      ",
"      d.e.f.g.h.i.j.k.l.m.n.o.p.q.r.s.      ",
"        t.u.v.w.x.y.z.A.B.C.D.E.F.G.        ",
"        H.I.J.K.U L.M.N.O.P.Q.R.S.T.        ",
"          U.V.W.X.Y.Z.`. +.+++@+#+          ",
"            $+%+&+*+=+-+;+r.>+,+            ",
"                '+)+!+~+{+]+                ",
"                                            ",
"                                            "};
