/* XPM */
static char * mozilla_maximize_xpm[] = {
"22 20 191 2",
"  	c None",
". 	c #AAB5C2",
"+ 	c #98A4AD",
"@ 	c #99A1AB",
"# 	c #A4AEB8",
"$ 	c #8E99A5",
"% 	c #6F7A85",
"& 	c #78828D",
"* 	c #88939B",
"= 	c #88909B",
"- 	c #717C86",
"; 	c #636D7A",
"> 	c #768290",
", 	c #C1C8D1",
"' 	c #757F8D",
") 	c #88939D",
"! 	c #B4BEC8",
"~ 	c #BAC5D1",
"{ 	c #B4BFCC",
"] 	c #AEBAC6",
"^ 	c #A7B5C0",
"/ 	c #9BA6B3",
"( 	c #7A8490",
"_ 	c #5E6976",
": 	c #9DA8B4",
"< 	c #77828F",
"[ 	c #96A0AB",
"} 	c #BCC9D4",
"| 	c #BAC3CE",
"1 	c #B1BEC8",
"2 	c #A8B2BD",
"3 	c #9DA9B4",
"4 	c #9CAAB6",
"5 	c #9AA7B5",
"6 	c #95A1AD",
"7 	c #788593",
"8 	c #54606F",
"9 	c #8D98A1",
"0 	c #88929B",
"a 	c #BEC6D2",
"b 	c #B5C1CE",
"c 	c #AEBCC7",
"d 	c #A6B3C0",
"e 	c #CED5DB",
"f 	c #E8EBED",
"g 	c #A3ADB8",
"h 	c #959FAE",
"i 	c #8D9AA6",
"j 	c #8594A2",
"k 	c #657180",
"l 	c #5D6A7A",
"m 	c #6B747E",
"n 	c #ABB6C2",
"o 	c #B5C0CA",
"p 	c #AEBAC7",
"q 	c #A2AEBD",
"r 	c #D6DBE2",
"s 	c #FBFAFC",
"t 	c #EEEFF1",
"u 	c #A1ACB9",
"v 	c #8998A8",
"w 	c #8391A0",
"x 	c #7C8C9D",
"y 	c #748494",
"z 	c #49545E",
"A 	c #B1BAC7",
"B 	c #6F7C88",
"C 	c #B1BCC9",
"D 	c #ABB8C2",
"E 	c #9AAAB4",
"F 	c #FAFAFB",
"G 	c #EDEFF4",
"H 	c #A6B1BC",
"I 	c #8C9AA9",
"J 	c #8695A3",
"K 	c #808D9C",
"L 	c #7A8696",
"M 	c #718091",
"N 	c #505C6B",
"O 	c #6E7A87",
"P 	c #98A3AD",
"Q 	c #7B8991",
"R 	c #A9B7C2",
"S 	c #A1ADBA",
"T 	c #B3BEC6",
"U 	c #F1F3F4",
"V 	c #F8F9FA",
"W 	c #F4F5F5",
"X 	c #E4E6EB",
"Y 	c #DAE1E5",
"Z 	c #D3D8E0",
"` 	c #C4CCD4",
" .	c #7D8B9A",
"..	c #69798B",
"+.	c #556373",
"@.	c #5B6876",
"#.	c #97A0AB",
"$.	c #778490",
"%.	c #A2ADBC",
"&.	c #98A5B2",
"*.	c #B7C0C9",
"=.	c #EBEEEE",
"-.	c #F0F2F3",
";.	c #E9ECF0",
">.	c #DCE0E6",
",.	c #D4DAE1",
"'.	c #CAD1DB",
").	c #C0C7D3",
"!.	c #788896",
"~.	c #607282",
"{.	c #505D6B",
"].	c #576572",
"^.	c #A7B0BB",
"/.	c #65707D",
"(.	c #9AA5B4",
"_.	c #92A1AE",
":.	c #939DAC",
"<.	c #C9D0D7",
"[.	c #E5E8ED",
"}.	c #D1D8E1",
"|.	c #909DA9",
"1.	c #778496",
"2.	c #707F8D",
"3.	c #6B7A8C",
"4.	c #607285",
"5.	c #596C7F",
"6.	c #414D5D",
"7.	c #606E7C",
"8.	c #5D6871",
"9.	c #8696A2",
"0.	c #8492A4",
"a.	c #8996A4",
"b.	c #C7D0D6",
"c.	c #D8DEE6",
"d.	c #C5CDD5",
"e.	c #7F8E9F",
"f.	c #607485",
"g.	c #5A6E81",
"h.	c #58697C",
"i.	c #526274",
"j.	c #333E4B",
"k.	c #6E7B87",
"l.	c #66717C",
"m.	c #81909F",
"n.	c #7D8C9C",
"o.	c #768497",
"p.	c #8290A1",
"q.	c #BBC4D0",
"r.	c #C3CBD6",
"s.	c #8292A0",
"t.	c #5A6D7D",
"u.	c #55677A",
"v.	c #4F6376",
"w.	c #404F5D",
"x.	c #424C58",
"y.	c #55626D",
"z.	c #64717F",
"A.	c #768597",
"B.	c #707E8F",
"C.	c #6B7A8A",
"D.	c #6D7E8D",
"E.	c #72808F",
"F.	c #5C6E83",
"G.	c #53667B",
"H.	c #506174",
"I.	c #445364",
"J.	c #36404B",
"K.	c #909FAC",
"L.	c #4D5A66",
"M.	c #586574",
"N.	c #637383",
"O.	c #637284",
"P.	c #5C6F81",
"Q.	c #58687A",
"R.	c #4F6577",
"S.	c #4D5D72",
"T.	c #3F4D5C",
"U.	c #39404B",
"V.	c #6D7A88",
"W.	c #5B6772",
"X.	c #404856",
"Y.	c #465060",
"Z.	c #465665",
"`.	c #465463",
" +	c #3F4957",
".+	c #333E4A",
"++	c #424D59",
"@+	c #6E7D88",
"#+	c #5A6674",
"$+	c #596470",
"%+	c #626E7C",
"                                            ",
"                                            ",
"                  . + @ #                   ",
"              $ % & * = - ; >               ",
"          , ' ) ! ~ { ] ^ / ( _ :           ",
"          < [ } | 1 2 3 4 5 6 7 8           ",
"        9 0 a b c d e f g h i j k l         ",
"        m n o p q r s t u v w x y z         ",
"      A B C D E e F G H I J K L M N O       ",
"      P Q R S T U V W X Y Z `  ...+.@.      ",
"      #.$.%.&.*.=.-.;.>.,.'.).!.~.{.].      ",
"      ^./.(._.:.<.[.}.|.1.2.3.4.5.6.7.      ",
"        8.9.I 0.a.b.c.d.e.f.g.h.i.j.        ",
"        k.l.m.n.o.p.q.r.s.t.u.v.w.x.        ",
"          y.z.A.B.C.D.E.F.G.H.I.J.          ",
"          K.L.M.N.O.P.Q.R.S.T.U.V.          ",
"              W.X.Y.Z.`. +.+++              ",
"                  @+#+$+%+                  ",
"                                            ",
"                                            "};
