/* XPM */
static char * mozilla_sticky_p_xpm[] = {
"22 20 195 2",
"  	c None",
". 	c #C2CBD4",
"+ 	c #A9B2BA",
"@ 	c #8F98A4",
"# 	c #8B94A0",
"$ 	c #9DA8B2",
"% 	c #BBC0CD",
"& 	c #C5CDD5",
"* 	c #828E98",
"= 	c #55606F",
"- 	c #525D67",
"; 	c #57636E",
"> 	c #5A626E",
", 	c #515C67",
"' 	c #4D545F",
") 	c #67737F",
"! 	c #AEB7C3",
"~ 	c #BBC2CC",
"{ 	c #626B77",
"] 	c #535F6D",
"^ 	c #6E7D8E",
"/ 	c #738593",
"( 	c #7A8897",
"_ 	c #7A8999",
": 	c #7B8897",
"< 	c #74828F",
"[ 	c #566370",
"} 	c #485360",
"| 	c #929DA8",
"1 	c #C1CBD5",
"2 	c #606A76",
"3 	c #505D6D",
"4 	c #718192",
"5 	c #798696",
"6 	c #7A8A99",
"7 	c #7C8A9B",
"8 	c #7E8C9C",
"9 	c #818F9D",
"0 	c #828C9D",
"a 	c #7D8A99",
"b 	c #616E7B",
"c 	c #45515D",
"d 	c #A1ABB6",
"e 	c #808A97",
"f 	c #535E6D",
"g 	c #728090",
"h 	c #778597",
"i 	c #778898",
"j 	c #7B8A9A",
"k 	c #7F8D9B",
"l 	c #7F8E9C",
"m 	c #7D8D9C",
"n 	c #8391A0",
"o 	c #818E9F",
"p 	c #7B8A9B",
"q 	c #56616E",
"r 	c #535F6B",
"s 	c #C2CAD2",
"t 	c #535E6A",
"u 	c #637581",
"v 	c #768697",
"w 	c #79889A",
"x 	c #7C8C99",
"y 	c #808E9D",
"z 	c #818FA0",
"A 	c #818D9C",
"B 	c #81909E",
"C 	c #83919F",
"D 	c #7E8D9C",
"E 	c #717E8E",
"F 	c #404957",
"G 	c #8E9BAA",
"H 	c #ADB6C1",
"I 	c #4C5865",
"J 	c #758191",
"K 	c #788795",
"L 	c #7B8A99",
"M 	c #8FACB6",
"N 	c #AADCE0",
"O 	c #AADDE0",
"P 	c #93B0BA",
"Q 	c #81919E",
"R 	c #81909C",
"S 	c #808C9D",
"T 	c #738190",
"U 	c #4A535F",
"V 	c #626E7D",
"W 	c #939EA9",
"X 	c #576370",
"Y 	c #748494",
"Z 	c #7A889A",
"` 	c #7C8A9A",
" .	c #7B8999",
"..	c #A8DCDF",
"+.	c #B3EEF0",
"@.	c #B3EFF0",
"#.	c #808F9F",
"$.	c #7D8C9B",
"%.	c #7D8B99",
"&.	c #718190",
"*.	c #59646F",
"=.	c #556171",
"-.	c #8D9AA5",
";.	c #5F6A76",
">.	c #768292",
",.	c #7C8B98",
"'.	c #A8DCE0",
").	c #808E9C",
"!.	c #7B8B99",
"~.	c #788697",
"{.	c #6B7C8B",
"].	c #54616F",
"^.	c #A2AEB6",
"/.	c #6E7A85",
"(.	c #707E8E",
"_.	c #7B879B",
":.	c #7B8B9A",
"<.	c #7D8C98",
"[.	c #8CACB5",
"}.	c #90AEB8",
"|.	c #7E8D99",
"1.	c #758594",
"2.	c #707F90",
"3.	c #647686",
"4.	c #697581",
"5.	c #5D6A78",
"6.	c #B2BBC8",
"7.	c #67727E",
"8.	c #717E8D",
"9.	c #748293",
"0.	c #798996",
"a.	c #7D8B9A",
"b.	c #7F8C9A",
"c.	c #7D8A9A",
"d.	c #818B9B",
"e.	c #7C8B99",
"f.	c #778594",
"g.	c #6B7C8C",
"h.	c #657684",
"i.	c #697889",
"j.	c #69727F",
"k.	c #778393",
"l.	c #707A87",
"m.	c #6F7A86",
"n.	c #6D7E8A",
"o.	c #6F7F8E",
"p.	c #788392",
"q.	c #758591",
"r.	c #788794",
"s.	c #758292",
"t.	c #69788A",
"u.	c #617282",
"v.	c #5F7080",
"w.	c #7A8491",
"x.	c #515B64",
"y.	c #A2AEBB",
"z.	c #5C6776",
"A.	c #77818B",
"B.	c #707E8C",
"C.	c #6A7A88",
"D.	c #697A88",
"E.	c #6C7A88",
"F.	c #6B7888",
"G.	c #647582",
"H.	c #5F727F",
"I.	c #627283",
"J.	c #7E8A93",
"K.	c #59616A",
"L.	c #6E7C89",
"M.	c #575F6B",
"N.	c #76818C",
"O.	c #6E7D8C",
"P.	c #6A7787",
"Q.	c #677586",
"R.	c #697989",
"S.	c #73818F",
"T.	c #7F8998",
"U.	c #525A63",
"V.	c #63707D",
"W.	c #909CAB",
"X.	c #54606D",
"Y.	c #535C65",
"Z.	c #69747F",
"`.	c #798390",
" +	c #7A8592",
".+	c #6D7885",
"++	c #535A65",
"@+	c #434F5B",
"#+	c #717D8C",
"$+	c #8796A4",
"%+	c #687583",
"&+	c #485362",
"*+	c #44525E",
"=+	c #586472",
"-+	c #798594",
"                                            ",
"                                            ",
"                . + @ # $ %                 ",
"            & * = - ; > , ' ) !             ",
"          ~ { ] ^ / ( _ : < [ } |           ",
"        1 2 3 4 5 6 7 8 9 0 a b c d         ",
"        e f g h i j k l m n o p q r         ",
"      s t u v w j x y z A B C D E F G       ",
"      H I J K j L M N O P Q R S T U V       ",
"      W X Y Z `  ...+.@.O #.$.%.&.*.=.      ",
"      -.;.>.( ,.p ..@.@.'.).!.~.{.2 ].      ",
"      ^./.(._.:.<.[.'.'.}.|.1.2.3.4.5.      ",
"      6.7.8.9.0.a.b.c.d.e.f.g.h.i.j.k.      ",
"        l.m.n.o.p.q.r.r.s.t.u.v.w.x.        ",
"        y.z.A.B.C.D.E.F.G.H.I.J.K.L.        ",
"          -.M.N.: O.P.Q.R.S.T.U.V.          ",
"            W.X.Y.Z.`. +.+++@+#+            ",
"                $+%+&+*+=+-+                ",
"                                            ",
"                                            "};
