/* XPM */
static char * title_inactive_xpm[] = {
"1 21 13 1",
" 	c #DEE3EF",
".	c #DEDFEF",
"+	c #D6DBE7",
"@	c #D6D7E7",
"#	c #CED3E7",
"$	c #CED3DE",
"%	c #C6CFDE",
"&	c #C6CBDE",
"*	c #BDC7D6",
"=	c #BDC3D6",
"-	c #B5C3CE",
";	c #B5BECE",
">	c #8C9EAD",
" ",
".",
".",
"+",
"+",
"@",
"#",
"$",
"%",
"%",
"&",
"*",
"*",
"=",
"-",
";",
";",
";",
";",
";",
">"};
