/* XPM */
static char * title_active_xpm[] = {
"1 21 13 1",
" 	c #B5BECE",
".	c #B5C3CE",
"+	c #BDC3D6",
"@	c #BDC7D6",
"#	c #C6CBD6",
"$	c #C6CFDE",
"%	c #CED3DE",
"&	c #CED3E7",
"*	c #CED7E7",
"=	c #D6DBE7",
"-	c #DEDFEF",
";	c #DEE3EF",
">	c #8C9EAD",
" ",
".",
"+",
"@",
"@",
"#",
"$",
"$",
"%",
"&",
"*",
"=",
"=",
"-",
"-",
";",
";",
";",
";",
";",
">"};
