/* XPM */
static char * title1_xpm[] = {
"1 23 17 1",
" 	c None",
".	c #CDD6DE",
"+	c #B4BEC5",
"@	c #B4BECD",
"#	c #B4C2CD",
"$	c #BDBECD",
"%	c #B4C6CD",
"&	c #BDC2D5",
"*	c #BDC6CD",
"=	c #BDC6D5",
"-	c #BDCACD",
";	c #C5CAD5",
">	c #BDCED5",
",	c #C5CED5",
"'	c #C5D2D5",
")	c #C5D2DE",
"!	c #94A1AC",
".",
"+",
"+",
"@",
"#",
"$",
"#",
"%",
"&",
"*",
"=",
"-",
";",
">",
";",
",",
",",
"'",
")",
")",
")",
")",
"!"};
