/* XPM */
static char * mozilla_up_p_xpm[] = {
"22 20 201 2",
"  	c None",
". 	c #C2CBD4",
"+ 	c #A9B2BA",
"@ 	c #8F98A4",
"# 	c #8B94A0",
"$ 	c #9DA8B2",
"% 	c #BBC0CD",
"& 	c #C5CDD5",
"* 	c #828E98",
"= 	c #55606F",
"- 	c #525D67",
"; 	c #57636E",
"> 	c #5A626E",
", 	c #515C67",
"' 	c #4D545F",
") 	c #67737F",
"! 	c #AEB7C3",
"~ 	c #BBC2CC",
"{ 	c #626B77",
"] 	c #535F6D",
"^ 	c #6E7D8E",
"/ 	c #738593",
"( 	c #7A8897",
"_ 	c #7A8999",
": 	c #7B8897",
"< 	c #74828F",
"[ 	c #566370",
"} 	c #485360",
"| 	c #929DA8",
"1 	c #C1CBD5",
"2 	c #606A76",
"3 	c #505D6D",
"4 	c #718192",
"5 	c #798696",
"6 	c #7A8A99",
"7 	c #7C8A9B",
"8 	c #7E8C9C",
"9 	c #818F9D",
"0 	c #828C9D",
"a 	c #7D8A99",
"b 	c #616E7B",
"c 	c #45515D",
"d 	c #A1ABB6",
"e 	c #808A97",
"f 	c #535E6D",
"g 	c #728090",
"h 	c #778597",
"i 	c #778898",
"j 	c #7B8A9A",
"k 	c #ABBDC5",
"l 	c #A5BBC3",
"m 	c #7D8D9C",
"n 	c #8391A0",
"o 	c #818E9F",
"p 	c #7B8A9B",
"q 	c #56616E",
"r 	c #535F6B",
"s 	c #C2CAD2",
"t 	c #535E6A",
"u 	c #637581",
"v 	c #768697",
"w 	c #79889A",
"x 	c #BDD2D4",
"y 	c #DCF9F6",
"z 	c #E4F7F8",
"A 	c #BBCDD1",
"B 	c #81909E",
"C 	c #83919F",
"D 	c #7E8D9C",
"E 	c #717E8E",
"F 	c #404957",
"G 	c #8E9BAA",
"H 	c #ADB6C1",
"I 	c #4C5865",
"J 	c #758191",
"K 	c #788795",
"L 	c #B5D7DD",
"M 	c #D7F9F8",
"N 	c #E4FDFC",
"O 	c #ECFDFC",
"P 	c #EEF9FB",
"Q 	c #C2D3D8",
"R 	c #81909C",
"S 	c #808C9D",
"T 	c #738190",
"U 	c #4A535F",
"V 	c #626E7D",
"W 	c #939EA9",
"X 	c #576370",
"Y 	c #748494",
"Z 	c #7A889A",
"` 	c #A3CACD",
" .	c #C6F5F3",
"..	c #C8EFEF",
"+.	c #DEF5F3",
"@.	c #E1F3F2",
"#.	c #D7EBED",
"$.	c #E6F9F8",
"%.	c #B5CBD0",
"&.	c #7D8B99",
"*.	c #718190",
"=.	c #59646F",
"-.	c #556171",
";.	c #8D9AA5",
">.	c #5F6A76",
",.	c #768292",
"'.	c #B0DCDD",
").	c #7B8C98",
"!.	c #CBE0E1",
"~.	c #C9DFE2",
"{.	c #C8E4E6",
"].	c #C1E2E3",
"^.	c #788697",
"/.	c #6B7C8B",
"(.	c #54616F",
"_.	c #A2AEB6",
":.	c #6E7A85",
"<.	c #707E8E",
"[.	c #7B879B",
"}.	c #7B8B9A",
"|.	c #7D8C98",
"1.	c #798A97",
"2.	c #BFDADE",
"3.	c #C2DBDE",
"4.	c #7F8D9B",
"5.	c #7E8D99",
"6.	c #758594",
"7.	c #707F90",
"8.	c #647686",
"9.	c #697581",
"0.	c #5D6A78",
"a.	c #B2BBC8",
"b.	c #67727E",
"c.	c #717E8D",
"d.	c #748293",
"e.	c #798996",
"f.	c #7D8B9A",
"g.	c #7F8C9A",
"h.	c #B3D6DB",
"i.	c #B8D8DD",
"j.	c #7C8B99",
"k.	c #778594",
"l.	c #6B7C8C",
"m.	c #657684",
"n.	c #697889",
"o.	c #69727F",
"p.	c #778393",
"q.	c #707A87",
"r.	c #6F7A86",
"s.	c #6D7E8A",
"t.	c #6F7F8E",
"u.	c #788392",
"v.	c #758591",
"w.	c #A4C9CF",
"x.	c #A2CBCE",
"y.	c #758292",
"z.	c #69788A",
"A.	c #617282",
"B.	c #5F7080",
"C.	c #7A8491",
"D.	c #515B64",
"E.	c #A2AEBB",
"F.	c #5C6776",
"G.	c #77818B",
"H.	c #707E8C",
"I.	c #6A7A88",
"J.	c #697A88",
"K.	c #6C7A88",
"L.	c #6B7888",
"M.	c #647582",
"N.	c #5F727F",
"O.	c #627283",
"P.	c #7E8A93",
"Q.	c #59616A",
"R.	c #6E7C89",
"S.	c #575F6B",
"T.	c #76818C",
"U.	c #6E7D8C",
"V.	c #6A7787",
"W.	c #677586",
"X.	c #697989",
"Y.	c #73818F",
"Z.	c #7F8998",
"`.	c #525A63",
" +	c #63707D",
".+	c #909CAB",
"++	c #54606D",
"@+	c #535C65",
"#+	c #69747F",
"$+	c #798390",
"%+	c #7A8592",
"&+	c #6D7885",
"*+	c #535A65",
"=+	c #434F5B",
"-+	c #717D8C",
";+	c #8796A4",
">+	c #687583",
",+	c #485362",
"'+	c #44525E",
")+	c #586472",
"!+	c #798594",
"                                            ",
"                                            ",
"                . + @ # $ %                 ",
"            & * = - ; > , ' ) !             ",
"          ~ { ] ^ / ( _ : < [ } |           ",
"        1 2 3 4 5 6 7 8 9 0 a b c d         ",
"        e f g h i j k l m n o p q r         ",
"      s t u v w j x y z A B C D E F G       ",
"      H I J K j L M N O P Q R S T U V       ",
"      W X Y Z `  ...+.@.#.$.%.&.*.=.-.      ",
"      ;.>.,.(  .'.).!.~.8 {.].^./.2 (.      ",
"      _.:.<.[.}.|.1.2.3.4.5.6.7.8.9.0.      ",
"      a.b.c.d.e.f.g.h.i.j.k.l.m.n.o.p.      ",
"        q.r.s.t.u.v.w.x.y.z.A.B.C.D.        ",
"        E.F.G.H.I.J.K.L.M.N.O.P.Q.R.        ",
"          ;.S.T.: U.V.W.X.Y.Z.`. +          ",
"            .+++@+#+$+%+&+*+=+-+            ",
"                ;+>+,+'+)+!+                ",
"                                            ",
"                                            "};
