/* XPM */
static char * mozilla_maximize_p_xpm[] = {
"22 20 185 2",
"  	c None",
". 	c #C2CBD4",
"+ 	c #A9B2BA",
"@ 	c #8F98A4",
"# 	c #8B94A0",
"$ 	c #9DA8B2",
"% 	c #BBC0CD",
"& 	c #C5CDD5",
"* 	c #828E98",
"= 	c #55606F",
"- 	c #525D67",
"; 	c #57636E",
"> 	c #5A626E",
", 	c #515C67",
"' 	c #4D545F",
") 	c #67737F",
"! 	c #AEB7C3",
"~ 	c #BBC2CC",
"{ 	c #626B77",
"] 	c #535F6D",
"^ 	c #6E7D8E",
"/ 	c #738593",
"( 	c #7A8897",
"_ 	c #7A8999",
": 	c #7B8897",
"< 	c #74828F",
"[ 	c #566370",
"} 	c #485360",
"| 	c #929DA8",
"1 	c #C1CBD5",
"2 	c #606A76",
"3 	c #505D6D",
"4 	c #718192",
"5 	c #798696",
"6 	c #7A8A99",
"7 	c #7C8A9B",
"8 	c #7E8C9C",
"9 	c #818F9D",
"0 	c #828C9D",
"a 	c #7D8A99",
"b 	c #616E7B",
"c 	c #45515D",
"d 	c #A1ABB6",
"e 	c #808A97",
"f 	c #535E6D",
"g 	c #728090",
"h 	c #778597",
"i 	c #778898",
"j 	c #7B8A9A",
"k 	c #B8D8DD",
"l 	c #B3D6DB",
"m 	c #7D8D9C",
"n 	c #8391A0",
"o 	c #818E9F",
"p 	c #7B8A9B",
"q 	c #56616E",
"r 	c #535F6B",
"s 	c #C2CAD2",
"t 	c #535E6A",
"u 	c #637581",
"v 	c #768697",
"w 	c #79889A",
"x 	c #7C8C99",
"y 	c #818D9C",
"z 	c #81909E",
"A 	c #83919F",
"B 	c #7E8D9C",
"C 	c #717E8E",
"D 	c #404957",
"E 	c #8E9BAA",
"F 	c #ADB6C1",
"G 	c #4C5865",
"H 	c #758191",
"I 	c #788795",
"J 	c #7B8A99",
"K 	c #7D8998",
"L 	c #C2DBDE",
"M 	c #BFDADE",
"N 	c #838F9E",
"O 	c #81919E",
"P 	c #81909C",
"Q 	c #808C9D",
"R 	c #738190",
"S 	c #4A535F",
"T 	c #626E7D",
"U 	c #939EA9",
"V 	c #576370",
"W 	c #748494",
"X 	c #7A889A",
"Y 	c #A2CBCE",
"Z 	c #C8DEE3",
"` 	c #C6E0E0",
" .	c #7D8B99",
"..	c #718190",
"+.	c #59646F",
"@.	c #556171",
"#.	c #8D9AA5",
"$.	c #5F6A76",
"%.	c #768292",
"&.	c #A4C9CF",
"*.	c #C1E1E3",
"=.	c #BEE2E1",
"-.	c #788697",
";.	c #6B7C8B",
">.	c #54616F",
",.	c #A2AEB6",
"'.	c #6E7A85",
").	c #707E8E",
"!.	c #7B879B",
"~.	c #7B8B9A",
"{.	c #7D8C98",
"].	c #798A97",
"^.	c #7F8D9B",
"/.	c #7E8D99",
"(.	c #758594",
"_.	c #707F90",
":.	c #647686",
"<.	c #697581",
"[.	c #5D6A78",
"}.	c #B2BBC8",
"|.	c #67727E",
"1.	c #717E8D",
"2.	c #748293",
"3.	c #798996",
"4.	c #7D8B9A",
"5.	c #7F8C9A",
"6.	c #7C8B99",
"7.	c #778594",
"8.	c #6B7C8C",
"9.	c #657684",
"0.	c #697889",
"a.	c #69727F",
"b.	c #778393",
"c.	c #707A87",
"d.	c #6F7A86",
"e.	c #6D7E8A",
"f.	c #6F7F8E",
"g.	c #788392",
"h.	c #758591",
"i.	c #758292",
"j.	c #69788A",
"k.	c #617282",
"l.	c #5F7080",
"m.	c #7A8491",
"n.	c #515B64",
"o.	c #A2AEBB",
"p.	c #5C6776",
"q.	c #77818B",
"r.	c #707E8C",
"s.	c #6A7A88",
"t.	c #697A88",
"u.	c #6C7A88",
"v.	c #6B7888",
"w.	c #647582",
"x.	c #5F727F",
"y.	c #627283",
"z.	c #7E8A93",
"A.	c #59616A",
"B.	c #6E7C89",
"C.	c #575F6B",
"D.	c #76818C",
"E.	c #6E7D8C",
"F.	c #6A7787",
"G.	c #677586",
"H.	c #697989",
"I.	c #73818F",
"J.	c #7F8998",
"K.	c #525A63",
"L.	c #63707D",
"M.	c #909CAB",
"N.	c #54606D",
"O.	c #535C65",
"P.	c #69747F",
"Q.	c #798390",
"R.	c #7A8592",
"S.	c #6D7885",
"T.	c #535A65",
"U.	c #434F5B",
"V.	c #717D8C",
"W.	c #8796A4",
"X.	c #687583",
"Y.	c #485362",
"Z.	c #44525E",
"`.	c #586472",
" +	c #798594",
"                                            ",
"                                            ",
"                . + @ # $ %                 ",
"            & * = - ; > , ' ) !             ",
"          ~ { ] ^ / ( _ : < [ } |           ",
"        1 2 3 4 5 6 7 8 9 0 a b c d         ",
"        e f g h i j k l m n o p q r         ",
"      s t u v w j x k l y z A B C D E       ",
"      F G H I j J K L M N O P Q R S T       ",
"      U V W X Y k L Z ` L k k  ...+.@.      ",
"      #.$.%.( &.l M *.=.M l l -.;.2 >.      ",
"      ,.'.).!.~.{.].L M ^./.(._.:.<.[.      ",
"      }.|.1.2.3.4.5.k l 6.7.8.9.0.a.b.      ",
"        c.d.e.f.g.h.Y &.i.j.k.l.m.n.        ",
"        o.p.q.r.s.t.u.v.w.x.y.z.A.B.        ",
"          #.C.D.: E.F.G.H.I.J.K.L.          ",
"            M.N.O.P.Q.R.S.T.U.V.            ",
"                W.X.Y.Z.`. +                ",
"                                            ",
"                                            "};
