/* XPM */
static char * MOZILLA_MINIMIZE_ACT_xpm[] = {
"29 29 179 2",
"  	c None",
". 	c #DEE2E6",
"+ 	c #D5E2E6",
"@ 	c #DEE2EE",
"# 	c #DEE6E6",
"$ 	c #CDD6DE",
"% 	c #C5CEDE",
"& 	c #BDCED5",
"* 	c #C5CED5",
"= 	c #DEDEEE",
"- 	c #DEDEE6",
"; 	c #D5E6E6",
"> 	c #BDC6D5",
", 	c #9CB2BD",
"' 	c #7B859C",
") 	c #6A7983",
"! 	c #5A6973",
"~ 	c #626973",
"{ 	c #626D7B",
"] 	c #6A7D83",
"^ 	c #8B9DA4",
"/ 	c #B4BAC5",
"( 	c #D5DAE6",
"_ 	c #D5DEE6",
": 	c #C5C6D5",
"< 	c #949DAC",
"[ 	c #414C52",
"} 	c #5A6173",
"| 	c #6A7D8B",
"1 	c #738594",
"2 	c #737D94",
"3 	c #5A6573",
"4 	c #394452",
"5 	c #525D62",
"6 	c #A4B2C5",
"7 	c #D5DEDE",
"8 	c #A4AEBD",
"9 	c #627583",
"0 	c #62757B",
"a 	c #ACAEBD",
"b 	c #C5CAD5",
"c 	c #BDCACD",
"d 	c #BDC2D5",
"e 	c #B4C2C5",
"f 	c #B4BECD",
"g 	c #ACBABD",
"h 	c #9CAAB4",
"i 	c #4A5562",
"j 	c #738994",
"k 	c #CDDADE",
"l 	c #D5D6E6",
"m 	c #9CA5B4",
"n 	c #4A5D62",
"o 	c #52596A",
"p 	c #ACAEB4",
"q 	c #BDC6CD",
"r 	c #B4C2CD",
"s 	c #ACBEC5",
"t 	c #ACB6C5",
"u 	c #ACB2C5",
"v 	c #A4B2BD",
"w 	c #9CAEB4",
"x 	c #94A5AC",
"y 	c #62717B",
"z 	c #BDCAD5",
"A 	c #B4C6CD",
"B 	c #B4BEC5",
"C 	c #B4BACD",
"D 	c #ACBAC5",
"E 	c #ACB6BD",
"F 	c #9CB2B4",
"G 	c #9CAEBD",
"H 	c #6A7583",
"I 	c #313C41",
"J 	c #5A6D83",
"K 	c #CDD2DE",
"L 	c #BDC2CD",
"M 	c #A4BABD",
"N 	c #A4B6BD",
"O 	c #94A5B4",
"P 	c #94A1AC",
"Q 	c #6A758B",
"R 	c #C5D2D5",
"S 	c #9CAABD",
"T 	c #919BA9",
"U 	c #8B9DAC",
"V 	c #8B99A4",
"W 	c #8B91A4",
"X 	c #39444A",
"Y 	c #8B95A4",
"Z 	c #9499AC",
"` 	c #8399A4",
" .	c #8391A4",
"..	c #80939C",
"+.	c #7B899C",
"@.	c #31384A",
"#.	c #526173",
"$.	c #627173",
"%.	c #5A616A",
"&.	c #9CAABA",
"*.	c #9CA6B5",
"=.	c #8B95AC",
"-.	c #83919C",
";.	c #838DA4",
">.	c #838D9C",
",.	c #7B8994",
"'.	c #7B8D9C",
").	c #4A4C5A",
"!.	c #96A5B4",
"~.	c #8395A4",
"{.	c #83959C",
"].	c #7B819C",
"^.	c #5A657B",
"/.	c #7B919C",
"(.	c #414052",
"_.	c #738194",
":.	c #394C5A",
"<.	c #73818B",
"[.	c #7B8194",
"}.	c #6A7994",
"|.	c #4A5962",
"1.	c #ACB7C5",
"2.	c #DEEAE6",
"3.	c #EEEAF6",
"4.	c #EEF2F6",
"5.	c #F6F6FF",
"6.	c #F6F6F6",
"7.	c #E6EEEE",
"8.	c #E6E6EE",
"9.	c #52617B",
"0.	c #D5DADE",
"a.	c #EEEEF6",
"b.	c #DEE6EE",
"c.	c #7B8594",
"d.	c #627183",
"e.	c #5A717B",
"f.	c #A4AABD",
"g.	c #94A1B4",
"h.	c #8BA1AC",
"i.	c #626D83",
"j.	c #5A697B",
"k.	c #9CA1B4",
"l.	c #6A798B",
"m.	c #5A7183",
"n.	c #5A6D7B",
"o.	c #394052",
"p.	c #6D778E",
"q.	c #617482",
"r.	c #52697B",
"s.	c #52657B",
"t.	c #526573",
"u.	c #202831",
"v.	c #414C62",
"w.	c #798594",
"x.	c #708191",
"y.	c #6D7E8E",
"z.	c #627983",
"A.	c #414C5A",
"B.	c #C5D2DE",
"C.	c #C5CADE",
"D.	c #838DA1",
"E.	c #6A818B",
"F.	c #4A6173",
"G.	c #292831",
"H.	c #5F7180",
"I.	c #525D73",
"J.	c #525D7B",
"K.	c #4A5D73",
"L.	c #5A7583",
"M.	c #677988",
"N.	c #4A5D6A",
"O.	c #9CA5BD",
"P.	c #737D8B",
"Q.	c #BDBECD",
"R.	c #313841",
"S.	c #414452",
"T.	c #39384A",
"U.	c #737983",
"V.	c #A4BAC5",
". + . @ . + @ . @ . @ # $ % % & * @ @ + = + = + = . - . - ",
"= . . @ + @ . ; # > , ' ) ! ~ ! { ] ^ / ( _ _ - _ - _ = + ",
"+ + = + . . @ : < { [ [ } | 1 2 3 [ 4 5 | 6 $ _ ( 7 _ _ _ ",
"= - . @ . = 8 9 [ 0 a b c d e f / g h { 4 i j b k l ( ( 7 ",
"- + + @ _ m n o p b : q d r s / t u v w m o 4 ) u $ $ k k ",
"+ = . _ x i y > z c > A B C D E v F G h m x H I J e K K K ",
"- + @ v o y * & > L r f / M u N 8 w m O P < ^ H I Q z R * ",
"+ . c H n q : q d e B D g t v v S P m P T U V W 5 X Y z & ",
"= . < [ G > q r e / t g v F F G h P < Z ` W  ...+.@.#.t > ",
"+ b $.%.q r f f D t N v 8 w &.*.O T U =.Y -.;.>.,.! I '.f ",
"- G ).P L f M D M v 8 G S G S !.P ` W ~.{.>.'.+.].| @.^.s ",
"= /.(.r B s D v 6 8 w m x m x P T Y -.;.>.+.+.1 _.| 4 :.O ",
"( | 5 f D t u 8 P P < P P Y >.'.1 2 <.2 | 1 [.2 | }.|.(. .",
"b ~ $.1.M v 8 U K 7 . 2.3.4.5.6.4.7.8.# 7 K 1 | | 9 9.I +.",
"* 3 H N 6 8 w Z K 0.- 8.7.a.4.4.a.7.b.= ( K c.Q Q d.5 @.,.",
"b 3 y v 8 S h U R $ 7 @ 2.7.a.a.7.8.@ 7 l R j 9 d.e.o @.1 ",
"K ) 5 f.h O g.{. .V Z U < h.-.>.'.,.+.j 2 Q Q i.i.j.).I ' ",
"( | 4 h m k.P U ` V Y -.>.+.1 _.| l.| l.9 d.i.m.n.^.I 4 Y ",
"0.< o.{.P < U Y ~. .'.+.,.1 _.2 l.p.l.Q q.J n.r.s.t.u.v.h ",
"$ M 5 o < V Y -.;.'.+.j w.x.y.| l.| z.d.e.j.r.^.9.A.u.9 S ",
"B.C.| I '.W -.D.'.+.c._.E.2 l.Q 9 d.q.J j.r.^.#.F.G.4 -.S ",
"* & m o A./.>.,.' 1 _.| l.| z.9 i.H.j.r.s.t.F.I.4 u.n.m h ",
"b b z j o.o ,.' 1 _.2 l.Q 9 d.i.e.j.r.t.#.J.K.A.u.v.Y w f.",
"q c > f L.I i _.2 2 | z.9 d.J j.n.^.#.#.F.K.A.G.4 ' h h w ",
"q d A A u j.I ).z.M.Q d.i.e.n.^.s.#.F.N.I.X u.X +.w S O.P.",
"r r r Q.r v l.:.R.i n.J e.j.r.s.t.J.N.v.u.u.v.j S h h ) X ",
"e Q.r f e f D >.o I G.I v.:.i A.4 I u.u.o.j.^ S h f. .S./ ",
"B f B f f s C D v +.n.v.4 T.@.I T.4 |.Q {.h S f., v ! U.r ",
"B s C s s C s s C D V.S V c.1 c.'.Y f.h G f.w v 8 N 3 U.t "};
