/* XPM */
static char * MOZILLA_LARR_INC_xpm[] = {
"29 29 150 2",
"  	c None",
". 	c #DEE2E6",
"+ 	c #DEDEEE",
"@ 	c #D5E2E6",
"# 	c #DEE2EE",
"$ 	c #CDD6DE",
"% 	c #C5CEDE",
"& 	c #C5CED5",
"* 	c #C5D2D5",
"= 	c #C5CADE",
"- 	c #DEDEE6",
"; 	c #BDC6D5",
"> 	c #A4B2BD",
", 	c #838D9C",
"' 	c #7B8994",
") 	c #73858B",
"! 	c #7B8194",
"~ 	c #73818B",
"{ 	c #7B8594",
"] 	c #8B9DA4",
"^ 	c #B4BACD",
"/ 	c #D5DAE6",
"( 	c #D5DEE6",
"_ 	c #BDC6CD",
": 	c #94A1AC",
"< 	c #6A7983",
"[ 	c #737D83",
"} 	c #838DA4",
"| 	c #8399A4",
"1 	c #949DAC",
"2 	c #7B899C",
"3 	c #6A758B",
"4 	c #626D7B",
"5 	c #6A7583",
"6 	c #738594",
"7 	c #ACB2C5",
"8 	c #A4AABD",
"9 	c #B4BECD",
"0 	c #BDCED5",
"a 	c #BDBECD",
"b 	c #ACBEC5",
"c 	c #B4BAC5",
"d 	c #ACBAC5",
"e 	c #9CB2BD",
"f 	c #5A717B",
"g 	c #7B8D9C",
"h 	c #D5DADE",
"i 	c #9CA5B4",
"j 	c #BDCAD5",
"k 	c #B4C6CD",
"l 	c #B4C2CD",
"m 	c #B4BEC5",
"n 	c #ACB6C5",
"o 	c #A4B6BD",
"p 	c #A4AEBD",
"q 	c #9CB2B4",
"r 	c #5A6573",
"s 	c #737D8B",
"t 	c #D5DEDE",
"u 	c #CDDADE",
"v 	c #6A7D83",
"w 	c #C5C6D5",
"x 	c #C5CAD5",
"y 	c #BDC2CD",
"z 	c #9CAEBD",
"A 	c #9CAAB4",
"B 	c #94A5AC",
"C 	c #52616A",
"D 	c #627583",
"E 	c #CDDEDE",
"F 	c #738194",
"G 	c #BDCACD",
"H 	c #A4BABD",
"I 	c #9CAEB4",
"J 	c #94A1B4",
"K 	c #8B9DAC",
"L 	c #526173",
"M 	c #6A7D8B",
"N 	c #CDD2DE",
"O 	c #D5D6E6",
"P 	c #7B859C",
"Q 	c #BDC2D5",
"R 	c #ACB6BD",
"S 	c #CDCEDE",
"T 	c #8B99A4",
"U 	c #8B95A4",
"V 	c #8395A4",
"W 	c #525D73",
"X 	c #8B99AC",
"Y 	c #B4C2C5",
"Z 	c #CDD2D5",
"` 	c #83959C",
" .	c #83899C",
"..	c #5A697B",
"+.	c #83919C",
"@.	c #CDD6D5",
"#.	c #CDCED5",
"$.	c #CDCAD5",
"%.	c #8391A4",
"&.	c #52596A",
"*.	c #8B91A4",
"=.	c #ACBABD",
"-.	c #C5D2DE",
";.	c #4A5962",
">.	c #7B919C",
",.	c #737D94",
"'.	c #525D7B",
").	c #738994",
"!.	c #525D62",
"~.	c #627983",
"{.	c #4A556A",
"].	c #9CAABD",
"^.	c #62758B",
"/.	c #394C5A",
"(.	c #B4B6C5",
"_.	c #5A6D83",
":.	c #52657B",
"<.	c #414C5A",
"[.	c #8B95AC",
"}.	c #73798B",
"|.	c #627183",
"1.	c #626D83",
"2.	c #4A5D6A",
"3.	c #414C62",
"4.	c #62717B",
"5.	c #6A818B",
"6.	c #6A798B",
"7.	c #5A7183",
"8.	c #5A6D7B",
"9.	c #5A657B",
"0.	c #8BA1AC",
"a.	c #9499AC",
"b.	c #526573",
"c.	c #39444A",
"d.	c #4A5562",
"e.	c #5A6983",
"f.	c #394452",
"g.	c #737994",
"h.	c #5A6173",
"i.	c #52617B",
"j.	c #9CA1B4",
"k.	c #5A7583",
"l.	c #6A7994",
"m.	c #4A6573",
"n.	c #4A6173",
"o.	c #4A5D73",
"p.	c #414052",
"q.	c #52697B",
"r.	c #394052",
"s.	c #A4B2C5",
". + @ + @ . @ . # . # + $ % & * = . . @ # @ + . . # @ # . ",
"@ - @ - + . - + @ ; > , ' ) ! ~ ~ { ] ^ / @ . @ + @ + - + ",
"@ - - ( - @ ( _ : { < [ } | : 1 2 3 4 5 6 7 / - ( @ - @ ( ",
"+ ( @ + @ / 8 ' 5 | 9 0 ; _ a b c d e , 4 f g & + - @ - - ",
"( ( ( ( h i [ ' 9 & j ; k l m c n o p q i [ r s d ( ( ( ( ",
"t / / u i v ] w x w _ y m ^ d n o > z A i B 2 C D w t / / ",
"/ E h > F 1 = G _ k a b c H n > p I i B J : K { L M N h E ",
"/ O l P ' j w _ Q 9 b c R m S & n A B 1 1 T U V D W X / u ",
"u u ] 5 b ; _ Y 9 b d H 9 Z * & G i 1 ] T U ` ,  .L .._ O ",
"$ Q P +.; l l 9 d n o d S @.#.$.x : ] U V %.+.2 ' 3 &.*.$ ",
"N I 5 o l 9 m =.n o n -.@.Z * G I X U U ` , g P { F ;.f $ ",
"$ U 5 l 9 b d 7 > n * N Z S G i X T U >., ' 2 6 F ,.C '.d ",
"S ' ).9 d n o > o & #.* * G i U V ` } g 2 P F F ,.M r !.: ",
"l M , d H > p q ; & & $.& w G _ a m d H > B F ,.~.D ..{.T ",
"9 s g 7 > p I > x G x G w G y a m d n > p ].{ < ^.3 ../.X ",
"b v 2 > p A i i _ y _ y _ a Y m c (.o p ].B ,.D D _.:.<.[.",
"Q F }.I A i B 1 A a Y Y m n T *.` , 2 ).6 s D |.1...2.3.] ",
"& 6 4.i i : K 1 | i c m c d i 6 5.,.6.3 D D 1.7.8...3.<.p ",
"x X 9.T 0.a.T T *.+.] =.n o o i ,.M ~.D |.1.8...:.b.c.d.0 ",
"j e f }.] X T U +., 2 : p q p ].0.6.3 1.f e...b.b.{.f.g.j ",
"_ Q 5.h.V U %.g  .2 ).F ] ].A i : 6.f 7...b.:.i.L c.3.I ; ",
"; _ J 1.4.} g 2 ).6 F ~ s V j.1 g 1.8.9.b.:.W 2.<.f.|.; _ ",
"_ _ k { h.k.2 6 F ,.M l.6.D M 6.f ....9.m.n.2.d.f.{.e _ ; ",
"k Q y b 3 !.4 6 F M 6.6.D |.1.f 9.b.b.n.o.o.;.p.3.X k Q k ",
"Q k y k o |.!.r M 6.3 D |.7...q.:.i.L 2.W <.f./.X k y k y ",
"l a l a l o }.L d.:.f _._.8.:.:.b.n.o.d.f.r.d.U l l a l l ",
"9 Y 9 Y 9 Y ^ >.L ;.<.{.!.W o.;.d.3.c.p.<.1.> Y 9 Y Y 9 l ",
"9 9 m 9 m 9 b 9 >  .4.2.d.<.3.<.3.<.o.}.: b 9 m 9 9 9 m 9 ",
"b b m b 9 b m ^ ^ b m s.: g g  .T J ^ b b ^ b 9 b b b ^ b "};
