/* XPM */
static char * MOZILLA_BUTTON_ACT_xpm[] = {
"29 29 170 2",
"  	c None",
". 	c #DEE2E6",
"+ 	c #D5E2E6",
"@ 	c #DEE2EE",
"# 	c #DEE6E6",
"$ 	c #CDD6DE",
"% 	c #C5CEDE",
"& 	c #BDCED5",
"* 	c #C5CED5",
"= 	c #DEDEEE",
"- 	c #DEDEE6",
"; 	c #D5E6E6",
"> 	c #BDC6D5",
", 	c #9CB2BD",
"' 	c #7B859C",
") 	c #6A7983",
"! 	c #5A6973",
"~ 	c #626973",
"{ 	c #626D7B",
"] 	c #6A7D83",
"^ 	c #8B9DA4",
"/ 	c #B4BAC5",
"( 	c #D5DAE6",
"_ 	c #D5DEE6",
": 	c #C5C6D5",
"< 	c #949DAC",
"[ 	c #414C52",
"} 	c #5A6173",
"| 	c #6A7D8B",
"1 	c #738594",
"2 	c #737D94",
"3 	c #5A6573",
"4 	c #394452",
"5 	c #525D62",
"6 	c #A4B2C5",
"7 	c #D5DEDE",
"8 	c #A4AEBD",
"9 	c #627583",
"0 	c #62757B",
"a 	c #ACAEBD",
"b 	c #C5CAD5",
"c 	c #BDCACD",
"d 	c #BDC2D5",
"e 	c #B4C2C5",
"f 	c #B4BECD",
"g 	c #ACBABD",
"h 	c #9CAAB4",
"i 	c #4A5562",
"j 	c #738994",
"k 	c #CDDADE",
"l 	c #D5D6E6",
"m 	c #9CA5B4",
"n 	c #4A5D62",
"o 	c #52596A",
"p 	c #ACAEB4",
"q 	c #BDC6CD",
"r 	c #B4C2CD",
"s 	c #ACBEC5",
"t 	c #ACB6C5",
"u 	c #ACB2C5",
"v 	c #A4B2BD",
"w 	c #9CAEB4",
"x 	c #94A5AC",
"y 	c #62717B",
"z 	c #BDCAD5",
"A 	c #B4C6CD",
"B 	c #B4BEC5",
"C 	c #B4BACD",
"D 	c #ACBAC5",
"E 	c #ACB6BD",
"F 	c #9CB2B4",
"G 	c #9CAEBD",
"H 	c #6A7583",
"I 	c #313C41",
"J 	c #5A6D83",
"K 	c #CDD2DE",
"L 	c #BDC2CD",
"M 	c #A4BABD",
"N 	c #A4B6BD",
"O 	c #94A5B4",
"P 	c #94A1AC",
"Q 	c #6A758B",
"R 	c #C5D2D5",
"S 	c #9CAABD",
"T 	c #919BA9",
"U 	c #8B9DAC",
"V 	c #8B99A4",
"W 	c #8B91A4",
"X 	c #39444A",
"Y 	c #8B95A4",
"Z 	c #9499AC",
"` 	c #8399A4",
" .	c #8391A4",
"..	c #80939C",
"+.	c #7B899C",
"@.	c #31384A",
"#.	c #526173",
"$.	c #627173",
"%.	c #5A616A",
"&.	c #9CAABA",
"*.	c #9CA6B5",
"=.	c #8B95AC",
"-.	c #83919C",
";.	c #838DA4",
">.	c #838D9C",
",.	c #7B8994",
"'.	c #7B8D9C",
").	c #4A4C5A",
"!.	c #96A5B4",
"~.	c #8395A4",
"{.	c #83959C",
"].	c #7B819C",
"^.	c #5A657B",
"/.	c #7B919C",
"(.	c #414052",
"_.	c #738194",
":.	c #394C5A",
"<.	c #96A2AE",
"[.	c #7B8594",
"}.	c #6A7994",
"|.	c #4A5962",
"1.	c #ACB7C5",
"2.	c #94A1B4",
"3.	c #939CAB",
"4.	c #52617B",
"5.	c #9AA1B4",
"6.	c #627183",
"7.	c #9CA1B4",
"8.	c #6A798B",
"9.	c #5A717B",
"0.	c #A4AABD",
"a.	c #6A818B",
"b.	c #627983",
"c.	c #626D83",
"d.	c #5A697B",
"e.	c #5A7183",
"f.	c #5A6D7B",
"g.	c #D5DADE",
"h.	c #394052",
"i.	c #6D778E",
"j.	c #617482",
"k.	c #52697B",
"l.	c #52657B",
"m.	c #526573",
"n.	c #202831",
"o.	c #414C62",
"p.	c #798594",
"q.	c #708191",
"r.	c #6D7E8E",
"s.	c #414C5A",
"t.	c #C5D2DE",
"u.	c #C5CADE",
"v.	c #838DA1",
"w.	c #4A6173",
"x.	c #292831",
"y.	c #5F7180",
"z.	c #525D73",
"A.	c #525D7B",
"B.	c #4A5D73",
"C.	c #5A7583",
"D.	c #677988",
"E.	c #4A5D6A",
"F.	c #9CA5BD",
"G.	c #737D8B",
"H.	c #BDBECD",
"I.	c #313841",
"J.	c #414452",
"K.	c #39384A",
"L.	c #737983",
"M.	c #A4BAC5",
". + . @ . + @ . @ . @ # $ % % & * @ @ + = + = + = . - . - ",
"= . . @ + @ . ; # > , ' ) ! ~ ! { ] ^ / ( _ _ - _ - _ = + ",
"+ + = + . . @ : < { [ [ } | 1 2 3 [ 4 5 | 6 $ _ ( 7 _ _ _ ",
"= - . @ . = 8 9 [ 0 a b c d e f / g h { 4 i j b k l ( ( 7 ",
"- + + @ _ m n o p b : q d r s / t u v w m o 4 ) u $ $ k k ",
"+ = . _ x i y > z c > A B C D E v F G h m x H I J e K K K ",
"- + @ v o y * & > L r f / M u N 8 w m O P < ^ H I Q z R * ",
"+ . c H n q : q d e B D g t v v S P m P T U V W 5 X Y z & ",
"= . < [ G > q r e / t g v F F G h P < Z ` W  ...+.@.#.t > ",
"+ b $.%.q r f f D t N v 8 w &.*.O T U =.Y -.;.>.,.! I '.f ",
"- G ).P L f M D M v 8 G S G S !.P ` W ~.{.>.'.+.].| @.^.s ",
"= /.(.r B s D v 6 8 w m x m x P T Y -.;.>.+.+.1 _.| 4 :.O ",
"( | 5 f D t u , S S h m <.P < Z ` {.>.'.,.[.1 2 | }.|.(. .",
"b ~ $.1.M v 8 G S O 2.< Z 3.U Y ~.>.>.+.+._.2 | | 9 4.I +.",
"* 3 H N 6 8 w m x 5.P < ` V Y -.>.'.,.[.1 | | Q Q 6.5 @.,.",
"b 3 y v 8 S h m <.7.P Y ~. .'.+.j +.]._.2 8.8.9 6.9.o @.1 ",
"K ) 5 0.h O 2.< Z < U Y ;.'.+.[._.a._.a.b.Q 9 c.c.d.).I ' ",
"( | 4 h m 7.P U ` V Y -.>.+.1 _.| 8.| 8.9 6.c.e.f.^.I 4 Y ",
"g.< h.{.P < U Y ~. .'.+.,.1 _.2 8.i.8.Q j.J f.k.l.m.n.o.h ",
"$ M 5 o < V Y -.;.'.+.j p.q.r.| 8.| b.6.9.d.k.^.4.s.n.9 S ",
"t.u.| I '.W -.v.'.+.[._.a.2 8.Q 9 6.j.J d.k.^.#.w.x.4 -.S ",
"* & m o s./.>.,.' 1 _.| 8.| b.9 c.y.d.k.l.m.w.z.4 n.f.m h ",
"b b z j h.o ,.' 1 _.2 8.Q 9 6.c.9.d.k.m.#.A.B.s.n.o.Y w 0.",
"q c > f C.I i _.2 2 | b.9 6.J d.f.^.#.#.w.B.s.x.4 ' h h w ",
"q d A A u d.I ).b.D.Q 6.c.9.f.^.l.#.w.E.z.X n.X +.w S F.G.",
"r r r H.r v 8.:.I.i f.J 9.d.k.l.m.A.E.o.n.n.o.j S h h ) X ",
"e H.r f e f D >.o I x.I o.:.i s.4 I n.n.h.d.^ S h 0. .J./ ",
"B f B f f s C D v +.f.o.4 K.@.I K.4 |.Q {.h S 0., v ! L.r ",
"B s C s s C s s C D M.S V [.1 [.'.Y 0.h G 0.w v 8 N 3 L.t "};
