/* XPM */
static char * mozilla_marr_xpm[] = {
"10 7 2 1",
" 	c None",
".	c #000000",
".         ",
"..        ",
"...       ",
"....      ",
"...       ",
"..        ",
".         "};
