/* XPM */
static char * MOZILLA_CLO_INC_xpm[] = {
"29 29 148 2",
"  	c None",
". 	c #DEDEEE",
"+ 	c #D5E2E6",
"@ 	c #DEE2E6",
"# 	c #DEE2EE",
"$ 	c #CDD6DE",
"% 	c #C5CED5",
"& 	c #C5CADE",
"* 	c #DEDEE6",
"= 	c #BDC6D5",
"- 	c #9CB2BD",
"; 	c #838DA4",
"> 	c #7B899C",
", 	c #7B8194",
"' 	c #73818B",
") 	c #738194",
"! 	c #738994",
"~ 	c #949DAC",
"{ 	c #ACBEC5",
"] 	c #D5DADE",
"^ 	c #D5DEE6",
"/ 	c #BDC6CD",
"( 	c #94A1B4",
"_ 	c #7B8594",
": 	c #6A7583",
"< 	c #737D83",
"[ 	c #838D9C",
"} 	c #8B99A4",
"| 	c #9CA1B4",
"1 	c #8B9DA4",
"2 	c #6A7983",
"3 	c #6A6D7B",
"4 	c #A4B6BD",
"5 	c #D5DAE6",
"6 	c #9CAEB4",
"7 	c #B4BEC5",
"8 	c #C5CAD5",
"9 	c #BDCACD",
"0 	c #BDC2CD",
"a 	c #B4C2CD",
"b 	c #B4BECD",
"c 	c #B4BAC5",
"d 	c #ACBAC5",
"e 	c #A4B2BD",
"f 	c #7B8D9C",
"g 	c #62717B",
"h 	c #626D83",
"i 	c #BDCED5",
"j 	c #94A5B4",
"k 	c #A4BABD",
"l 	c #ACB2C5",
"m 	c #A4AEBD",
"n 	c #9CA5B4",
"o 	c #5A6573",
"p 	c #737D94",
"q 	c #CDDADE",
"r 	c #6A7D83",
"s 	c #8B9DAC",
"t 	c #BDCAD5",
"u 	c #BDC2D5",
"v 	c #ACB6C5",
"w 	c #7B8994",
"x 	c #5A616A",
"y 	c #627583",
"z 	c #C5C6D5",
"A 	c #D5DEDE",
"B 	c #CDDEDE",
"C 	c #B4C6CD",
"D 	c #B4C2C5",
"E 	c #94A5AC",
"F 	c #94A1AC",
"G 	c #9499AC",
"H 	c #525D73",
"I 	c #6A7D8B",
"J 	c #D5D6E6",
"K 	c #CDD2DE",
"L 	c #C5CEDE",
"M 	c #9CAAB4",
"N 	c #9CAEBD",
"O 	c #8B91A4",
"P 	c #525D7B",
"Q 	c #62757B",
"R 	c #D5D6DE",
"S 	c #C5D2D5",
"T 	c #ACBABD",
"U 	c #7B919C",
"V 	c #526173",
"W 	c #5A697B",
"X 	c #9CB2B4",
"Y 	c #6A758B",
"Z 	c #525D62",
"` 	c #8B95A4",
" .	c #BDBECD",
"..	c #CDD6D5",
"+.	c #8BA1AC",
"@.	c #4A556A",
"#.	c #5A717B",
"$.	c #83919C",
"%.	c #CDD2D5",
"&.	c #CDCEDE",
"*.	c #7B819C",
"=.	c #CDCED5",
"-.	c #738594",
";.	c #6A798B",
">.	c #52596A",
",.	c #ACB6BD",
"'.	c #ACB2BD",
").	c #737D8B",
"!.	c #62798B",
"~.	c #5A6D7B",
"{.	c #4A5562",
"].	c #A4B2C5",
"^.	c #A4AABD",
"/.	c #5A657B",
"(.	c #414C5A",
"_.	c #8B99AC",
":.	c #62758B",
"<.	c #627183",
"[.	c #526573",
"}.	c #414C62",
"|.	c #394C5A",
"1.	c #627173",
"2.	c #8399A4",
"3.	c #627983",
"4.	c #52697B",
"5.	c #B4BACD",
"6.	c #8B95AC",
"7.	c #5A6D83",
"8.	c #394052",
"9.	c #83959C",
"0.	c #39444A",
"a.	c #8395A4",
"b.	c #4A6173",
"c.	c #8391A4",
"d.	c #394452",
"e.	c #7B859C",
"f.	c #5A7183",
"g.	c #5A6983",
"h.	c #4A5D6A",
"i.	c #626D7B",
"j.	c #52657B",
"k.	c #52617B",
"l.	c #4A5D73",
"m.	c #5A7583",
"n.	c #6A7994",
"o.	c #4A5962",
"p.	c #414052",
"q.	c #83899C",
". + @ . # + . + . @ @ @ $ % % % & @ @ . . + + # @ + . @ @ ",
"* @ . @ + . @ * + = - ; > , ' ) ' ! ~ { ] * . @ + * + * + ",
"+ * + * * ^ * / ( _ : < [ } | 1 > 2 3 : ) 4 5 * ^ * + * * ",
". ^ * ^ + 5 6 > 2 } 7 8 9 0 a b c d e f g h f i * ^ . ^ + ",
"^ ^ ^ ^ 5 j < > 7 8 9 = 0 a b d k l e m n < o p d ^ ^ ^ ^ ",
"5 5 5 q n r s 9 t t u a b { d v e e m 6 n ( w x y z ^ 5 A ",
"B 5 A m ' ~ & t = C D b { v l 4 m 6 n E | F G w H I $ 5 A ",
"5 J a > w t t i K L 7 c k l e m M M n N d m } O y P } 5 q ",
"q q G Q 7 = 9 R $ R S v e e m M n F m 7 c T n U > V W / J ",
"$ 0 w ; 9 0 0 $ $ $ $ z m 6 n j ( X 0 7 d v ~ f > Y Z ` $ ",
"K 6 : e a b {  ...R $ $ / n F +.m 0 D c d ( f > ! ) @.#.K ",
"K $.: a b { d 4 v K %.K &.7 m m 9 0 7 7 M > ! *.) I x V c ",
"% w _ { d v 4 e m 4 &.S =.% 9 z / D 7 M > _ -.) I ;.o >.F ",
" .I [ v ,.e - 6 M n '.% % z 9 0 0 7 n > -.) p ).;.!.~.{.} ",
"b p [ 4 ].X ^.n E ( 1 v 9 z / 0 7 m w -.p ).I I y Y /.(._.",
"7 ;.w e m M n F +.~ } v 0 /  .7 7 ^.> p I ;.!.:.<.#.[.}.} ",
"u ) < ^.M n E F G _.n a 0 7 c 7 v 6 M ).I ;.y <.#.W H |.~ ",
"% ) 1.M n F ~ G 2.n 7 b 7 c k '.4 m X ~ 3.Y #.W W 4.(.}.e ",
"i _./._.~ 1 } ` F 5.d d d } > > 6 m M E 6.7.W W [.[.8.{.8 ",
"t e #.< ~ } ` E k v T v 9.) I I ) E ( ~ 1 ! /.[.V @.0.I 9 ",
"= C p x a.O $.e m e m a.) p I Y Y ;.s 1 ` $.Y V b.0.}.^.= ",
"9 = E h 1.$.[ } 6 N U p I I ;.y <.#.Y c.c.f 7.b.}.d.<.9 / ",
"u / / e.x <.w _ [ f p I ;.y Y #.f.g.4.7.3.g.h.{.0.{.e C u ",
"C u C { Y Z i.) ) I I Y y <.#.W W j.[.k.b.l.{.d.(._./ u C ",
"a 0 C 0 4 m.>.o I n.;.y <.f.W 4.[.k.V l.h.}.0.(._.C C 0 u ",
"a a  .a  .e I V {.j.#.7.~.W [.j.k.b.h.{.d.d.{._.a a  .a D ",
"b D D b D b { ; V o.}.{.>.l.H o.{.}.p.0.}.h 4 b a D b b a ",
"{ b b b { { b { l f h h.{.|.}.(.}.(.l.;.E { b { b b { { b ",
"5.{ { { 7 5.7 { b { b ].~ q.> q.} E b b 5.7 { 5.{ { 7 5.{ "};
