/* XPM */
static char * mozilla_sticky_xpm[] = {
"22 20 204 2",
"  	c None",
". 	c #C8D1DB",
"+ 	c #ACB6C0",
"@ 	c #98A3AF",
"# 	c #94A1AB",
"$ 	c #A4AFB8",
"% 	c #C0CAD2",
"& 	c #CBD0DC",
"* 	c #8E97A3",
"= 	c #6D7983",
"- 	c #78818B",
"; 	c #84929F",
"> 	c #8590A0",
", 	c #707B84",
"' 	c #636E78",
") 	c #748190",
"! 	c #B4BFC9",
"~ 	c #C0C8D2",
"{ 	c #74818C",
"] 	c #89919C",
"^ 	c #B6BDC8",
"/ 	c #BCC5CF",
"( 	c #B4C0CC",
"_ 	c #B0BAC5",
": 	c #A9B4C0",
"< 	c #98A7B1",
"[ 	c #788290",
"} 	c #5C6975",
"| 	c #9CA7B4",
"1 	c #C9D1DA",
"2 	c #74808C",
"3 	c #96A1AB",
"4 	c #BDC8D4",
"5 	c #B9C4CD",
"6 	c #B3BEC9",
"7 	c #ACB8C3",
"8 	c #A7B4BF",
"9 	c #9EAEB7",
"0 	c #99A7B5",
"a 	c #95A1AD",
"b 	c #788590",
"c 	c #54616C",
"d 	c #A6B1BD",
"e 	c #8E98A1",
"f 	c #83919C",
"g 	c #BEC5D0",
"h 	c #B7C2CC",
"i 	c #B1BBC5",
"j 	c #AAB8BF",
"k 	c #A3B3BB",
"l 	c #9FAFBB",
"m 	c #97A4B1",
"n 	c #959EAE",
"o 	c #8A98A7",
"p 	c #8694A3",
"q 	c #66727F",
"r 	c #5E6A79",
"s 	c #C7D0D9",
"t 	c #6B747D",
"u 	c #ACB5BF",
"v 	c #AFBDC8",
"w 	c #ABBBC4",
"x 	c #A6B3BF",
"y 	c #A0AFBD",
"z 	c #9DADBA",
"A 	c #99A6B6",
"B 	c #8E9DAA",
"C 	c #8996A8",
"D 	c #85939F",
"E 	c #808D9E",
"F 	c #778394",
"G 	c #485460",
"H 	c #919FAE",
"I 	c #AEB8C5",
"J 	c #717A87",
"K 	c #B0BDC7",
"L 	c #AAB8C4",
"M 	c #A1B1C0",
"N 	c #9FADB9",
"O 	c #ACB7C0",
"P 	c #D0D6DB",
"Q 	c #CFD4DA",
"R 	c #9FAAB4",
"S 	c #828E9F",
"T 	c #7E8A99",
"U 	c #778698",
"V 	c #707F91",
"W 	c #4E5C6B",
"X 	c #6B7989",
"Y 	c #9AA2AD",
"Z 	c #7B8890",
"` 	c #A7B6C1",
" .	c #A3AFBC",
"..	c #9BAAB9",
"+.	c #96A4B4",
"@.	c #CFD3DA",
"#.	c #EAECEF",
"$.	c #E9ECEE",
"%.	c #C8CED4",
"&.	c #7E8A9A",
"*.	c #768596",
"=.	c #6F7E90",
"-.	c #697A8A",
";.	c #546373",
">.	c #5C6775",
",.	c #97A0AB",
"'.	c #A2AEBD",
").	c #9BA9B6",
"!.	c #98A2B0",
"~.	c #96A0AF",
"{.	c #CCD1D7",
"].	c #E8EBEE",
"^.	c #E8EAED",
"/.	c #C4CBD2",
"(.	c #778395",
"_.	c #6E7D8F",
":.	c #677888",
"<.	c #637284",
"[.	c #515D6A",
"}.	c #576373",
"|.	c #A5AFBB",
"1.	c #66727E",
"2.	c #9BA6B4",
"3.	c #94A1B0",
"4.	c #8C9AA9",
"5.	c #8C99A7",
"6.	c #9CA5B1",
"7.	c #C6CCD4",
"8.	c #C3C9D0",
"9.	c #8896A3",
"0.	c #6C7D8D",
"a.	c #637584",
"b.	c #607083",
"c.	c #5C6C7E",
"d.	c #444E5B",
"e.	c #626D7C",
"f.	c #B9C4CC",
"g.	c #5B6671",
"h.	c #8A95A2",
"i.	c #8492A2",
"j.	c #7D8D9E",
"k.	c #788897",
"l.	c #728392",
"m.	c #6B7A8C",
"n.	c #667687",
"o.	c #5C6F7F",
"p.	c #576A7C",
"q.	c #516277",
"r.	c #333E4A",
"s.	c #7B8999",
"t.	c #6F7C88",
"u.	c #64717F",
"v.	c #838F9E",
"w.	c #7D8A9C",
"x.	c #788697",
"y.	c #6E7F8F",
"z.	c #6C7C8D",
"A.	c #617182",
"B.	c #5A6D7F",
"C.	c #55687A",
"D.	c #536376",
"E.	c #414E5E",
"F.	c #424C58",
"G.	c #A7B4C0",
"H.	c #536170",
"I.	c #65707E",
"J.	c #768396",
"K.	c #727F93",
"L.	c #687889",
"M.	c #637485",
"N.	c #5F6E80",
"O.	c #5A6B7C",
"P.	c #536576",
"Q.	c #506075",
"R.	c #455365",
"S.	c #37404D",
"T.	c #778392",
"U.	c #929FAD",
"V.	c #4E5A65",
"W.	c #576573",
"X.	c #657485",
"Y.	c #617183",
"Z.	c #5C6F7E",
"`.	c #58687B",
" +	c #536377",
".+	c #4B5D6E",
"++	c #404D5C",
"@+	c #36404B",
"#+	c #6D7A88",
"$+	c #98A5B3",
"%+	c #5B6673",
"&+	c #404A54",
"*+	c #445260",
"=+	c #475666",
"-+	c #465463",
";+	c #3E4A58",
">+	c #404B59",
",+	c #768594",
"'+	c #8D9EAB",
")+	c #6F7D8D",
"!+	c #5D6575",
"~+	c #596471",
"{+	c #646E7E",
"]+	c #818C9B",
"                                            ",
"                                            ",
"                . + @ # $ %                 ",
"            & * = - ; > , ' ) !             ",
"          ~ { ] ^ / ( _ : < [ } |           ",
"        1 2 3 4 5 6 7 8 9 0 a b c d         ",
"        e f g h i j k l m n o p q r         ",
"      s t u v w x y z A B C D E F G H       ",
"      I J K L M N O P Q R S T U V W X       ",
"      Y Z `  ...+.@.#.$.%.&.*.=.-.;.>.      ",
"      ,.b '.).!.~.{.].^./.(._.:.<.[.}.      ",
"      |.1.2.3.4.5.6.7.8.9.0.a.b.c.d.e.      ",
"      f.g.h.5.i.j.k.l._.m.n.o.p.q.r.s.      ",
"        t.u.v.w.x.y.z.n.A.B.C.D.E.F.        ",
"        G.H.I.J.K.L.M.N.O.P.Q.R.S.T.        ",
"          U.V.W.X.Y.Z.`. +.+++@+#+          ",
"            $+%+&+*+=+-+;+r.>+,+            ",
"                '+)+!+~+{+]+                ",
"                                            ",
"                                            "};
