/* XPM */
static char * MOZILLA_CLO_ACT_xpm[] = {
"29 29 179 2",
"  	c None",
". 	c #DEE2E6",
"+ 	c #DEDEEE",
"@ 	c #DEE2EE",
"# 	c #D5E2E6",
"$ 	c #D5E6E6",
"% 	c #CDD6DE",
"& 	c #C5D2D5",
"* 	c #CDCEDE",
"= 	c #C5CED5",
"- 	c #DEDEE6",
"; 	c #BDC6D5",
"> 	c #A4B2BD",
", 	c #7B859C",
"' 	c #6A7983",
") 	c #626973",
"! 	c #5A6973",
"~ 	c #626D7B",
"{ 	c #6A7D83",
"] 	c #8B9DA4",
"^ 	c #B4BAC5",
"/ 	c #D5D6E6",
"( 	c #D5DEE6",
"_ 	c #BDCAD5",
": 	c #949DAC",
"< 	c #62717B",
"[ 	c #414C5A",
"} 	c #414C52",
"| 	c #5A6173",
"1 	c #737D83",
"2 	c #83858B",
"3 	c #5A6573",
"4 	c #394052",
"5 	c #525D62",
"6 	c #737D8B",
"7 	c #A4B2C5",
"8 	c #D5DAE6",
"9 	c #D5DEDE",
"0 	c #9CAEB4",
"a 	c #6A7583",
"b 	c #A4B2B4",
"c 	c #C5CAD5",
"d 	c #BDCACD",
"e 	c #BDC2CD",
"f 	c #B4C2CD",
"g 	c #B4BEC5",
"h 	c #ACBABD",
"i 	c #9CAAB4",
"j 	c #6A6D7B",
"k 	c #394452",
"l 	c #4A5962",
"m 	c #7B899C",
"n 	c #CDDADE",
"o 	c #CDDEDE",
"p 	c #9CA5B4",
"q 	c #52596A",
"r 	c #9CB2B4",
"s 	c #C5C6D5",
"t 	c #BDC6CD",
"u 	c #BDC2D5",
"v 	c #ACBEC5",
"w 	c #ACB6C5",
"x 	c #ACB2C5",
"y 	c #A4B6BD",
"z 	c #D5D6DE",
"A 	c #B4C6CD",
"B 	c #B4BACD",
"C 	c #ACBAC5",
"D 	c #ACB6BD",
"E 	c #9CAEBD",
"F 	c #9CAABD",
"G 	c #94A5AC",
"H 	c #62757B",
"I 	c #31384A",
"J 	c #5A7183",
"K 	c #BDBECD",
"L 	c #C5D6DE",
"M 	c #C5D2DE",
"N 	c #C5D6D5",
"O 	c #C5CADE",
"P 	c #B4BECD",
"Q 	c #A4BABD",
"R 	c #A4AEBD",
"S 	c #8395A4",
"T 	c #8B99AC",
"U 	c #8B9DAC",
"V 	c #627583",
"W 	c #313C41",
"X 	c #6A758B",
"Y 	c #C5CEDE",
"Z 	c #DEE6EE",
"` 	c #E6E6EE",
" .	c #83959C",
"..	c #8B91A4",
"+.	c #4A4C5A",
"@.	c #EEEAEE",
"#.	c #E6F2EE",
"$.	c #EEF2F6",
"%.	c #A4AABD",
"&.	c #52617B",
"*.	c #627173",
"=.	c #5A616A",
"-.	c #EEF2EE",
";.	c #F6F6F6",
">.	c #FFFAFF",
",.	c #9499AC",
"'.	c #DEE6E6",
").	c #838D9C",
"!.	c #7B8994",
"~.	c #313841",
"{.	c #7B8D9C",
"].	c #E6EEEE",
"^.	c #F7FBF7",
"/.	c #F6FAFF",
"(.	c #8B99A4",
"_.	c #EEEEF6",
":.	c #7B819C",
"<.	c #6A7D8B",
"[.	c #CDCED5",
"}.	c #738594",
"|.	c #738194",
"1.	c #9CB2BD",
"2.	c #94A1AC",
"3.	c #EEF6F6",
"4.	c #EEEAF6",
"5.	c #ACB2BD",
"6.	c #7B8594",
"7.	c #737D94",
"8.	c #6A7994",
"9.	c #4A5562",
"0.	c #94A5B4",
"a.	c #F6F2F6",
"b.	c #E6EAEE",
"c.	c #4A6573",
"d.	c #94A1B4",
"e.	c #8BA1AC",
"f.	c #6A818B",
"g.	c #6A798B",
"h.	c #627183",
"i.	c #5A6D83",
"j.	c #CDD2DE",
"k.	c #4A5D62",
"l.	c #8399A4",
"m.	c #627983",
"n.	c #626D83",
"o.	c #5A6D7B",
"p.	c #39384A",
"q.	c #9CA1B4",
"r.	c #DEEAE6",
"s.	c #5A657B",
"t.	c #39444A",
"u.	c #52697B",
"v.	c #52657B",
"w.	c #526173",
"x.	c #202831",
"y.	c #8B95A4",
"z.	c #5A697B",
"A.	c #526573",
"B.	c #202829",
"C.	c #838DA4",
"D.	c #D5DADE",
"E.	c #7B919C",
"F.	c #A4B6C5",
"G.	c #8391A4",
"H.	c #4A6173",
"I.	c #292831",
"J.	c #83919C",
"K.	c #4A5D73",
"L.	c #5A717B",
"M.	c #394C5A",
"N.	c #8B95AC",
"O.	c #73818B",
"P.	c #5A6983",
"Q.	c #4A5D6A",
"R.	c #738994",
"S.	c #525D73",
"T.	c #B4C2C5",
"U.	c #414C62",
"V.	c #414052",
". + @ # @ # @ . . @ $ . % & * = = @ + # # - - # + - . + # ",
"+ . # + . @ . @ $ ; > , ' ) ! ! ~ { ] ^ / ( ( ( ( ( ( # - ",
"# - + . . . @ _ : < [ } | 1 2 1 3 } 4 5 6 7 % 8 9 8 ( 8 ( ",
"+ . # @ . + 0 a } a b c d e f g ^ h i j k l m _ / n o 8 9 ",
"# # + . ( p 5 q r c s t u f v ^ w x > 0 p q k ' y % % / z ",
"- . @ ( p l < ; c d ; A g B C D > r E F G p H I J K L M N ",
"# + . > q ~ O A r w f P ^ Q x y R 0 p S T U : V W X d Y Y ",
"( . d a 5 d g : Z `  .C h w > 0 F p S R N P ] ..5 k S _ _ ",
"- # : +.b ; S @.#.$.9 i > r %.i p  .R # 8 L g  .m W &.Q u ",
"# c *.=.; f T ` -.;.>.& ,.i p G ..> '.@ ( % R ).!.) ~.{.f ",
"- E } : f P Q ..].^.^./.= (.: : y _.].` 9 R {.m :.<.I ! v ",
"+ {.4 f P v C > (._.>./.>.[.C ^ $._.].` v m m }.|.<.k [ p ",
"8 <.q P C w x 1.F 2.>.^.^.>.;.3.$.#.4.5.!.6.}.7.<.8.9.4  .",
"c ) < C Q > R E F 0.C >.^./.;.;.a.b.w !.:.|.7.<.<.V c.W m ",
"= 3 a y 7 R 0 p G d.e.= ;.;.-.$.-.].,.}.f.<.<.X X V q I m ",
"d 3 < > R F i p 2.2...= ;.;.$.a.-.`  .7.<.g.g.V h.i.5 W }.",
"j.a k.%.i 0.d.: ,.l.5.$.a.#._.#.].- t 7.m.X V n.n.o.+.p.m ",
"o <.k i p q.2.U l.R ].@.].b.'.` r.@ n P m.h.n.J o.s.W t...",
"/ : 4  .2.: U ..E . ` '.` x ] d.( 9 / Y w i.o.u.v.w.x.[ i ",
"% h q k.: (. .R 9 ( # + i f.|.<.y.j.j.& u r z.s.A.[ B.n.i ",
"j.O <.p.{.y.C.& j.% D.p f.7.8.g.g.E.c _ u F.G.H.H.I.4 G.p ",
"= = G 5 +.J.{.p = * 2.<.g.<.V V n.h.m f P > , K.k x.z.i F ",
"_ s _ m t.q m m ,.(.7.g.X V h.n.L.z.u., ] , c.[ x.M.N.p 0 ",
"t d ; v h.W 9.}.O.7.<.m.V h.i.z.o.s.w.H.K.K.[ I.k , i i R ",
"t ; t A w P.W +.g.m.X h.n.L.o.s.v.w.H.K.Q.t.I.t.R.p F 0 > ",
"K f K f f y g.+.W 9.o.i.L.z.v.A.w.S.Q.[ I.x.[ m p i 0 > w ",
"T.P f P f P C {.q W I.W U.M.9.U.V.W x.I.t.P.2.0 F %.> 7 F.",
"P P v v P v B C > !.z.M.k W I W W k l V y.0 F %.1.1.> y w ",
"v v g B v v ^ v C C w F T , }.}.m y.%.F 0 %.E 1.> 7 y w D "};
