/* XPM */
static char * MOZILLA_RARR_ACT_xpm[] = {
"29 29 178 2",
"  	c None",
". 	c #DEE2E6",
"+ 	c #D5E2E6",
"@ 	c #DEE2EE",
"# 	c #DEE6E6",
"$ 	c #CDD6DE",
"% 	c #C5CEDE",
"& 	c #BDCED5",
"* 	c #C5CED5",
"= 	c #DEDEEE",
"- 	c #DEDEE6",
"; 	c #D5E6E6",
"> 	c #BDC6D5",
", 	c #9CB2BD",
"' 	c #7B859C",
") 	c #6A7983",
"! 	c #5A6973",
"~ 	c #626973",
"{ 	c #626D7B",
"] 	c #6A7D83",
"^ 	c #8B9DA4",
"/ 	c #B4BAC5",
"( 	c #D5DAE6",
"_ 	c #D5DEE6",
": 	c #C5C6D5",
"< 	c #949DAC",
"[ 	c #414C52",
"} 	c #5A6173",
"| 	c #6A7D8B",
"1 	c #738594",
"2 	c #737D94",
"3 	c #5A6573",
"4 	c #394452",
"5 	c #525D62",
"6 	c #A4B2C5",
"7 	c #D5DEDE",
"8 	c #A4AEBD",
"9 	c #627583",
"0 	c #62757B",
"a 	c #ACAEBD",
"b 	c #C5CAD5",
"c 	c #BDCACD",
"d 	c #BDC2D5",
"e 	c #B4C2C5",
"f 	c #B4BECD",
"g 	c #ACBEC5",
"h 	c #B4B6C5",
"i 	c #9CAAB4",
"j 	c #4A5562",
"k 	c #738994",
"l 	c #CDDADE",
"m 	c #D5D6E6",
"n 	c #9CA5B4",
"o 	c #4A5D62",
"p 	c #52596A",
"q 	c #ACAEB4",
"r 	c #BDCAD5",
"s 	c #BDC2CD",
"t 	c #B4C2CD",
"u 	c #ACB6C5",
"v 	c #A4B6BD",
"w 	c #A4B2BD",
"x 	c #9CAEB4",
"y 	c #ACB2C5",
"z 	c #94A5AC",
"A 	c #62717B",
"B 	c #B4BEC5",
"C 	c #ACBAC5",
"D 	c #6A7583",
"E 	c #313C41",
"F 	c #5A6D83",
"G 	c #CDD2DE",
"H 	c #738194",
"I 	c #6A758B",
"J 	c #C5D2D5",
"K 	c #BDC6CD",
"L 	c #94A5B4",
"M 	c #8391A4",
"N 	c #EEF2EE",
"O 	c #7B8594",
"P 	c #94A1AC",
"Q 	c #8BA1AC",
"R 	c #9499AC",
"S 	c #8B9DAC",
"T 	c #8399A4",
"U 	c #8B91A4",
"V 	c #39444A",
"W 	c #8B95A4",
"X 	c #9CAEBD",
"Y 	c #ACBABD",
"Z 	c #E6F2EE",
"` 	c #F6F2F6",
" .	c #F6F6F6",
"..	c #E6EEEE",
"+.	c #83919C",
"@.	c #8B99A4",
"#.	c #838D9C",
"$.	c #7B899C",
"%.	c #31384A",
"&.	c #526173",
"*.	c #627173",
"=.	c #5A616A",
"-.	c #B4C6CD",
";.	c #EEF2F6",
">.	c #EEF6F6",
",.	c #FFFAFF",
"'.	c #7B8D9C",
").	c #8B99AC",
"!.	c #83959C",
"~.	c #838DA4",
"{.	c #4A4C5A",
"].	c #BDBECD",
"^.	c #A4BABD",
"/.	c #A4AABD",
"(.	c #F7FBF7",
"_.	c #DEE6EE",
":.	c #7B8D94",
"<.	c #7B8194",
"[.	c #5A657B",
"}.	c #7B919C",
"|.	c #414052",
"1.	c #F6FAFF",
"2.	c #E6E6EE",
"3.	c #7B8994",
"4.	c #394C5A",
"5.	c #73818B",
"6.	c #A4A5AC",
"7.	c #9CA1B4",
"8.	c #6A7994",
"9.	c #4A5962",
"0.	c #9CB2B4",
"a.	c #DEEAE6",
"b.	c #EEEAF6",
"c.	c #F6F6FF",
"d.	c #737D8B",
"e.	c #52617B",
"f.	c #D5DADE",
"g.	c #EEEEF6",
"h.	c #E6EAEE",
"i.	c #627183",
"j.	c #9CAABD",
"k.	c #5A717B",
"l.	c #94A1B4",
"m.	c #C5CADE",
"n.	c #5A697B",
"o.	c #626D83",
"p.	c #5A6D7B",
"q.	c #394052",
"r.	c #52697B",
"s.	c #52657B",
"t.	c #526573",
"u.	c #202831",
"v.	c #414C62",
"w.	c #C5D6DE",
"x.	c #D5D6DE",
"y.	c #CDDEDE",
"z.	c #414C5A",
"A.	c #C5D2DE",
"B.	c #CDCEDE",
"C.	c #5A6983",
"D.	c #4A6173",
"E.	c #292831",
"F.	c #83899C",
"G.	c #525D73",
"H.	c #6A798B",
"I.	c #4A5D73",
"J.	c #5A7583",
"K.	c #62758B",
"L.	c #627983",
"M.	c #4A5D6A",
"N.	c #9CA5BD",
"O.	c #313841",
"P.	c #525D7B",
"Q.	c #414452",
"R.	c #B4BACD",
"S.	c #39384A",
"T.	c #737983",
"U.	c #A4BAC5",
". + . @ . + @ . @ . @ # $ % % & * @ @ + = + = + = . - . - ",
"= . . @ + @ . ; # > , ' ) ! ~ ! { ] ^ / ( _ _ - _ - _ = + ",
"+ + = + . . @ : < { [ [ } | 1 2 3 [ 4 5 | 6 $ _ ( 7 _ _ _ ",
"= - . @ . = 8 9 [ 0 a b c d e f g h i { 4 j k b l m ( ( 7 ",
"- + + @ _ n o p q b r c s t f g u v w x n p 4 ) y $ $ l l ",
"+ = . _ z j A > r c d s t B C u w 8 x n n z D E F e G G G ",
"- + @ w p A * & > s t g / x H 1 n x i n z < ^ D E I r J * ",
"+ . c D o K : K d e B C L M N _ O P n Q R S T U 5 V W r & ",
"= . < [ X > K t e / u Y M Z `  ...+.P < @.U +.#.$.%.&.u > ",
"+ b *.=.K -.f f C u v w #.;.>. .,.` '.).W !.~.'.$.! E '.f ",
"- X {.P s ].g C ^.w 8 /.@.@. .(.(.,._.T M #.:.$.<.| %.[.g ",
"= }.|.t B g C v 6 8 x i n W P ,.1.(.1.2.^ 3.' 1 H | 4 4.L ",
"( | 5 f C u v 8 1 2 | 2 5.1 | 6.(.,.(.,._.7.1 2 | 8.9.|.M ",
"b ~ *.u Y y 0.| s 7 . a.b.;.c. .,.(.,. .` a.#.d.| 9 e.E $.",
"* 3 D v w 8 x R G f.- 2...g.;.>. .c. .N ;.h.^ I 9 i.5 %.3.",
"b 3 A w x j.n S J $ 7 @ a...g.;.;.N ;.g.b...$.9 i.k.p %.1 ",
"G ) 5 /.n z l.!.M @.R S < Q < q a.b.h...m.$.I i.F n.{.E ' ",
"( | 4 n L l.^ < T W !.~.'.$.^ ( _.2.a.: :.9 k.o.p.[.E 4 W ",
"f.< q.!.< ^ ).@.W M '.'.3.n l + @ . > '.i.o.n.r.s.t.u.v.i ",
"$ ^.5 p < @.W !.#.'.$.' < w.x.( y.t '.i.k.n.r.t.e.z.u.9 j.",
"A.m.| E '.U +.~.'.' O 1 P B.J G B :.i.k.C.r.s.&.D.E.4 +.j.",
"* & n p z.}.#.3.' 1 1 2 :.c b g F.k.n.n.s.e.D.G.4 u.p.n i ",
"b b r k q.p 3.' 1 H 2 | H.O M k i.n.r.t.&.D.I.z.u.v.W x /.",
"K c > f J.E j H 2 | | K.9 i.k.F n.r.[.&.D.I.z.E.4 ' i i x ",
"K d -.-.y n.E {.L.H.I i.i.k.n.r.s.&.D.M.G.V u.V $.x j.N.d.",
"t t t ].t w H.4.O.j p.F k.n.r.s.t.P.M.v.u.u.v.k j.i i ) V ",
"e ].t f e f C #.p E E.E v.4.j z.4 E u.u.q.n.^ j.i /.M Q./ ",
"B f B f f g R.C w $.p.v.4 S.%.E S.4 9.I !.i j./., w ! T.t ",
"B g R.g g R.g g R.C U.j.@.O 1 O '.W /.i X /.x w 8 v 3 T.u "};
