/* XPM */
static char * mozilla_close_xpm[] = {
"22 16 207 2",
"  	c None",
". 	c #C7D2DB",
"+ 	c #ACB5C0",
"@ 	c #9AA4AD",
"# 	c #97A1AB",
"$ 	c #A4AFB8",
"% 	c #C0C9D2",
"& 	c #C9D1DA",
"* 	c #8D98A3",
"= 	c #6E7A85",
"- 	c #78818B",
"; 	c #8A929B",
"> 	c #879099",
", 	c #707B84",
"' 	c #646D78",
") 	c #778290",
"! 	c #B5BFCB",
"~ 	c #C1C8D2",
"{ 	c #76818B",
"] 	c #86929C",
"^ 	c #B6BDC8",
"/ 	c #BCC5CF",
"( 	c #B4C0CC",
"_ 	c #B0BAC4",
": 	c #A9B4C0",
"< 	c #99A7B2",
"[ 	c #5C6976",
"} 	c #9AA8B3",
"| 	c #CAD1D9",
"1 	c #76808D",
"2 	c #939EAB",
"3 	c #B2C1C8",
"4 	c #B5C0CB",
"5 	c #B3BEC9",
"6 	c #ACB8C3",
"7 	c #A6B4BE",
"8 	c #9EAEB7",
"9 	c #94A2B2",
"0 	c #96A4B2",
"a 	c #798693",
"b 	c #54616D",
"c 	c #A5B1BC",
"d 	c #8F98A2",
"e 	c #88939A",
"f 	c #AAB5C0",
"g 	c #D8DFE3",
"h 	c #D1D8DC",
"i 	c #A6B4BD",
"j 	c #A4B2BC",
"k 	c #9EABB7",
"l 	c #94A1AE",
"m 	c #ADBAC5",
"n 	c #C7D3DB",
"o 	c #9EABB4",
"p 	c #66727E",
"q 	c #5C6B7A",
"r 	c #C7D0D9",
"s 	c #68737B",
"t 	c #AAB5C1",
"u 	c #A5B3BF",
"v 	c #D7DBE0",
"w 	c #F9F9F9",
"x 	c #CCD4DB",
"y 	c #99A5B1",
"z 	c #96A1AE",
"A 	c #B7C0CA",
"B 	c #E2E7EC",
"C 	c #CAD3DA",
"D 	c #919DAC",
"E 	c #788394",
"F 	c #495360",
"G 	c #91A1AC",
"H 	c #AEB7C5",
"I 	c #6F7988",
"J 	c #B0BDC9",
"K 	c #AAB7C4",
"L 	c #9DABB8",
"M 	c #E5E5EC",
"N 	c #F8F9FB",
"O 	c #DBDDE2",
"P 	c #CDD4DB",
"Q 	c #EAEFF2",
"R 	c #DCDFE6",
"S 	c #919FAB",
"T 	c #778698",
"U 	c #707F91",
"V 	c #4E5B6B",
"W 	c #6E7A87",
"X 	c #9AA2AD",
"Y 	c #7B8893",
"Z 	c #A7B7C1",
"` 	c #A3AFBC",
" .	c #9BAAB9",
"..	c #A2B0BD",
"+.	c #EDEFF1",
"@.	c #F6F8F9",
"#.	c #F3F4F5",
"$.	c #E7EBED",
"%.	c #98A2B0",
"&.	c #758294",
"*.	c #6F7E90",
"=.	c #697A8A",
"-.	c #526372",
";.	c #5B6776",
">.	c #959FA9",
",.	c #778590",
"'.	c #A2AEBD",
").	c #9BA9B6",
"!.	c #97A2AF",
"~.	c #D8DDE2",
"{.	c #F2F4F5",
"].	c #EFF2F3",
"^.	c #E2E6E8",
"/.	c #828E9E",
"(.	c #6A7C8B",
"_.	c #677888",
":.	c #637184",
"<.	c #515D6A",
"[.	c #586473",
"}.	c #A2AFB9",
"|.	c #65727E",
"1.	c #9BA6B4",
"2.	c #94A1B0",
"3.	c #8D9CAA",
"4.	c #B5BFC8",
"5.	c #EBECEF",
"6.	c #E3E9EB",
"7.	c #E0E6E9",
"8.	c #DDE3E8",
"9.	c #B1BCC8",
"0.	c #687A89",
"a.	c #607083",
"b.	c #5C6C7E",
"c.	c #444E5A",
"d.	c #646C7B",
"e.	c #BBC3CE",
"f.	c #5A6672",
"g.	c #8996A1",
"h.	c #8C9AA7",
"i.	c #ADB8C3",
"j.	c #DBE2E8",
"k.	c #D2D8E0",
"l.	c #909EAB",
"m.	c #8796A4",
"n.	c #C4CCD4",
"o.	c #CBD2DD",
"p.	c #9EABB9",
"q.	c #5E6F80",
"r.	c #516274",
"s.	c #333D47",
"t.	c #7B8895",
"u.	c #6F7B87",
"v.	c #687280",
"w.	c #8996A6",
"x.	c #C1C9D2",
"y.	c #C4CBD4",
"z.	c #82919E",
"A.	c #6C7C8F",
"B.	c #677789",
"C.	c #738292",
"D.	c #B0BCC8",
"E.	c #B0BCCB",
"F.	c #738396",
"G.	c #3F4F5E",
"H.	c #424A59",
"I.	c #A7B3C0",
"J.	c #56616D",
"K.	c #657181",
"L.	c #8893A3",
"M.	c #818D9E",
"N.	c #687989",
"O.	c #637485",
"P.	c #5F6E80",
"Q.	c #5B6B7C",
"R.	c #66778A",
"S.	c #788798",
"T.	c #4D5C6C",
"U.	c #35404C",
"V.	c #768293",
"W.	c #92A0AD",
"X.	c #4E5A66",
"Y.	c #5B6674",
"Z.	c #647484",
"`.	c #617183",
" +	c #5C6E7E",
".+	c #58677A",
"++	c #536376",
"@+	c #4A5D6F",
"#+	c #3F4D5A",
"$+	c #39404A",
"%+	c #6B7985",
"&+	c #98A5B3",
"*+	c #5C6673",
"=+	c #404A54",
"-+	c #43525F",
";+	c #465665",
">+	c #475364",
",+	c #404956",
"'+	c #353E49",
")+	c #434C58",
"!+	c #7A8795",
"~+	c #8F9CAA",
"{+	c #6E7C8D",
"]+	c #5B6676",
"^+	c #566471",
"/+	c #636E7C",
"(+	c #7F8C9C",
"                . + @ # $ %                 ",
"            & * = - ; > , ' ) !             ",
"          ~ { ] ^ / ( _ : < ) [ }           ",
"        | 1 2 3 4 5 6 7 8 9 0 a b c         ",
"        d e f g h i j k l m n o p q         ",
"      r s t u v w x y z A B C D E F G       ",
"      H I J K L M N O P Q R S T U V W       ",
"      X Y Z `  ...+.@.#.$.%.&.*.=.-.;.      ",
"      >.,.'.).!.D ~.{.].^./.(._.:.<.[.      ",
"      }.|.1.2.3.4.5.6.7.8.9.0.a.b.c.d.      ",
"      e.f.g.h.i.j.k.l.m.n.o.p.q.r.s.t.      ",
"        u.v.w.x.y.z.A.B.C.D.E.F.G.H.        ",
"        I.J.K.L.M.N.O.P.Q.R.S.T.U.V.        ",
"          W.X.Y.Z.`. +.+++@+#+$+%+          ",
"            &+*+=+-+;+>+,+'+)+!+            ",
"                ~+{+]+^+/+(+                "};
