/* XPM */
static char * mozilla_updown_xpm[] = {
"22 20 186 2",
"  	c None",
". 	c #C8D1DB",
"+ 	c #ACB6C0",
"@ 	c #98A3AF",
"# 	c #94A1AB",
"$ 	c #A4AFB8",
"% 	c #C0CAD2",
"& 	c #CBD0DC",
"* 	c #8E97A3",
"= 	c #6D7983",
"- 	c #78818B",
"; 	c #84929F",
"> 	c #8590A0",
", 	c #707B84",
"' 	c #636E78",
") 	c #748190",
"! 	c #B4BFC9",
"~ 	c #C0C8D2",
"{ 	c #74818C",
"] 	c #89919C",
"^ 	c #B6BDC8",
"/ 	c #BCC5CF",
"( 	c #B4C0CC",
"_ 	c #B0BAC5",
": 	c #A9B4C0",
"< 	c #98A7B1",
"[ 	c #788290",
"} 	c #5C6975",
"| 	c #9CA7B4",
"1 	c #C9D1DA",
"2 	c #74808C",
"3 	c #96A1AB",
"4 	c #BDC8D4",
"5 	c #B9C4CD",
"6 	c #B3BEC9",
"7 	c #ACB8C3",
"8 	c #A7B4BF",
"9 	c #9EAEB7",
"0 	c #99A7B5",
"a 	c #95A1AD",
"b 	c #788590",
"c 	c #54616C",
"d 	c #A6B1BD",
"e 	c #8E98A1",
"f 	c #83919C",
"g 	c #BEC5D0",
"h 	c #B7C2CC",
"i 	c #B1BBC5",
"j 	c #AAB8BF",
"k 	c #F8F9FA",
"l 	c #EDEFF4",
"m 	c #97A4B1",
"n 	c #959EAE",
"o 	c #8A98A7",
"p 	c #8694A3",
"q 	c #66727F",
"r 	c #5E6A79",
"s 	c #C7D0D9",
"t 	c #6B747D",
"u 	c #ACB5BF",
"v 	c #AFBDC8",
"w 	c #ABBBC4",
"x 	c #A6B3BF",
"y 	c #EBEEEE",
"z 	c #F1F3F4",
"A 	c #8996A8",
"B 	c #85939F",
"C 	c #808D9E",
"D 	c #778394",
"E 	c #485460",
"F 	c #919FAE",
"G 	c #AEB8C5",
"H 	c #717A87",
"I 	c #B0BDC7",
"J 	c #AAB8C4",
"K 	c #A1B1C0",
"L 	c #96A4B4",
"M 	c #F0F2F3",
"N 	c #7E8A99",
"O 	c #778698",
"P 	c #707F91",
"Q 	c #4E5C6B",
"R 	c #6B7989",
"S 	c #9AA2AD",
"T 	c #7B8890",
"U 	c #A7B6C1",
"V 	c #A3AFBC",
"W 	c #9BAAB9",
"X 	c #939DAC",
"Y 	c #F4F5F5",
"Z 	c #E9ECF0",
"` 	c #82909E",
" .	c #7E8A9A",
"..	c #768596",
"+.	c #6F7E90",
"@.	c #697A8A",
"#.	c #546373",
"$.	c #5C6775",
"%.	c #97A0AB",
"&.	c #A2AEBD",
"*.	c #9BA9B6",
"=.	c #98A2B0",
"-.	c #96A0AF",
";.	c #8A97A6",
">.	c #788898",
",.	c #778395",
"'.	c #6E7D8F",
").	c #677888",
"!.	c #637284",
"~.	c #515D6A",
"{.	c #576373",
"].	c #A5AFBB",
"^.	c #66727E",
"/.	c #9BA6B4",
"(.	c #94A1B0",
"_.	c #8C9AA9",
":.	c #637584",
"<.	c #607083",
"[.	c #5C6C7E",
"}.	c #444E5B",
"|.	c #626D7C",
"1.	c #B9C4CC",
"2.	c #5B6671",
"3.	c #8A95A2",
"4.	c #8C99A7",
"5.	c #8492A2",
"6.	c #7D8D9E",
"7.	c #667687",
"8.	c #5C6F7F",
"9.	c #576A7C",
"0.	c #516277",
"a.	c #333E4A",
"b.	c #7B8999",
"c.	c #6F7C88",
"d.	c #64717F",
"e.	c #838F9E",
"f.	c #7D8A9C",
"g.	c #788697",
"h.	c #6E7F8F",
"i.	c #617182",
"j.	c #5A6D7F",
"k.	c #55687A",
"l.	c #536376",
"m.	c #414E5E",
"n.	c #424C58",
"o.	c #A7B4C0",
"p.	c #536170",
"q.	c #65707E",
"r.	c #768396",
"s.	c #727F93",
"t.	c #687889",
"u.	c #637485",
"v.	c #5F6E80",
"w.	c #5A6B7C",
"x.	c #536576",
"y.	c #506075",
"z.	c #455365",
"A.	c #37404D",
"B.	c #778392",
"C.	c #929FAD",
"D.	c #4E5A65",
"E.	c #576573",
"F.	c #657485",
"G.	c #617183",
"H.	c #5C6F7E",
"I.	c #58687B",
"J.	c #536377",
"K.	c #4B5D6E",
"L.	c #404D5C",
"M.	c #36404B",
"N.	c #6D7A88",
"O.	c #98A5B3",
"P.	c #5B6673",
"Q.	c #404A54",
"R.	c #445260",
"S.	c #475666",
"T.	c #465463",
"U.	c #3E4A58",
"V.	c #404B59",
"W.	c #768594",
"X.	c #8D9EAB",
"Y.	c #6F7D8D",
"Z.	c #5D6575",
"`.	c #596471",
" +	c #646E7E",
".+	c #818C9B",
"                                            ",
"                                            ",
"                . + @ # $ %                 ",
"            & * = - ; > , ' ) !             ",
"          ~ { ] ^ / ( _ : < [ } |           ",
"        1 2 3 4 5 6 7 8 9 0 a b c d         ",
"        e f g h i j k l m n o p q r         ",
"      s t u v w x k y z y A B C D E F       ",
"      G H I J K k L M k L y N O P Q R       ",
"      S T U V W L X Y Z `  ...+.@.#.$.      ",
"      %.b &.*.=.-.;.Y Z >.,.'.).!.~.{.      ",
"      ].^./.(._.y _.k M _.y :.<.[.}.|.      ",
"      1.2.3.4.5.6.y z y y 7.8.9.0.a.b.      ",
"        c.d.e.f.g.h.z y i.j.k.l.m.n.        ",
"        o.p.q.r.s.t.u.v.w.x.y.z.A.B.        ",
"          C.D.E.F.G.H.I.J.K.L.M.N.          ",
"            O.P.Q.R.S.T.U.a.V.W.            ",
"                X.Y.Z.`. +.+                ",
"                                            ",
"                                            "};
