/* XPM */
static char * MOZILLA_RARR_HIL_xpm[] = {
"29 29 186 2",
"  	c None",
". 	c #DEDEEE",
"+ 	c #DEE2E6",
"@ 	c #DEE2EE",
"# 	c #D5E2E6",
"$ 	c #D5E6E6",
"% 	c #CDD6DE",
"& 	c #C5CEDE",
"* 	c #C5D2D5",
"= 	c #DEDEE6",
"- 	c #BDC6D5",
"; 	c #A4B2BD",
"> 	c #738594",
", 	c #6A6D7B",
"' 	c #4A5D62",
") 	c #52596A",
"! 	c #52616A",
"~ 	c #6A7583",
"{ 	c #8B9DAC",
"] 	c #ACBAC5",
"^ 	c #CDDADE",
"/ 	c #D5DEE6",
"( 	c #BDCACD",
"_ 	c #9499AC",
": 	c #313841",
"< 	c #31384A",
"[ 	c #414C52",
"} 	c #626D7B",
"| 	c #6A7983",
"1 	c #62717B",
"2 	c #414C5A",
"3 	c #39384A",
"4 	c #202831",
"5 	c #4A4C5A",
"6 	c #6A7D8B",
"7 	c #A4B6BD",
"8 	c #D5DAE6",
"9 	c #D5DEDE",
"0 	c #9CB2BD",
"a 	c #626973",
"b 	c #313C41",
"c 	c #5A616A",
"d 	c #9CAAB4",
"e 	c #C5CAD5",
"f 	c #BDCAD5",
"g 	c #BDC2D5",
"h 	c #BDC6CD",
"i 	c #BDBECD",
"j 	c #B4BEC5",
"k 	c #ACBEC5",
"l 	c #9CA5B4",
"m 	c #394452",
"n 	c #7B859C",
"o 	c #D5D6E6",
"p 	c #D5DADE",
"q 	c #CDDEDE",
"r 	c #94A5AC",
"s 	c #39444A",
"t 	c #C5CED5",
"u 	c #C5CADE",
"v 	c #B4C6CD",
"w 	c #BDC2CD",
"x 	c #B4C2C5",
"y 	c #ACB6BD",
"z 	c #202829",
"A 	c #627183",
"B 	c #ACB6C5",
"C 	c #BDCED5",
"D 	c #B4BACD",
"E 	c #ACBABD",
"F 	c #ACB2C5",
"G 	c #A4AEBD",
"H 	c #5A697B",
"I 	c #B4C2CD",
"J 	c #CDD2DE",
"K 	c #C5D6D5",
"L 	c #C5C6D5",
"M 	c #94B2BD",
"N 	c #83919C",
"O 	c #8B99A4",
"P 	c #9CAEB4",
"Q 	c #94A1AC",
"R 	c #627983",
"S 	c #5A6973",
"T 	c #8BB2BD",
"U 	c #8BA1AC",
"V 	c #DEFAFF",
"W 	c #BDFAFF",
"X 	c #8399A4",
"Y 	c #9CAABD",
"Z 	c #949DAC",
"` 	c #8B95A4",
" .	c #A4A5AC",
"..	c #D5FFF6",
"+.	c #DEFFF6",
"@.	c #D5FFFF",
"#.	c #9CAEBD",
"$.	c #7B8D9C",
"%.	c #525D62",
"&.	c #5A6573",
"*.	c #E6FAFF",
"=.	c #8B91A4",
"-.	c #838DA4",
";.	c #7B899C",
">.	c #B4BAC5",
",.	c #7BAEAC",
"'.	c #E6FFFF",
").	c #EEFAFF",
"!.	c #E6FFF6",
"~.	c #C5FFFF",
"{.	c #9CAAAC",
"].	c #8395A4",
"^.	c #738194",
"/.	c #B4BECD",
"(.	c #7B8D94",
"_.	c #292831",
":.	c #83AAB4",
"<.	c #CDFFFF",
"[.	c #8B99AC",
"}.	c #8391A4",
"|.	c #83959C",
"1.	c #7B919C",
"2.	c #EEFFFF",
"3.	c #A4B2B4",
"4.	c #7B8994",
"5.	c #BDFFF6",
"6.	c #B4FFF6",
"7.	c #838D9C",
"8.	c #A4FFF6",
"9.	c #B4FAF6",
"0.	c #CDFFF6",
"a.	c #6A798B",
"b.	c #4A5562",
"c.	c #738994",
"d.	c #A4AABD",
"e.	c #9CE2E6",
"f.	c #CDE6E6",
"g.	c #94A1B4",
"h.	c #737D94",
"i.	c #6A758B",
"j.	c #5A717B",
"k.	c #394052",
"l.	c #94A5B4",
"m.	c #9CA1B4",
"n.	c #8BD6D5",
"o.	c #C5FFF6",
"p.	c #83A1AC",
"q.	c #8BDEE6",
"r.	c #C5E6E6",
"s.	c #73818B",
"t.	c #5A6D7B",
"u.	c #52657B",
"v.	c #394C5A",
"w.	c #8B9DA4",
"x.	c #BDE2E6",
"y.	c #7B8594",
"z.	c #6A818B",
"A.	c #94D6D5",
"B.	c #ACFAFF",
"C.	c #B4E6DE",
"D.	c #4A6173",
"E.	c #414052",
"F.	c #94AAB4",
"G.	c #ACE2E6",
"H.	c #62758B",
"I.	c #5A657B",
"J.	c #52617B",
"K.	c #94B6BD",
"L.	c #5A7183",
"M.	c #4A6573",
"N.	c #4A5D6A",
"O.	c #414C62",
"P.	c #626D83",
"Q.	c #627583",
"R.	c #5A6D83",
"S.	c #526173",
"T.	c #525D73",
"U.	c #4A5D73",
"V.	c #525D7B",
"W.	c #BDBAC5",
"X.	c #526573",
"Y.	c #626D73",
"Z.	c #202431",
"`.	c #5A6983",
" +	c #4A5962",
".+	c #62696A",
". + @ + # @ # + @ $ @ $ % & * & * @ # . # = # + . # . = # ",
"# . # . + @ + @ + - ; > , ' ) ) ! ~ { ] ^ = / / = / / = / ",
". # = # + + @ ( _ ! : < [ } | 1 2 3 4 5 6 7 % 8 9 8 / 8 / ",
"# = + @ + = 0 a b c d e f g h i j k l ! 4 m n f o p 8 q / ",
". # @ # = r m s d t u ( - v w x j ] y ; r 5 z A B % % % ^ ",
"= = + = r b ) - & C f f - v i k D E F ; G l a 4 H I J J K ",
"/ . # ; 5 ) t C e f L h g M N O 7 B ; G P l Q } z R ( & t ",
"= + - S b h t e f ( g v T U V W X 0 ; P Y r Z ` 5 3 ` ( e ",
"# + O 3  .e ( f - w I I Z V ..+.@.Q #.Y d l Q X $.4 %.B h ",
"= e &.5 ( - h - v i j k Z +.V +.*.+.Z r l r Z =.-.c b ;.I ",
". 0 < X h h g I x k >.B ,. .+.'.).!.~.{.Q Z O ].$.^.4 &./.",
"# (._.I g w I /.>.] y F ; :.G !.).!.).<.d [.` }.;.^.3 s l ",
"8 | [ x I /.j B |.-.1.N N ].-.7 2.).'.!.<.3.].1.4.^.[ < N ",
"C ) ! D j k >.-.5.6.~.<.@.V +.*.+.'.+.*...<.0 7.n 6 ) 4 ;.",
"e ) S B ] B E d 8.9.5.5.0.V +.+.*.!.'.V V 0.k 4.^.a.' _.;.",
"L %.) 7 F B ; l 8.6.9.~.<.0.V ..V V ..+.@.0.Y > 6 A b.4 c.",
"J A m #.; 0 G r Q l P d d d.P e.0...@.@.f.g.c.h.i.j.k.: ;.",
"q 6 4 d l d Y l l l.m.Z _ O n.9.o.<.<.f.l.n ^.| A H b 3 ].",
"8 Z 4 7.l l r l.r g.U Z p.q.6.~.5.o.r.m.;.s.6 A t.u._.v.d ",
"% B [ 5 Q w.Z Z Z { [.O n.8.6.6.9.x.Q y.z.a.A H u.s 4 A Y ",
"J t a.4 ;.=.].X X ` ].=.A.8.B.8.C.Z > h.a.A t.u.D.4 E.|.F.",
"t t l [ < 1.7.7.7.7.7.$.T 8.8.G.Q ^.6 H.j.I.J.D.3 z H F.Y ",
"f L f ;.b s ;.4.c.n > y.> U K.U > i.L.t.u.M.N.m 4 O.X Y P ",
"( - ( /.P.4 m ^.^.6 h.6 a.i.Q.A R.t.H S.T.U.m _.: c.d d v ",
"g h - v 7 &._.b i.R a.i.A j.H t.I.u.D.V.U.b _.b ;.Y d W.1 ",
"I I I i I ; R m 4 E.I.j.H t.H u.X.T.U.s 4 _.v.;.d P j Y.z ",
"x /.I I x /.] 7.b.b 4 4 m O.2 O.b z 4 _.b H Z d Y ; ;.Z.y ",
"/.k /././.D k D ; 4.`.O.b 4 4 4 3 : 2 Q.=.Y P d.0 ;  +.+I ",
"D D k k k k ] k ] ] ] d ` y.> > $.` P Y P d.P G ; ; b.Y.B "};
