/* XPM */
static char * mozilla_maximize_p_xpm[] = {
"22 20 202 2",
"  	c None",
". 	c #C7D2D9",
"+ 	c #AAB2BD",
"@ 	c #949FA9",
"# 	c #909BA4",
"$ 	c #A0ABB3",
"% 	c #BEC9D2",
"& 	c #CBD1DB",
"* 	c #8C959F",
"= 	c #58636E",
"- 	c #525D68",
"; 	c #56606C",
"> 	c #54606B",
", 	c #4F5965",
"' 	c #4A555F",
") 	c #6E7A85",
"! 	c #B5BEC9",
"~ 	c #C0C8D0",
"{ 	c #66717C",
"] 	c #56626C",
"^ 	c #6F7C8A",
"/ 	c #768695",
"( 	c #788796",
"_ 	c #788697",
": 	c #778595",
"< 	c #707E8E",
"[ 	c #54626E",
"} 	c #4A545F",
"| 	c #98A5B2",
"1 	c #CAD2DB",
"2 	c #687583",
"3 	c #576473",
"4 	c #738193",
"5 	c #788797",
"6 	c #798A9A",
"7 	c #7E909B",
"8 	c #8396A4",
"9 	c #828D9E",
"0 	c #7E8C9B",
"a 	c #7A8895",
"b 	c #5F6B75",
"c 	c #46525F",
"d 	c #A6B1BC",
"e 	c #8B95A0",
"f 	c #566573",
"g 	c #758294",
"h 	c #768697",
"i 	c #79899A",
"j 	c #8491A0",
"k 	c #B5CBD0",
"l 	c #C1E2E3",
"m 	c #8DA3AD",
"n 	c #8390A0",
"o 	c #7E8C9E",
"p 	c #7A8595",
"q 	c #535F6A",
"r 	c #C9D3DB",
"s 	c #5C6871",
"t 	c #6C788A",
"u 	c #788695",
"v 	c #778798",
"w 	c #818E9E",
"x 	c #C2D3D8",
"y 	c #E6F9F8",
"z 	c #C8E4E6",
"A 	c #89A0AD",
"B 	c #8392A0",
"C 	c #818F9C",
"D 	c #798898",
"E 	c #6F7B88",
"F 	c #3F4855",
"G 	c #96A1AC",
"H 	c #B3BBC6",
"I 	c #576270",
"J 	c #768393",
"K 	c #778696",
"L 	c #7D8B9D",
"M 	c #BBCDD1",
"N 	c #EEF9FB",
"O 	c #D7EBED",
"P 	c #94A7B4",
"Q 	c #8693A3",
"R 	c #8494A0",
"S 	c #8290A0",
"T 	c #798896",
"U 	c #717F8F",
"V 	c #49535F",
"W 	c #6F7984",
"X 	c #9AA6B0",
"Y 	c #616B78",
"Z 	c #7B899A",
"` 	c #A5BBC3",
" .	c #E4F7F8",
"..	c #ECFDFC",
"+.	c #E1F3F2",
"@.	c #C9DFE2",
"#.	c #C2DBDE",
"$.	c #B8D8DD",
"%.	c #A2CBCE",
"&.	c #7D8E9F",
"*.	c #6E7D8C",
"=.	c #57636D",
"-.	c #606C7A",
";.	c #98A3AC",
">.	c #65707C",
",.	c #798695",
"'.	c #7C8A9B",
").	c #ABBDC5",
"!.	c #DCF9F6",
"~.	c #E4FDFC",
"{.	c #DEF5F3",
"].	c #CBE0E1",
"^.	c #BFDADE",
"/.	c #B3D6DB",
"(.	c #A4C9CF",
"_.	c #778A99",
":.	c #6A7989",
"<.	c #5B6876",
"[.	c #5E6C79",
"}.	c #A7B1BB",
"|.	c #717C89",
"1.	c #7B8897",
"2.	c #82919F",
"3.	c #BDD2D4",
"4.	c #D7F9F8",
"5.	c #C8EFEF",
"6.	c #93A8B5",
"7.	c #80919F",
"8.	c #7F8E9A",
"9.	c #778697",
"0.	c #6A7A8D",
"a.	c #637383",
"b.	c #69737E",
"c.	c #677380",
"d.	c #BBC5CD",
"e.	c #677481",
"f.	c #7B8998",
"g.	c #8592A2",
"h.	c #B5D7DD",
"i.	c #C6F5F3",
"j.	c #B0DCDD",
"k.	c #839AA6",
"l.	c #69798A",
"m.	c #617385",
"n.	c #667686",
"o.	c #67727C",
"p.	c #7D8A98",
"q.	c #727F8D",
"r.	c #6E7A86",
"s.	c #6F7F8E",
"t.	c #768293",
"u.	c #788595",
"v.	c #82909E",
"w.	c #A3CACD",
"x.	c #9ED9D9",
"y.	c #7D96A1",
"z.	c #677789",
"A.	c #627083",
"B.	c #617082",
"C.	c #7B8591",
"D.	c #545E6A",
"E.	c #A8B4C0",
"F.	c #5C6775",
"G.	c #77808D",
"H.	c #70808F",
"I.	c #6C7A88",
"J.	c #6B7B8A",
"K.	c #6F818E",
"L.	c #6F8393",
"M.	c #657583",
"N.	c #5D7080",
"O.	c #637381",
"P.	c #7F8997",
"Q.	c #5B636D",
"R.	c #909EAA",
"S.	c #56616E",
"T.	c #757F8C",
"U.	c #7B8794",
"V.	c #717E8D",
"W.	c #677888",
"X.	c #657587",
"Y.	c #697988",
"Z.	c #728190",
"`.	c #7B8994",
" +	c #525B68",
".+	c #6D7987",
"++	c #96A4AE",
"@+	c #5B6471",
"#+	c #545E66",
"$+	c #697580",
"%+	c #768391",
"&+	c #788694",
"*+	c #6E7884",
"=+	c #545C66",
"-+	c #49545E",
";+	c #7A8694",
">+	c #8D9AA9",
",+	c #6C7A8A",
"'+	c #545E6C",
")+	c #525C6A",
"!+	c #616E79",
"~+	c #7D8C9C",
"                                            ",
"                                            ",
"                . + @ # $ %                 ",
"            & * = - ; > , ' ) !             ",
"          ~ { ] ^ / ( _ : < [ } |           ",
"        1 2 3 4 5 6 7 8 9 0 a b c d         ",
"        e f g h i j k l m n o p q =         ",
"      r s t u v w x y z A B C D E F G       ",
"      H I J K L M N O P Q R S T U V W       ",
"      X Y : Z `  ...+.@.#.$.%.&.*.=.-.      ",
"      ;.>.,.'.).!.~.{.].^./.(._.:.<.[.      ",
"      }.|.J 1.2.3.4.5.6.7.8.9.0.a.b.c.      ",
"      d.e.g _ f.g.h.i.j.k.J l.m.n.o.p.      ",
"        q.r.s.t.u.v.w.x.y.z.A.B.C.D.        ",
"        E.F.G.H.I.J.K.L.M.N.O.P.Q.,.        ",
"          R.S.T.U.V.W.X.Y.Z.`. +.+          ",
"            ++@+#+$+%+&+*+=+-+;+            ",
"                >+,+'+)+!+~+                ",
"                                            ",
"                                            "};
