/* XPM */
static char * MOZILLA_ARR_HIL_xpm[] = {
"29 29 176 2",
"  	c None",
". 	c #DEDEEE",
"+ 	c #D5E2E6",
"@ 	c #DEE2EE",
"# 	c #DEE2E6",
"$ 	c #D5E6E6",
"% 	c #CDD6DE",
"& 	c #C5D2D5",
"* 	c #C5CEDE",
"= 	c #C5CED5",
"- 	c #C5CADE",
"; 	c #DEDEE6",
"> 	c #BDCACD",
", 	c #A4B2BD",
"' 	c #738594",
") 	c #626D7B",
"! 	c #52596A",
"~ 	c #525D62",
"{ 	c #5A616A",
"] 	c #6A7583",
"^ 	c #8B9DA4",
"/ 	c #B4BAC5",
"( 	c #D5DADE",
"_ 	c #D5DEE6",
": 	c #DEE6E6",
"< 	c #BDCAD5",
"[ 	c #313C41",
"} 	c #31384A",
"| 	c #414C52",
"1 	c #6A7983",
"2 	c #202831",
"3 	c #4A4C5A",
"4 	c #6A7D8B",
"5 	c #D5D6E6",
"6 	c #D5DAE6",
"7 	c #D5DEDE",
"8 	c #9CAEB4",
"9 	c #626973",
"0 	c #52616A",
"a 	c #9CA5B4",
"b 	c #BDCED5",
"c 	c #C5C6D5",
"d 	c #BDC6D5",
"e 	c #B4C6CD",
"f 	c #B4BECD",
"g 	c #B4BEC5",
"h 	c #394452",
"i 	c #738994",
"j 	c #9CA1B4",
"k 	c #BDC6CD",
"l 	c #BDC2D5",
"m 	c #B4C2CD",
"n 	c #ACBEC5",
"o 	c #ACB6BD",
"p 	c #A4B6BD",
"q 	c #94A5AC",
"r 	c #627183",
"s 	c #CDD6E6",
"t 	c #CDDADE",
"u 	c #C5CAD5",
"v 	c #B4BACD",
"w 	c #ACB6C5",
"x 	c #A4AEBD",
"y 	c #5A697B",
"z 	c #BDC2CD",
"A 	c #C5D6D5",
"B 	c #CDD2DE",
"C 	c #A4B2C5",
"D 	c #CDCEDE",
"E 	c #B4C2C5",
"F 	c #8B9DAC",
"G 	c #94A1AC",
"H 	c #9CB2B4",
"I 	c #949DAC",
"J 	c #62717B",
"K 	c #6A798B",
"L 	c #5A6973",
"M 	c #C5FFFF",
"N 	c #A4AABD",
"O 	c #9CAAB4",
"P 	c #8B95A4",
"Q 	c #313841",
"R 	c #8B91A4",
"S 	c #DEFFF6",
"T 	c #E6FFFF",
"U 	c #D5FFF6",
"V 	c #BDFFF6",
"W 	c #9CAEBD",
"X 	c #8B99AC",
"Y 	c #8395A4",
"Z 	c #202829",
"` 	c #4A5962",
" .	c #E6FFF6",
"..	c #EEFAFF",
"+.	c #DEFAFF",
"@.	c #8B99A4",
"#.	c #8391A4",
"$.	c #7B899C",
"%.	c #9499AC",
"&.	c #ACBAC5",
"*.	c #EEFFFF",
"=.	c #F6FAFF",
"-.	c #EEFFF6",
";.	c #ACBABD",
">.	c #94A5B4",
",.	c #7B919C",
"'.	c #7B8994",
").	c #737D94",
"!.	c #5A657B",
"~.	c #E6FAFF",
"{.	c #7B8D9C",
"].	c #7B859C",
"^.	c #6A818B",
"/.	c #39444A",
"(.	c #6A758B",
"_.	c #BDBECD",
":.	c #738194",
"<.	c #4A5D62",
"[.	c #CDFFF6",
"}.	c #C5FFF6",
"|.	c #627983",
"1.	c #D5FFFF",
"2.	c #CDFFFF",
"3.	c #627583",
"4.	c #A4BABD",
"5.	c #626D83",
"6.	c #9CB2BD",
"7.	c #94A1B4",
"8.	c #83899C",
"9.	c #7B8594",
"0.	c #8399A4",
"a.	c #838D9C",
"b.	c #8BA1AC",
"c.	c #7B8194",
"d.	c #526573",
"e.	c #292831",
"f.	c #414C5A",
"g.	c #B4FAF6",
"h.	c #5A717B",
"i.	c #52697B",
"j.	c #526173",
"k.	c #C5D2DE",
"l.	c #8B95AC",
"m.	c #B4FFF6",
"n.	c #83919C",
"o.	c #52657B",
"p.	c #4A6573",
"q.	c #525D73",
"r.	c #83959C",
"s.	c #BDFAFF",
"t.	c #5A6D83",
"u.	c #52617B",
"v.	c #4A6173",
"w.	c #4A5D73",
"x.	c #73818B",
"y.	c #62798B",
"z.	c #5A6D7B",
"A.	c #525D7B",
"B.	c #4A5D6A",
"C.	c #9CAABD",
"D.	c #BDBAC5",
"E.	c #292839",
"F.	c #5A6983",
"G.	c #626D73",
"H.	c #9CA1AC",
"I.	c #394C5A",
"J.	c #414C62",
"K.	c #202431",
"L.	c #526973",
"M.	c #39384A",
"N.	c #62696A",
"O.	c #B4FFFF",
"P.	c #A4BAC5",
"Q.	c #ACB2C5",
"R.	c #7B819C",
"S.	c #4A5562",
". + @ # @ # $ @ @ # @ $ % & * = - + . + . + + ; + ; + ; + ",
"+ # + @ # @ @ # @ > , ' ) ! ~ ~ { ] ^ / ( _ ; _ ; _ . _ . ",
"# + . # @ @ : < ^ { [ } | ) 1 ) | [ 2 3 4 , 5 _ 6 _ 7 _ _ ",
". @ + @ # + 8 9 [ 0 a b c d e f g / a 0 2 h i c ( 6 6 6 7 ",
"+ . + @ ; j h h 8 = - < < k l m n o p , q 3 2 r p % s t 5 ",
"+ @ # _ q [ { > * = b u d l m f v w , x a q 9 2 y z A B % ",
"+ @ : C 3 0 D & = u < > l E F G H w p H a G I J 2 K < & D ",
". # d L h c = = < > l m f H M M I x , N O j ^ P 3 Q R < u ",
"# @ I [ a = b c d k m E x S T U V O W O a G X Y i Z ~ w k ",
"@ b 9 ` u b c k e m g x  ... .+.M , a a q I @.#.$.{ [ $.m ",
"+ x [ %.< d k m f &.x *.*.=.-.T ;.a q >.I ^ P ,.'.).2 !.f ",
"# $.2 k d e z f ;.a  .-.=.-.~.p a >.G I F I Y {.].^.} /.q ",
"_ (.| z m _.n w %.S ..=.*.~.p N 8 W N q I ^ #.{.:.4 | Q #.",
"= <.9 f g g &.I [.S ..-...S .. .~.S U [.M }.@.$.4 |.! 2 {.",
"- ~ ) n / / ;.x S T  . ..... .T ~.U 1.2.V }.%.' K 3.! Z ].",
"b ~ { w 4.p , G ~.U T ~. .T ~.T S S 1.[.M V @.:.|.5.` 2 ' ",
"% r | , , x 6.x ;.~.+.U +.+.;.O a a q 7.I #.].|.r y h } $.",
"_ 4 2 N 8 W W a G o +.[.+.U M G #.,.8.$.i 9.4 3.y !.[ [ 0.",
"6 I [ a.a a O >.a b.g 1.1.2.[.V I {.$.i c.4 3.5.d.d.e.f.N ",
"t &.3 | G b.7.G I I ^ l [.M }.M g.R i :.4 (.h.i.j.h 2 r 8 ",
"k.- |.e.8.X @.X @.l.Y @.l }.m.g.m.n.:.4 (.h.o.p.q.2 [ R W ",
"= = a | [ r.#.n.#.n.a.{.$.e s.m.w 9.|.r y o.j.q.[ e.y 8 x ",
"u b u $.e.3 {.$.i $.i ].' :.n.a.|.r t.i.u.v.w./.2 f.X N , ",
"k d > f h.2 h ' ).x.).4 4 (.3.r h.y d.j.v.w.h 2 [ ].8 e >.",
"l k l e w L e.} y.K |.(.3.5.t.z.o.j.A.B.q.[ e.[ '.C.D.J E.",
"z m m _.E x 1 [ e.h !.5.y F.d.!.j.j.B.h 2 Z f.$.C.g G.Z H.",
"E m f E f g w 8.` [ e.2 h I.f.J.[ 2 e.2 Q y I 8 W $.K.o k ",
"f f n f n n &.&.x ].L.| } e.2 2 [ M.I.(.Y C.8 x , ` N.m O.",
"n n f n / v n &.P.w Q.C.@.' R.' 8.Y C.x 8 x 6., C S.G.w u "};
