/* XPM */
static char * MOZILLA_REL_HIL_xpm[] = {
"29 29 219 2",
"  	c None",
". 	c #DEDEEE",
"+ 	c #D5E2E6",
"@ 	c #DEE2EE",
"# 	c #DEE2E6",
"$ 	c #DEE6E6",
"% 	c #D5E6E6",
"& 	c #CDD6DE",
"* 	c #C5D2D5",
"= 	c #C5CEDE",
"- 	c #C5CED5",
"; 	c #D5DEE6",
"> 	c #DEDEE6",
", 	c #BDC6CD",
"' 	c #A4B2BD",
") 	c #738594",
"! 	c #62717B",
"~ 	c #5A616A",
"{ 	c #52596A",
"] 	c #4A5D62",
"^ 	c #6A7583",
"/ 	c #8B9DA4",
"( 	c #ACBAC5",
"_ 	c #D5D6E6",
": 	c #C5C6D5",
"< 	c #5A6173",
"[ 	c #313C41",
"} 	c #31384A",
"| 	c #4A556A",
"1 	c #627583",
"2 	c #737D83",
"3 	c #4A5562",
"4 	c #292831",
"5 	c #414C52",
"6 	c #6A7D8B",
"7 	c #D5DEDE",
"8 	c #D5DAE6",
"9 	c #9CB2BD",
"0 	c #626D7B",
"a 	c #313841",
"b 	c #626973",
"c 	c #9CAEB4",
"d 	c #BDCED5",
"e 	c #BDCAD5",
"f 	c #BDC6D5",
"g 	c #B4C2CD",
"h 	c #B4BECD",
"i 	c #B4BEC5",
"j 	c #9CAAB4",
"k 	c #52616A",
"l 	c #394452",
"m 	c #738994",
"n 	c #D5DADE",
"o 	c #94A5AC",
"p 	c #4A4C5A",
"q 	c #9CAEBD",
"r 	c #CDD2DE",
"s 	c #C5CAD5",
"t 	c #ACBEC5",
"u 	c #ACB6C5",
"v 	c #ACB2C5",
"w 	c #9CA5B4",
"x 	c #D5D6DE",
"y 	c #CDDADE",
"z 	c #94A1AC",
"A 	c #C5CADE",
"B 	c #BDBECD",
"C 	c #B4BAC5",
"D 	c #A4BABD",
"E 	c #5A6973",
"F 	c #5A6D7B",
"G 	c #BDC2CD",
"H 	c #C5D6D5",
"I 	c #C5D6DE",
"J 	c #A4B6BD",
"K 	c #C5D2DE",
"L 	c #BDCACD",
"M 	c #7BDAD5",
"N 	c #8BE2DE",
"O 	c #83E2DE",
"P 	c #8BDEDE",
"Q 	c #94E6DE",
"R 	c #94E6E6",
"S 	c #9CD2D5",
"T 	c #94B6B4",
"U 	c #94A5B4",
"V 	c #949DAC",
"W 	c #6A798B",
"X 	c #CDCEDE",
"Y 	c #73DAD5",
"Z 	c #DEFAFF",
"` 	c #E6FFF6",
" .	c #F6FAFF",
"..	c #EEFFF6",
"+.	c #EEFAFF",
"@.	c #E6FAFF",
"#.	c #D5FFF6",
"$.	c #CDF2EE",
"%.	c #8BC2C5",
"&.	c #8B9DAC",
"*.	c #8399A4",
"=.	c #414C5A",
"-.	c #8B95A4",
";.	c #9499AC",
">.	c #9CAABD",
",.	c #BDEEF6",
"'.	c #EEFFFF",
").	c #E6FFFF",
"!.	c #DEFFF6",
"~.	c #D5FAF6",
"{.	c #8BC2CD",
"].	c #8395A4",
"^.	c #7B899C",
"/.	c #202829",
"(.	c #A4B6C5",
"_.	c #BDC2D5",
":.	c #4A5962",
"<.	c #BDF6F6",
"[.	c #94D2D5",
"}.	c #B4CAD5",
"|.	c #A4C6CD",
"1.	c #94AAB4",
"2.	c #8B91A4",
"3.	c #7B8D9C",
"4.	c #A4AEBD",
"5.	c #C5F6F6",
"6.	c #83C6C5",
"7.	c #94A1B4",
"8.	c #8B99A4",
"9.	c #8391A4",
"0.	c #202831",
"a.	c #526973",
"b.	c #B4C6CD",
"c.	c #94B6BD",
"d.	c #9CA1B4",
"e.	c #8B95AC",
"f.	c #83919C",
"g.	c #737D94",
"h.	c #414052",
"i.	c #C5F6EE",
"j.	c #A4F2EE",
"k.	c #83959C",
"l.	c #7B8194",
"m.	c #525D62",
"n.	c #EEF6F6",
"o.	c #8BD6D5",
"p.	c #83C2C5",
"q.	c #838DA4",
"r.	c #737D8B",
"s.	c #627983",
"t.	c #ACB6BD",
"u.	c #F6F6F6",
"v.	c #BDDEE6",
"w.	c #B4E6E6",
"x.	c #7B919C",
"y.	c #6A758B",
"z.	c #BDF6EE",
"A.	c #DEFAF6",
"B.	c #8BBABD",
"C.	c #D5F6F6",
"D.	c #C5EEEE",
"E.	c #7B859C",
"F.	c #5A717B",
"G.	c #627173",
"H.	c #B4E6DE",
"I.	c #E6F6F6",
"J.	c #B4F2EE",
"K.	c #BDEEEE",
"L.	c #839DAC",
"M.	c #6A818B",
"N.	c #6A7983",
"O.	c #626D83",
"P.	c #5A697B",
"Q.	c #39444A",
"R.	c #7B8994",
"S.	c #73798B",
"T.	c #94BAC5",
"U.	c #A4E6E6",
"V.	c #A4E2E6",
"W.	c #8BB6B4",
"X.	c #8B99AC",
"Y.	c #ACE2E6",
"Z.	c #CDFAF6",
"`.	c #83A1AC",
" +	c #73818B",
".+	c #627183",
"++	c #39384A",
"@+	c #838D9C",
"#+	c #C5FAEE",
"$+	c #5A657B",
"%+	c #52657B",
"&+	c #BDE6E6",
"*+	c #4A6573",
"=+	c #BDF2EE",
"-+	c #BDE2E6",
";+	c #526573",
">+	c #526173",
",+	c #4A6173",
"'+	c #83899C",
")+	c #ACEEEE",
"!+	c #525D7B",
"~+	c #4A5D73",
"{+	c #7B8594",
"]+	c #738194",
"^+	c #83A1A4",
"/+	c #ACF2EE",
"(+	c #9CC2CD",
"_+	c #414C62",
":+	c #62758B",
"<+	c #5A6D83",
"[+	c #52697B",
"}+	c #4A5D6A",
"|+	c #A4AABD",
"1+	c #394052",
"2+	c #5A6983",
"3+	c #B4C2C5",
"4+	c #394C5A",
"5+	c #B4BACD",
"6+	c #7B819C",
". + @ + @ + # @ $ @ % @ & * = - - @ @ . + ; ; + . > # > # ",
"+ # # . # @ @ # @ , ' ) ! ~ { ] ~ ^ / ( _ ; ; > ; ; ; . + ",
"> + . + # # + : / < [ } | 1 2 ^ 3 [ 4 5 6 ' _ 7 ; 7 8 7 > ",
"# . # + @ ; 9 0 a b c = d e f g h i j k 4 l m e _ 8 n 8 8 ",
"+ + @ # ; o p 5 q r * s e f , g h t u v w 5 4 ! u & x & y ",
". > + > z l b : * - A e f , g B t C D ' q w E 4 F G H I r ",
"; . @ J p E K * A L M N O P N Q Q R Q S T U V ! 4 W : X - ",
"> + , 0 l s X d s Y Z `  ...` +.@.#.Z $.%.w &.*.=.[ -.L s ",
"> # ;.[ >.- d : ( ,... .+.'.+.+.` ).!.~.{.o V ].^./.{ (._.",
". d b :.A d : f 9 <...+.` +.#.[.}.}.}.|.1.V / 2.3.< [ ^.g ",
"+ 4.l / e f , G ' 5.'.+.` +.'.5.6.j o 7.z V 8.9.^.6 0.a.h ",
"@ 3.0.f , b.G i 4.5...'.Z ` +.` 5.c.d.z ;.8.e.f.m g.[ h.o ",
"8 W 5 G g h i i c i. . .O Z ` +.+.j.V ;.8.-.k.3.l.6 p [ 9.",
"A m.b i h i t u c 5. .n.{.o.'. .` Z p.*.-.].q.^.r.s.{ /.^.",
"d { ! ( t C t.u >.i.'.u.p.1.v.` @.!.w.-.9.x.3.) 6 y.m.0.^.",
"s m.~ J u u v ' w z.@.A.%.V B.C.!.#.D.f.3.^.E.r.y.F.3 0.E.",
"r G.l 4.' ' 9 4.w H.I.!.{./ ;.J.Z Z K.L.3.E.M.N.O.P.Q.} R.",
"n S.0.c >.>.>.j j T.U.V.W.X.8.Y.Z.C.K.`.E. +W .+F P.++l -.",
"n V /.@+o w o w 7.z ;./ 8.-.].J.#+5.w.q. +y.1 P.$+%+/.=.w ",
"& t.p 5 ;./ V ;./ V 8.-.-.k.-.J.5.<.&+m W .+P.%+*+h.0.1 w ",
"* - s.0.^.8.2.].].-.-.k.q.@+S =+J.J.-+1 F.P.;+>+,+0.l 9.j ",
"- - w 5 [ @+3.^.'+3.3.^.R.) Y.J.)+)+c.P.$+;+!+~+[ 4 F j >.",
"s s d ^.4 Q.^.{+) {+]+ +r.W ^+/+/+(+1 %+*+,+~+Q.0._+8.w c ",
"L f , h O.0.l l. +r.6 W y.1 O.:+1 O.;+!+,+~+h.0.[ m w c 4.",
", , _.b.(.$+0.[ y.W 1 :+.+<+P.[+%+*+,+}+~+[ /.} E.j >.|+' ",
"G g g g g J W 1+0.h.[+O.F.2+[+$+>+,+~+Q.0.0.=.^.j >.c 4.J ",
"3+h g h g g ( 3.3 [ 0.0.l =._+5 [ 4 0.4 [ F ;.j >.q ' ' D ",
"h i h t h h t ( 9 ^.P.4+++0.0.0.} [ _+1 -.>.j 4.9 4.J v u ",
"h t h i t t C 5+( ( D >.8.E.) 6+3.8.c >.4.c q 4.' ' J (.u "};
