/* XPM */
static char * mozilla_up_xpm[] = {
"22 20 196 2",
"  	c None",
". 	c #C8D1DB",
"+ 	c #ACB6C0",
"@ 	c #98A3AF",
"# 	c #94A1AB",
"$ 	c #A4AFB8",
"% 	c #C0CAD2",
"& 	c #CBD0DC",
"* 	c #8E97A3",
"= 	c #6D7983",
"- 	c #78818B",
"; 	c #84929F",
"> 	c #8590A0",
", 	c #707B84",
"' 	c #636E78",
") 	c #748190",
"! 	c #B4BFC9",
"~ 	c #C0C8D2",
"{ 	c #74818C",
"] 	c #89919C",
"^ 	c #B6BDC8",
"/ 	c #BCC5CF",
"( 	c #B4C0CC",
"_ 	c #B0BAC5",
": 	c #A9B4C0",
"< 	c #98A7B1",
"[ 	c #788290",
"} 	c #5C6975",
"| 	c #9CA7B4",
"1 	c #C9D1DA",
"2 	c #74808C",
"3 	c #96A1AB",
"4 	c #BDC8D4",
"5 	c #B9C4CD",
"6 	c #B3BEC9",
"7 	c #ACB8C3",
"8 	c #A7B4BF",
"9 	c #9EAEB7",
"0 	c #99A7B5",
"a 	c #95A1AD",
"b 	c #788590",
"c 	c #54616C",
"d 	c #A6B1BD",
"e 	c #8E98A1",
"f 	c #83919C",
"g 	c #BEC5D0",
"h 	c #B7C2CC",
"i 	c #B1BBC5",
"j 	c #AAB8BF",
"k 	c #F1F3F4",
"l 	c #C9D0D7",
"m 	c #97A4B1",
"n 	c #959EAE",
"o 	c #8A98A7",
"p 	c #8694A3",
"q 	c #66727F",
"r 	c #5E6A79",
"s 	c #C7D0D9",
"t 	c #6B747D",
"u 	c #ACB5BF",
"v 	c #AFBDC8",
"w 	c #ABBBC4",
"x 	c #A6B3BF",
"y 	c #EBEEEE",
"z 	c #CED5DB",
"A 	c #8996A8",
"B 	c #85939F",
"C 	c #808D9E",
"D 	c #778394",
"E 	c #485460",
"F 	c #919FAE",
"G 	c #AEB8C5",
"H 	c #717A87",
"I 	c #B0BDC7",
"J 	c #AAB8C4",
"K 	c #A1B1C0",
"L 	c #C7D0D6",
"M 	c #FAFAFB",
"N 	c #F0F2F3",
"O 	c #F8F9FA",
"P 	c #D6DBE2",
"Q 	c #7E8A99",
"R 	c #778698",
"S 	c #707F91",
"T 	c #4E5C6B",
"U 	c #6B7989",
"V 	c #9AA2AD",
"W 	c #7B8890",
"X 	c #A7B6C1",
"Y 	c #A3AFBC",
"Z 	c #EDEFF4",
"` 	c #E9ECF0",
" .	c #F4F5F5",
"..	c #FBFAFC",
"+.	c #6F7E90",
"@.	c #697A8A",
"#.	c #546373",
"$.	c #5C6775",
"%.	c #97A0AB",
"&.	c #A2AEBD",
"*.	c #9BA9B6",
"=.	c #E8EBED",
"-.	c #EEEFF1",
";.	c #8A97A6",
">.	c #DCE0E6",
",.	c #E4E6EB",
"'.	c #788898",
").	c #677888",
"!.	c #637284",
"~.	c #515D6A",
"{.	c #576373",
"].	c #A5AFBB",
"^.	c #66727E",
"/.	c #9BA6B4",
"(.	c #94A1B0",
"_.	c #8C9AA9",
":.	c #8C99A7",
"<.	c #85909F",
"[.	c #D4DAE1",
"}.	c #DAE1E5",
"|.	c #6C7D8D",
"1.	c #637584",
"2.	c #607083",
"3.	c #5C6C7E",
"4.	c #444E5B",
"5.	c #626D7C",
"6.	c #B9C4CC",
"7.	c #5B6671",
"8.	c #8A95A2",
"9.	c #8492A2",
"0.	c #7D8D9E",
"a.	c #788897",
"b.	c #CAD1DB",
"c.	c #D3D8E0",
"d.	c #6B7A8C",
"e.	c #667687",
"f.	c #5C6F7F",
"g.	c #576A7C",
"h.	c #516277",
"i.	c #333E4A",
"j.	c #7B8999",
"k.	c #6F7C88",
"l.	c #64717F",
"m.	c #838F9E",
"n.	c #7D8A9C",
"o.	c #788697",
"p.	c #6E7F8F",
"q.	c #C0C7D3",
"r.	c #C4CCD4",
"s.	c #617182",
"t.	c #5A6D7F",
"u.	c #55687A",
"v.	c #536376",
"w.	c #414E5E",
"x.	c #424C58",
"y.	c #A7B4C0",
"z.	c #536170",
"A.	c #65707E",
"B.	c #768396",
"C.	c #727F93",
"D.	c #687889",
"E.	c #637485",
"F.	c #5F6E80",
"G.	c #5A6B7C",
"H.	c #536576",
"I.	c #506075",
"J.	c #455365",
"K.	c #37404D",
"L.	c #778392",
"M.	c #929FAD",
"N.	c #4E5A65",
"O.	c #576573",
"P.	c #657485",
"Q.	c #617183",
"R.	c #5C6F7E",
"S.	c #58687B",
"T.	c #536377",
"U.	c #4B5D6E",
"V.	c #404D5C",
"W.	c #36404B",
"X.	c #6D7A88",
"Y.	c #98A5B3",
"Z.	c #5B6673",
"`.	c #404A54",
" +	c #445260",
".+	c #475666",
"++	c #465463",
"@+	c #3E4A58",
"#+	c #404B59",
"$+	c #768594",
"%+	c #8D9EAB",
"&+	c #6F7D8D",
"*+	c #5D6575",
"=+	c #596471",
"-+	c #646E7E",
";+	c #818C9B",
"                                            ",
"                                            ",
"                . + @ # $ %                 ",
"            & * = - ; > , ' ) !             ",
"          ~ { ] ^ / ( _ : < [ } |           ",
"        1 2 3 4 5 6 7 8 9 0 a b c d         ",
"        e f g h i j k l m n o p q r         ",
"      s t u v w x l y k z A B C D E F       ",
"      G H I J K L M N O M P Q R S T U       ",
"      V W X Y z M Z `  .Z ..z +.@.#.$.      ",
"      %.b &.*.=.-.;.>.,.'.-.=.).!.~.{.      ",
"      ].^./.(._.:.<.[.}.|.|.1.2.3.4.5.      ",
"      6.7.8.:.9.0.a.b.c.d.e.f.g.h.i.j.      ",
"        k.l.m.n.o.p.q.r.s.t.u.v.w.x.        ",
"        y.z.A.B.C.D.E.F.G.H.I.J.K.L.        ",
"          M.N.O.P.Q.R.S.T.U.V.W.X.          ",
"            Y.Z.`. +.+++@+i.#+$+            ",
"                %+&+*+=+-+;+                ",
"                                            ",
"                                            "};
