/* XPM */
static char * MOZILLA_ARR_INC_xpm[] = {
"29 29 144 2",
"  	c None",
". 	c #DEE2EE",
"+ 	c #D5E2E6",
"@ 	c #DEE2E6",
"# 	c #DEDEEE",
"$ 	c #CDD2DE",
"% 	c #C5CED5",
"& 	c #DEDEE6",
"* 	c #BDCACD",
"= 	c #A4B2BD",
"- 	c #838DA4",
"; 	c #738994",
"> 	c #7B8194",
", 	c #73818B",
"' 	c #6A818B",
") 	c #738594",
"! 	c #949DAC",
"~ 	c #ACBEC5",
"{ 	c #D5DADE",
"] 	c #D5DEE6",
"^ 	c #BDC6CD",
"/ 	c #94A1AC",
"( 	c #7B859C",
"_ 	c #6A7983",
": 	c #737D8B",
"< 	c #83919C",
"[ 	c #8B99A4",
"} 	c #9CA1B4",
"| 	c #8B9DAC",
"1 	c #7B8994",
"2 	c #626D7B",
"3 	c #6A7583",
"4 	c #738194",
"5 	c #A4B6BD",
"6 	c #CDDADE",
"7 	c #D5DAE6",
"8 	c #9CAEB4",
"9 	c #7B899C",
"0 	c #8399A4",
"a 	c #B4BEC5",
"b 	c #BDCED5",
"c 	c #BDC6D5",
"d 	c #BDC2CD",
"e 	c #B4C2C5",
"f 	c #B4BECD",
"g 	c #ACBAC5",
"h 	c #838D9C",
"i 	c #62717B",
"j 	c #626D83",
"k 	c #9CA5B4",
"l 	c #6A7D8B",
"m 	c #C5CAD5",
"n 	c #BDCAD5",
"o 	c #B4C2CD",
"p 	c #ACB6C5",
"q 	c #9CB2B4",
"r 	c #5A6573",
"s 	c #737D94",
"t 	c #D5DEDE",
"u 	c #D5D6E6",
"v 	c #8B9DA4",
"w 	c #C5C6D5",
"x 	c #A4AEBD",
"y 	c #9CAEBD",
"z 	c #9CAABD",
"A 	c #9CAAB4",
"B 	c #52616A",
"C 	c #6A758B",
"D 	c #CDDEDE",
"E 	c #B4C6CD",
"F 	c #A4BABD",
"G 	c #ACB2C5",
"H 	c #94A5AC",
"I 	c #7B8594",
"J 	c #526173",
"K 	c #6A798B",
"L 	c #CDD6DE",
"M 	c #BDC2D5",
"N 	c #B4BACD",
"O 	c #ACBABD",
"P 	c #C5D2D5",
"Q 	c #9499AC",
"R 	c #8B95AC",
"S 	c #8395A4",
"T 	c #62757B",
"U 	c #525D73",
"V 	c #D5D6DE",
"W 	c #BDBECD",
"X 	c #B4BAC5",
"Y 	c #CDCEDE",
"Z 	c #8BA1AC",
"` 	c #8B95A4",
" .	c #7B8D9C",
"..	c #5A6983",
"+.	c #A4B2C5",
"@.	c #C5CEDE",
"#.	c #C5CACD",
"$.	c #8B99AC",
"%.	c #8391A4",
"&.	c #627983",
"*.	c #525D62",
"=.	c #83959C",
"-.	c #ACB6BD",
";.	c #9CB2BD",
">.	c #83899C",
",.	c #4A5562",
"'.	c #A4AABD",
").	c #5A616A",
"!.	c #52596A",
"~.	c #627583",
"{.	c #5A6D7B",
"].	c #5A697B",
"^.	c #414C62",
"/.	c #6A7D83",
"(.	c #627183",
"_.	c #5A717B",
":.	c #52657B",
"<.	c #414C5A",
"[.	c #94A1B4",
"}.	c #ACB2BD",
"|.	c #4A5D73",
"1.	c #6A6D7B",
"2.	c #5A657B",
"3.	c #394C5A",
"4.	c #8B91A4",
"5.	c #A4AEB4",
"6.	c #A4B2B4",
"7.	c #5A7183",
"8.	c #394452",
"9.	c #4A5962",
"0.	c #5A6D83",
"a.	c #52697B",
"b.	c #526573",
"c.	c #394052",
"d.	c #5A6173",
"e.	c #94A5B4",
"f.	c #4A6173",
"g.	c #414052",
"h.	c #62798B",
"i.	c #627173",
"j.	c #4A6573",
"k.	c #4A5D6A",
"l.	c #4A556A",
"m.	c #39444A",
". + @ + @ # @ + # @ . @ $ % % % % + @ # . + # + # + # @ . ",
"# @ # & + & + # @ * = - ; > , ' > ) ! ~ { # & @ + # + # + ",
"+ & ] + & + & ^ / ( _ : < [ } | 1 _ 2 3 4 5 6 & & ] & + & ",
"# + # & ] 7 8 9 _ 0 a b c d e f ~ g = h i j 9 % + & + # & ",
"] ] ] ] 6 k l 9 a m n c o o a g p 5 = q k l r s g ] & ] ] ",
"7 7 t u k l v w n c ^ o f a g p = x y z A } 9 B C * 7 t 7 ",
"D 7 7 = s v % n c E o a ~ F G 5 x 8 k H / ! v I J K L 7 { ",
"6 u o 9 1 w * ^ M o N O p f P m = A k ! Q [ R S T U [ 6 7 ",
"V 6 Q 3 a ^ d W a X g p X P Y P m z Z v [ ` S -  .U ..d 6 ",
"L o 1 - * d o ~ X p 5 +.F % % @.% #.! $.S %.h  .9 &.*.=.L ",
"L z 3 = d e a X -.= ;.y z p % % m % e ` <  .>.9 ) 4 ,.i $ ",
"$ =.3 e f X g 5 = q '.k H / x m m w ^ a h 9 ; ) 4 l ).J X ",
"Y 9 1 a g p 5 x x z A k / Q v 8 * * ^ d F 9 ) s l K r !.H ",
"o l h p F G = x ~ o d ^ d ^ d d d d d e X 8 s l K ~.{.,.$.",
"f : h 5 +.x x = ~ W f e W d o o e e a X g F ) K ~.C ].^.[ ",
"a /.9 = x z A z g ~ a a a f a a f a X O p x C ~.(._.:.<.` ",
"c 4 l y A k / / [.H ! v Q [ R 0 p p O }.x 4 C (.j ].|.<.Q ",
"% ) 1.A k [./ ! [ ` =.h  .9 1 y 5 }.= y ' C _._.{.2.3.^.;.",
"m $.].$.! v $.0 4.< h >.1 h 8 x 5.6.'.) (.7.].2.:.:.8.9.m ",
"n = j l | $.` =.h  .9 ; 9 z x 8 z z ; 0._.].a.:.b.,.c.l m ",
"c M , d.S S < -  .( ) 4 h A k k e.) 0.].].b.2.J f.8.3.'.^ ",
"^ * / _.2 - h 1 ( ) 4 4 l $./ Z > _...a.:.:.f.|.3.g.(.c * ",
"^ c M ( ).~.9 ( ) 4 l K C _ l h.0.{.a.:.J f.|.9.8.,.= M ^ ",
"E M E ~ C !.i.4 s l K h.~.(._...].:.:.f.U |.,.c.<.$.E d E ",
"d E o d 5 (.!.r l C ~.~.(.7.].a.:.j.f.|.k.<.g.3.$.E d E M ",
"o W o o o G l U ,.b.0.0.{.].b.:.J U k.l.m.8.,.` W o W o o ",
"f o e f e f ~ h J l.^.,.!.k.|.9.,.<.8.8.^.i G o e f o f e ",
"~ f a f a f f ~ G  ._.|.9.^.^.^.^.<.U l H f ~ ~ f f ~ ~ f ",
"f ~ a ~ N ~ ~ N ~ ~ N = / 9  . .[ [.~ a N ~ a N ~ ~ N ~ N "};
