/* XPM */
static char * mozilla_down_xpm[] = {
"22 20 200 2",
"  	c None",
". 	c #C8D1DB",
"+ 	c #ACB6C0",
"@ 	c #98A3AF",
"# 	c #94A1AB",
"$ 	c #A4AFB8",
"% 	c #C0CAD2",
"& 	c #CBD0DC",
"* 	c #8E97A3",
"= 	c #6D7983",
"- 	c #78818B",
"; 	c #84929F",
"> 	c #8590A0",
", 	c #707B84",
"' 	c #636E78",
") 	c #748190",
"! 	c #B4BFC9",
"~ 	c #C0C8D2",
"{ 	c #74818C",
"] 	c #89919C",
"^ 	c #B6BDC8",
"/ 	c #BCC5CF",
"( 	c #B4C0CC",
"_ 	c #B0BAC5",
": 	c #A9B4C0",
"< 	c #98A7B1",
"[ 	c #788290",
"} 	c #5C6975",
"| 	c #9CA7B4",
"1 	c #C9D1DA",
"2 	c #74808C",
"3 	c #96A1AB",
"4 	c #BDC8D4",
"5 	c #B9C4CD",
"6 	c #B3BEC9",
"7 	c #ACB8C3",
"8 	c #A7B4BF",
"9 	c #9EAEB7",
"0 	c #99A7B5",
"a 	c #95A1AD",
"b 	c #788590",
"c 	c #54616C",
"d 	c #A6B1BD",
"e 	c #8E98A1",
"f 	c #83919C",
"g 	c #BEC5D0",
"h 	c #B7C2CC",
"i 	c #B1BBC5",
"j 	c #AAB8BF",
"k 	c #DAE1E5",
"l 	c #D4DAE1",
"m 	c #97A4B1",
"n 	c #959EAE",
"o 	c #8A98A7",
"p 	c #8694A3",
"q 	c #66727F",
"r 	c #5E6A79",
"s 	c #C7D0D9",
"t 	c #6B747D",
"u 	c #ACB5BF",
"v 	c #AFBDC8",
"w 	c #ABBBC4",
"x 	c #A6B3BF",
"y 	c #A0AFBD",
"z 	c #E4E6EB",
"A 	c #DCE0E6",
"B 	c #8E9DAA",
"C 	c #8996A8",
"D 	c #85939F",
"E 	c #808D9E",
"F 	c #778394",
"G 	c #485460",
"H 	c #919FAE",
"I 	c #AEB8C5",
"J 	c #717A87",
"K 	c #B0BDC7",
"L 	c #AAB8C4",
"M 	c #A1B1C0",
"N 	c #9FADB9",
"O 	c #9AA6B2",
"P 	c #F4F5F5",
"Q 	c #E9ECF0",
"R 	c #8997A3",
"S 	c #828E9F",
"T 	c #7E8A99",
"U 	c #778698",
"V 	c #707F91",
"W 	c #4E5C6B",
"X 	c #6B7989",
"Y 	c #9AA2AD",
"Z 	c #7B8890",
"` 	c #A7B6C1",
" .	c #A3AFBC",
"..	c #E8EBED",
"+.	c #EEEFF1",
"@.	c #939DAC",
"#.	c #82909E",
"$.	c #C5CDD5",
"%.	c #C3CBD6",
"&.	c #6F7E90",
"*.	c #697A8A",
"=.	c #546373",
"-.	c #5C6775",
";.	c #97A0AB",
">.	c #A2AEBD",
",.	c #9BA9B6",
"'.	c #CED5DB",
").	c #FBFAFC",
"!.	c #EDEFF4",
"~.	c #D1D8E1",
"{.	c #D8DEE6",
"].	c #BBC4D0",
"^.	c #677888",
"/.	c #637284",
"(.	c #515D6A",
"_.	c #576373",
":.	c #A5AFBB",
"<.	c #66727E",
"[.	c #9BA6B4",
"}.	c #94A1B0",
"|.	c #8C9AA9",
"1.	c #D6DBE2",
"2.	c #FAFAFB",
"3.	c #F8F9FA",
"4.	c #F0F2F3",
"5.	c #E5E8ED",
"6.	c #C7D0D6",
"7.	c #637584",
"8.	c #607083",
"9.	c #5C6C7E",
"0.	c #444E5B",
"a.	c #626D7C",
"b.	c #B9C4CC",
"c.	c #5B6671",
"d.	c #8A95A2",
"e.	c #8C99A7",
"f.	c #8492A2",
"g.	c #7D8D9E",
"h.	c #F1F3F4",
"i.	c #EBEEEE",
"j.	c #C9D0D7",
"k.	c #667687",
"l.	c #5C6F7F",
"m.	c #576A7C",
"n.	c #516277",
"o.	c #333E4A",
"p.	c #7B8999",
"q.	c #6F7C88",
"r.	c #64717F",
"s.	c #838F9E",
"t.	c #7D8A9C",
"u.	c #788697",
"v.	c #6E7F8F",
"w.	c #617182",
"x.	c #5A6D7F",
"y.	c #55687A",
"z.	c #536376",
"A.	c #414E5E",
"B.	c #424C58",
"C.	c #A7B4C0",
"D.	c #536170",
"E.	c #65707E",
"F.	c #768396",
"G.	c #727F93",
"H.	c #687889",
"I.	c #637485",
"J.	c #5F6E80",
"K.	c #5A6B7C",
"L.	c #536576",
"M.	c #506075",
"N.	c #455365",
"O.	c #37404D",
"P.	c #778392",
"Q.	c #929FAD",
"R.	c #4E5A65",
"S.	c #576573",
"T.	c #657485",
"U.	c #617183",
"V.	c #5C6F7E",
"W.	c #58687B",
"X.	c #536377",
"Y.	c #4B5D6E",
"Z.	c #404D5C",
"`.	c #36404B",
" +	c #6D7A88",
".+	c #98A5B3",
"++	c #5B6673",
"@+	c #404A54",
"#+	c #445260",
"$+	c #475666",
"%+	c #465463",
"&+	c #3E4A58",
"*+	c #404B59",
"=+	c #768594",
"-+	c #8D9EAB",
";+	c #6F7D8D",
">+	c #5D6575",
",+	c #596471",
"'+	c #646E7E",
")+	c #818C9B",
"                                            ",
"                                            ",
"                . + @ # $ %                 ",
"            & * = - ; > , ' ) !             ",
"          ~ { ] ^ / ( _ : < [ } |           ",
"        1 2 3 4 5 6 7 8 9 0 a b c d         ",
"        e f g h i j k l m n o p q r         ",
"      s t u v w x y z A B C D E F G H       ",
"      I J K L M N O P Q R S T U V W X       ",
"      Y Z `  ...+.@.P Q #.$.%.&.*.=.-.      ",
"      ;.b >.,.'.).!.P Q ~.{.].^./.(._.      ",
"      :.<.[.}.|.1.2.3.4.5.6.7.8.9.0.a.      ",
"      b.c.d.e.f.g.'.h.i.j.k.l.m.n.o.p.      ",
"        q.r.s.t.u.v.h.i.w.x.y.z.A.B.        ",
"        C.D.E.F.G.H.I.J.K.L.M.N.O.P.        ",
"          Q.R.S.T.U.V.W.X.Y.Z.`. +          ",
"            .+++@+#+$+%+&+o.*+=+            ",
"                -+;+>+,+'+)+                ",
"                                            ",
"                                            "};
