/* XPM */
static char * MOZILLA_REL_CLS_xpm[] = {
"29 29 206 2",
"  	c None",
". 	c #D5E2E6",
"+ 	c #DEE2E6",
"@ 	c #DEDEEE",
"# 	c #DEE2EE",
"$ 	c #D5E6E6",
"% 	c #CDD6DE",
"& 	c #C5D2D5",
"* 	c #C5CEDE",
"= 	c #C5CED5",
"- 	c #DEDEE6",
"; 	c #BDC6D5",
"> 	c #A4B2BD",
", 	c #73858B",
"' 	c #626D7B",
") 	c #52616A",
"! 	c #5A6173",
"~ 	c #52596A",
"{ 	c #627583",
"] 	c #949DAC",
"^ 	c #B4BACD",
"/ 	c #CDDADE",
"( 	c #D5DEE6",
"_ 	c #BDCACD",
": 	c #9499AC",
"< 	c #5A6573",
"[ 	c #313841",
"} 	c #39384A",
"| 	c #414C52",
"1 	c #4A4C5A",
"2 	c #4A5962",
"3 	c #31384A",
"4 	c #202831",
"5 	c #6A7D8B",
"6 	c #A4B6BD",
"7 	c #D5D6E6",
"8 	c #D5DAE6",
"9 	c #9CB2BD",
"0 	c #313C41",
"a 	c #5A697B",
"b 	c #6A818B",
"c 	c #738194",
"d 	c #738594",
"e 	c #6A7983",
"f 	c #414052",
"g 	c #738994",
"h 	c #BDCAD5",
"i 	c #D5DEDE",
"j 	c #94A1AC",
"k 	c #394452",
"l 	c #7B859C",
"m 	c #7B899C",
"n 	c #7B8994",
"o 	c #7B8594",
"p 	c #6A7D83",
"q 	c #5A7583",
"r 	c #ACB2C5",
"s 	c #CDD6E6",
"t 	c #394052",
"u 	c #5A717B",
"v 	c #7B8194",
"w 	c #7B8D9C",
"x 	c #838D9C",
"y 	c #4A5562",
"z 	c #292831",
"A 	c #B4C2CD",
"B 	c #C5D6D5",
"C 	c #C5D6DE",
"D 	c #CDD2DE",
"E 	c #A4B2C5",
"F 	c #83AEB4",
"G 	c #8BC2C5",
"H 	c #83C2C5",
"I 	c #8BC2CD",
"J 	c #83C6C5",
"K 	c #8BB6B4",
"L 	c #8391A4",
"M 	c #83899C",
"N 	c #525D62",
"O 	c #6A758B",
"P 	c #62717B",
"Q 	c #83AAB4",
"R 	c #CDE2E6",
"S 	c #D5F2EE",
"T 	c #E6F2F6",
"U 	c #DEF2EE",
"V 	c #DEF2F6",
"W 	c #D5EEEE",
"X 	c #CDE6E6",
"Y 	c #B4D6DE",
"Z 	c #83919C",
"` 	c #83959C",
" .	c #C5C6D5",
"..	c #8B9DA4",
"+.	c #9CD2D5",
"@.	c #EEFAFF",
"#.	c #EEFFFF",
"$.	c #E6FFF6",
"%.	c #E6F6F6",
"&.	c #DEEEEE",
"*.	c #CDE6EE",
"=.	c #B4DADE",
"-.	c #8BA1AC",
";.	c #627983",
">.	c #A4BABD",
",.	c #BDC6CD",
"'.	c #BDCED5",
").	c #5A6973",
"!.	c #6A798B",
"~.	c #BDD6DE",
"{.	c #E6F2EE",
"].	c #DEF6F6",
"^.	c #94D2D5",
"/.	c #A4B6C5",
"(.	c #9CAAB4",
"_.	c #94AAB4",
":.	c #94A5AC",
"<.	c #A4AEBD",
"[.	c #73818B",
"}.	c #B4DAD5",
"|.	c #B4F2EE",
"1.	c #7B919C",
"2.	c #6A7583",
"3.	c #B4BECD",
"4.	c #D5FAF6",
"5.	c #BDDEE6",
"6.	c #839DAC",
"7.	c #838DA4",
"8.	c #62757B",
"9.	c #F6F6F6",
"0.	c #7BDAD5",
"a.	c #DEFAF6",
"b.	c #94CECD",
"c.	c #737D94",
"d.	c #C5CADE",
"e.	c #7B819C",
"f.	c #7B8D94",
"g.	c #DEEEF6",
"h.	c #C5E6E6",
"i.	c #737D8B",
"j.	c #EEEAEE",
"k.	c #7BAEAC",
"l.	c #A4C6CD",
"m.	c #9CC2C5",
"n.	c #A4DAD5",
"o.	c #83A1AC",
"p.	c #CDF2EE",
"q.	c #A4CED5",
"r.	c #626973",
"s.	c #737D83",
"t.	c #A4C2CD",
"u.	c #D5EEF6",
"v.	c #ACCECD",
"w.	c #8399A4",
"x.	c #94BAC5",
"y.	c #8BB2BD",
"z.	c #9CCACD",
"A.	c #CDEEEE",
"B.	c #C5F2EE",
"C.	c #B4CAD5",
"D.	c #627183",
"E.	c #83858B",
"F.	c #414C5A",
"G.	c #8395A4",
"H.	c #9CD2CD",
"I.	c #C5EEEE",
"J.	c #ACCACD",
"K.	c #626D83",
"L.	c #414C62",
"M.	c #9CAABD",
"N.	c #A4D6DE",
"O.	c #BDEEE6",
"P.	c #BDF2EE",
"Q.	c #A4E6DE",
"R.	c #9CC2CD",
"S.	c #838594",
"T.	c #9CAEB4",
"U.	c #7B858B",
"V.	c #A4E2E6",
"W.	c #94D6D5",
"X.	c #5A6D7B",
"Y.	c #9CAAAC",
"Z.	c #8B91A4",
"`.	c #73798B",
" +	c #A4B2B4",
".+	c #B4BEC5",
"++	c #7B8183",
"@+	c #8B9DAC",
"#+	c #BDC2D5",
"$+	c #B4C6CD",
"%+	c #ACB6C5",
"&+	c #9CA5B4",
"*+	c #8B95A4",
"=+	c #5A6983",
"-+	c #ACB2BD",
";+	c #9CAEBD",
">+	c #BDC2CD",
",+	c #BDBECD",
"'+	c #A4AABD",
")+	c #B4C2C5",
"!+	c #A4BAC5",
"~+	c #ACBEC5",
"{+	c #ACBAC5",
"]+	c #4A556A",
"^+	c #B4BAC5",
"/+	c #8B99AC",
". + @ + # + # + + $ + # % & * = = # . # . - . @ + @ - . @ ",
"+ + . + . # + # + ; > , ' ) ! ~ ! { ] ^ / ( ( ( - ( ( ( . ",
"@ . @ # + + # _ : < [ } | 1 2 | | 3 4 | 5 6 7 8 ( 8 ( - ( ",
"+ . . # + - 9 ' 0 ~ a b c d c c c c e ~ 4 f g h 8 / 8 i 8 ",
"- @ + # ( j 1 k < b c d g l m n n n l o p k 4 q r % 7 s / ",
"- . + ( j t 0 u v d o n m w w m x x x w m d y z a A B C D ",
"@ # + E | 3 { c d m F G H G I J I J I K L M g N 4 O h * = ",
". + ; P t u v d d Q R S T U V T S W X Y F Z m o 3 0 `  .h ",
"- + ..[ < c d d o +.V @.#.@.@.$.%.&.*.=.-.Z w l ;.4 ~ >.,.",
"@ '.).1 !.v o o d ~.{.@.$.$.].^./.(._.:.L L x n c y [ M A ",
"- <.k ~ [.d d n o }.@.$.@.@.$.|.F Z L L ` L 1.m , 2.4 < 3.",
"@ w 4 ;.c d l o n ~.#.@.4.@.@.].5.6.Z x Z 1.7.n c 8.0 t (.",
"i c y c , o n n m Y {.9.0.U a.@.S b.7.1.x x x m [.c.| k Z ",
"d.P 1 [.e.n m m f.=.U {.Q H g.].T h.-.Z x 1.x g c 5 N t w ",
"= ' 2 i.d n m f.w ~.T j.k.L l.S %.W m.7.1.x f.c 5 !.) 1 m ",
" .< ~ 5 d l n w M n.W $ Q Z o.R ].p.q.1.x w l c 5 { r.| d ",
"D e s.p c n m m x t.8 / Q w x n.S u.v.x M n d 5 ;.O P 1 m ",
"8 5 s.2.c e.n w w w.x.y.` x w z.A.B.C.Z n d c.!.D.u E.F.G.",
"/ ] r.D.5 [.o m m w w x x w x H.I.I.J.M c c.e { K.[.s.L.M.",
"% >.y G.5 c.[.d n m m w w m Z N.O.|.l.d i.;.D.P P ] 1 D.M.",
"D = !.~ [.;.5 c v d l n n m _.5.P.Q.R.5 O K.u K.w S.0 L T.",
"'.= (.L.U.m e 5 5 [.c [.v c K n.V.W.w.O P K.X.v Y.3 a (.M.",
"h  .h l 0 E.Z.;.`.!.`.p 5 5 l x.H 6.{ u K.X.c  +1 F.` M.T.",
"; _ ; .+K.0 ++@+p 2.{ 2.2.2.{ { D.u u a a Z. +1 0 l M.M.9 ",
"; ,.#+$+%+< } s.&+*+c.{ { D.K.P K.P =+w -+@+0 3 n M.T.;+<.",
"A >+A A ,+> !.0 k U.6 &+Z.w [.o ` &+.+] 2 z L.m T.M.'+> r ",
"3.)+3.3.A 3.!+M y 0 z y s.x : ..s.).4 4 3 a ..M.(.'+9 > >.",
"3.3.~+~+3.3.~+{+> m X.L.0 4 4 z 0 0 ]+{ *+(.M.(.9 > > 6 %+",
"~+~+.+^ ~+~+^+~+{+{+%+(./+l d d m /+T.M.T.'+T.<.<.> E >.%+"};
