/* XPM */
static char * mozilla_maximize_xpm[] = {
"22 20 197 2",
"  	c None",
". 	c #C8D1DB",
"+ 	c #ACB6C0",
"@ 	c #98A3AF",
"# 	c #94A1AB",
"$ 	c #A4AFB8",
"% 	c #C0CAD2",
"& 	c #CBD0DC",
"* 	c #8E97A3",
"= 	c #6D7983",
"- 	c #78818B",
"; 	c #84929F",
"> 	c #8590A0",
", 	c #707B84",
"' 	c #636E78",
") 	c #748190",
"! 	c #B4BFC9",
"~ 	c #C0C8D2",
"{ 	c #74818C",
"] 	c #89919C",
"^ 	c #B6BDC8",
"/ 	c #BCC5CF",
"( 	c #B4C0CC",
"_ 	c #B0BAC5",
": 	c #A9B4C0",
"< 	c #98A7B1",
"[ 	c #788290",
"} 	c #5C6975",
"| 	c #9CA7B4",
"1 	c #C9D1DA",
"2 	c #74808C",
"3 	c #96A1AB",
"4 	c #BDC8D4",
"5 	c #B9C4CD",
"6 	c #B3BEC9",
"7 	c #A9B6C1",
"8 	c #A5B1BD",
"9 	c #9EAEB7",
"0 	c #99A7B5",
"a 	c #95A1AD",
"b 	c #788590",
"c 	c #54616C",
"d 	c #A6B1BD",
"e 	c #8E98A1",
"f 	c #83919C",
"g 	c #BEC5D0",
"h 	c #B7C2CC",
"i 	c #B1BBC5",
"j 	c #AAB8BF",
"k 	c #DCDFE6",
"l 	c #DCE0E8",
"m 	c #97A4B1",
"n 	c #959EAE",
"o 	c #8A98A7",
"p 	c #8694A3",
"q 	c #66727F",
"r 	c #5E6A79",
"s 	c #C7D0D9",
"t 	c #6B747D",
"u 	c #ACB5BF",
"v 	c #AFBDC8",
"w 	c #ABBBC4",
"x 	c #A6B3BF",
"y 	c #A0AFBD",
"z 	c #8E9DAA",
"A 	c #8996A8",
"B 	c #85939F",
"C 	c #808D9E",
"D 	c #778394",
"E 	c #485460",
"F 	c #919FAE",
"G 	c #AEB8C5",
"H 	c #717A87",
"I 	c #B0BDC7",
"J 	c #ABB7C4",
"K 	c #A1AEBC",
"L 	c #9CA8B4",
"M 	c #97A4B0",
"N 	c #E7EBEF",
"O 	c #EBEEF4",
"P 	c #838F9F",
"Q 	c #7D899A",
"R 	c #798897",
"S 	c #788598",
"T 	c #707F91",
"U 	c #4E5C6B",
"V 	c #6B7989",
"W 	c #9AA2AD",
"X 	c #7B8890",
"Y 	c #A7B6C1",
"Z 	c #A1ADBB",
"` 	c #D7DDE1",
" .	c #DCE1E8",
"..	c #D5DBE1",
"+.	c #CED3DB",
"@.	c #C1C9D2",
"#.	c #7D8A9A",
"$.	c #697A8A",
"%.	c #546373",
"&.	c #5C6775",
"*.	c #97A0AB",
"=.	c #A2AEBD",
"-.	c #99A8B5",
";.	c #D2D9E0",
">.	c #D9E0E8",
",.	c #E9ECF1",
"'.	c #EDF0F4",
").	c #D4DAE0",
"!.	c #CAD1DB",
"~.	c #BFC6D2",
"{.	c #788896",
"].	c #637284",
"^.	c #515D6A",
"/.	c #576373",
"(.	c #A5AFBB",
"_.	c #66727E",
":.	c #9BA6B4",
"<.	c #93A0AF",
"[.	c #8597A5",
"}.	c #8C97A5",
"|.	c #8794A2",
"1.	c #718190",
"2.	c #6F8090",
"3.	c #677688",
"4.	c #627085",
"5.	c #5C6C7E",
"6.	c #444E5B",
"7.	c #626D7C",
"8.	c #B9C4CC",
"9.	c #5B6671",
"0.	c #8A95A2",
"a.	c #8C99A7",
"b.	c #8492A2",
"c.	c #7D8D9E",
"d.	c #788897",
"e.	c #D6DBE2",
"f.	c #D4DCE1",
"g.	c #6B7A8C",
"h.	c #667687",
"i.	c #5C6F7F",
"j.	c #576A7C",
"k.	c #516277",
"l.	c #333E4A",
"m.	c #7B8999",
"n.	c #6F7C88",
"o.	c #64717F",
"p.	c #838F9E",
"q.	c #7D8A9C",
"r.	c #788697",
"s.	c #6E7F8F",
"t.	c #CAD1DA",
"u.	c #CCD2DB",
"v.	c #617182",
"w.	c #5A6D7F",
"x.	c #55687A",
"y.	c #536376",
"z.	c #414E5E",
"A.	c #424C58",
"B.	c #A7B4C0",
"C.	c #536170",
"D.	c #65707E",
"E.	c #768396",
"F.	c #727F93",
"G.	c #687889",
"H.	c #5C6F7E",
"I.	c #58687B",
"J.	c #5A6B7C",
"K.	c #536576",
"L.	c #506075",
"M.	c #455365",
"N.	c #37404D",
"O.	c #778392",
"P.	c #929FAD",
"Q.	c #4E5A65",
"R.	c #576573",
"S.	c #657485",
"T.	c #617183",
"U.	c #536377",
"V.	c #4B5D6E",
"W.	c #404D5C",
"X.	c #36404B",
"Y.	c #6D7A88",
"Z.	c #98A5B3",
"`.	c #5B6673",
" +	c #404A54",
".+	c #445260",
"++	c #475666",
"@+	c #465463",
"#+	c #3E4A58",
"$+	c #404B59",
"%+	c #768594",
"&+	c #8D9EAB",
"*+	c #6F7D8D",
"=+	c #5D6575",
"-+	c #596471",
";+	c #646E7E",
">+	c #818C9B",
"                                            ",
"                                            ",
"                . + @ # $ %                 ",
"            & * = - ; > , ' ) !             ",
"          ~ { ] ^ / ( _ : < [ } |           ",
"        1 2 3 4 5 6 7 8 9 0 a b c d         ",
"        e f g h i j k l m n o p q r         ",
"      s t u v w x y k l z A B C D E F       ",
"      G H I J K L M N O P Q R S T U V       ",
"      W X Y Z `  . .N O ..+.@.#.$.%.&.      ",
"      *.b =.-.;.>.>.,.'.).!.~.{.].^./.      ",
"      (._.:.<.[.}.|.l l 1.2.3.4.5.6.7.      ",
"      8.9.0.a.b.c.d.e.f.g.h.i.j.k.l.m.      ",
"        n.o.p.q.r.s.t.u.v.w.x.y.z.A.        ",
"        B.C.D.E.F.G.H.I.J.K.L.M.N.O.        ",
"          P.Q.R.S.T.H.I.U.V.W.X.Y.          ",
"            Z.`. +.+++@+#+l.$+%+            ",
"                &+*+=+-+;+>+                ",
"                                            ",
"                                            "};
