/* XPM */
static char * MOZILLA_ARR_ACT_xpm[] = {
"29 29 177 2",
"  	c None",
". 	c #D5E2E6",
"+ 	c #DEDEEE",
"@ 	c #DEE2EE",
"# 	c #DEE2E6",
"$ 	c #CDD6DE",
"% 	c #C5D2D5",
"& 	c #CDCEDE",
"* 	c #C5CED5",
"= 	c #DEDEE6",
"- 	c #D5E6E6",
"; 	c #DEE6E6",
"> 	c #BDC6D5",
", 	c #A4B2BD",
"' 	c #738994",
") 	c #6A758B",
"! 	c #5A6973",
"~ 	c #626973",
"{ 	c #62717B",
"] 	c #73798B",
"^ 	c #949DAC",
"/ 	c #ACBEC5",
"( 	c #D5DADE",
"_ 	c #D5DEE6",
": 	c #BDCAD5",
"< 	c #94A1AC",
"[ 	c #4A4C5A",
"} 	c #414C52",
"| 	c #737D83",
"1 	c #83858B",
"2 	c #394452",
"3 	c #52596A",
"4 	c #737D94",
"5 	c #D5DEDE",
"6 	c #D5DAE6",
"7 	c #A4AABD",
"8 	c #627583",
"9 	c #62757B",
"0 	c #A4AEBD",
"a 	c #B4C6CD",
"b 	c #B4C2CD",
"c 	c #B4BEC5",
"d 	c #ACB6C5",
"e 	c #9CA5B4",
"f 	c #627173",
"g 	c #4A5962",
"h 	c #7B859C",
"i 	c #C5C6D5",
"j 	c #CDDADE",
"k 	c #94A5AC",
"l 	c #52616A",
"m 	c #A4AEB4",
"n 	c #C5CADE",
"o 	c #BDCACD",
"p 	c #B4BECD",
"q 	c #ACBAC5",
"r 	c #A4B6BD",
"s 	c #5A616A",
"t 	c #6A7983",
"u 	c #4A5562",
"v 	c #626D7B",
"w 	c #BDCED5",
"x 	c #C5CAD5",
"y 	c #BDC6CD",
"z 	c #BDC2D5",
"A 	c #B4C2C5",
"B 	c #B4BACD",
"C 	c #ACBABD",
"D 	c #9CAAB4",
"E 	c #6A7583",
"F 	c #39384A",
"G 	c #5A717B",
"H 	c #CDD2DE",
"I 	c #5A6173",
"J 	c #BDBECD",
"K 	c #ACB6BD",
"L 	c #83899C",
"M 	c #83959C",
"N 	c #94A1B4",
"O 	c #9CAEB4",
"P 	c #94A5B4",
"Q 	c #8B9DAC",
"R 	c #31384A",
"S 	c #C5CEDE",
"T 	c #EEEEF6",
"U 	c #EEF2EE",
"V 	c #8B9DA4",
"W 	c #8B99A4",
"X 	c #8B91A4",
"Y 	c #8395A4",
"Z 	c #A4B2B4",
"` 	c #8BA1AC",
" .	c #F6F6F6",
"..	c #EEF6F6",
"+.	c #F6F2F6",
"@.	c #E6E6EE",
"#.	c #9499AC",
"$.	c #8B95A4",
"%.	c #8391A4",
"&.	c #7B919C",
"*.	c #7B899C",
"=.	c #313C41",
"-.	c #52617B",
";.	c #6A6D7B",
">.	c #ACB2C5",
",.	c #FFFAFF",
"'.	c #E6F2EE",
").	c #8B95AC",
"!.	c #313841",
"~.	c #F6FAFF",
"{.	c #F7FBF7",
"].	c #8B99AC",
"^.	c #8399A4",
"/.	c #83919C",
"(.	c #838D9C",
"_.	c #6A7D8B",
":.	c #5A6983",
"<.	c #B4BAC5",
"[.	c #9CB2B4",
"}.	c #7B8D9C",
"|.	c #7B8994",
"1.	c #7B8594",
"2.	c #6A818B",
"3.	c #414C5A",
"4.	c #E6EEEE",
"5.	c #7B8194",
"6.	c #738194",
"7.	c #DEEAE6",
"8.	c #EEF2F6",
"9.	c #738594",
"0.	c #6A798B",
"a.	c #526573",
"b.	c #5A6573",
"c.	c #E6EAEE",
"d.	c #DEE6EE",
"e.	c #5A7583",
"f.	c #9CAABD",
"g.	c #EEEAEE",
"h.	c #D5D6E6",
"i.	c #627183",
"j.	c #4A5D62",
"k.	c #5A697B",
"l.	c #737D8B",
"m.	c #394052",
"n.	c #5A6D83",
"o.	c #52697B",
"p.	c #39444A",
"q.	c #62798B",
"r.	c #52657B",
"s.	c #202829",
"t.	c #414C62",
"u.	c #525D62",
"v.	c #838DA4",
"w.	c #CDDEDE",
"x.	c #5A657B",
"y.	c #526173",
"z.	c #202831",
"A.	c #C5D6DE",
"B.	c #4A6173",
"C.	c #9CAEBD",
"D.	c #4A6573",
"E.	c #4A5D73",
"F.	c #292831",
"G.	c #9CB2BD",
"H.	c #4A5D6A",
"I.	c #626D83",
"J.	c #5A6D7B",
"K.	c #525D73",
"L.	c #627983",
"M.	c #5A7183",
"N.	c #525D7B",
"O.	c #9CA5BD",
"P.	c #414452",
"Q.	c #A4AAB4",
"R.	c #394C5A",
"S.	c #737983",
"T.	c #FFFFFF",
". + . @ . # @ # @ @ # @ $ % & * * . @ . + = . = . = . + @ ",
". # + # @ @ - @ ; > , ' ) ! ! ~ { ] ^ / ( _ = _ = _ = . = ",
"+ . @ . # # @ : < { [ } ~ | 1 ] ~ } 2 3 4 , $ 5 6 5 _ _ = ",
". + . @ @ . 7 8 [ 9 0 : > a b c / d e f 2 g h i j 6 6 6 _ ",
"= # # @ = k 3 l m n o > b p p q d r 0 0 e s 2 t d $ j j j ",
"+ . @ . < u v > w x y z A B C d , , 0 D e k E F G b H H H ",
"# @ # , I { * w > a J / q K L M N O e P < ^ Q 8 R t o S % ",
"# @ o E 3 y i > b p / q d < T U M e e < ^ V W X 3 2 Y : x ",
". @ V [ Z o > b p / d d `  ...+.@.W < #.W $.%.&.*.=.-.K > ",
"@ * ;.! > z b p q d >.< ,.,.,. .'.^ Q ).Y %.&.*.*.~ !.*.A ",
"@ O } ^ b A c / d 0 ` ~.~.{.{. .^ ].^.$./.(.*.*.' _.=.:.c ",
"@ /.2 b p <.q >.[.$.~.,.{.~.T < ].Y %.&.(.}.|.1.2.4 2 3.e ",
"_ 4 l p q d r O *.4.{.{.,.,.< < ^ < < $.(.}.5.6.4 _.u 2 M ",
"* ! f q d r 0 *.7.+. .,.{.{.,. .8.4.@.; 5 H 9._.0.) a.=.*.",
"* b.E r r 0 0 < c.'.8... . ...8.T 4.d.+ 6 H 1.) 8 e.3 R *.",
"x b.v , 7 f.k (.d.g.U +.U 8.T T 4.@.@ 5 h.% ' 8 i.G 3 =.' ",
"H t j.7 D e < ^ D ; 4.c.4.h.k /.(.}.|.*.' 4 ) i.G k.3.!.h ",
"_ l.m.e e N ` ^ X e @.@.@.d.w (.6.4 0.t ) i.e.n.:.o.R 2 ^.",
"6 < p.%.` < ].W Y &.0 # ; # + y }._.q.i.e.n.k.k.a.r.s.t.7 ",
"$ q u.s V ].W %.v.(.(.r 6 6 w.( z 6.e.i.n.k.o.x.y.t.z.i.O ",
"A.n _.!.(.M %./.}.h 9.*.q $ H H % _.n.G k.x.r.a.B.s.2 Y C.",
"* * k 3 } (.}.*.*.9.6._.4 d * z ` ) k.k.r.D.B.E.2 F.k.f.G.",
"o : x ' 2 u.*.h 9.4 l._.t 8 _.l.n.:.o.r.y.y.H.t.s.3.].O , ",
"> y > / i.=.u 9.6._._.) ) e.I.G J.o.r.-.B.K.t.z.2 h O O k ",
"y y y z r :.=.} ) L.) i.i.M.k.x.r.D.N.H.E.p.F.p.*.O O.l.P.",
"b J b A b , 0.t.=.u k.G n.k.o.a.y.B.H.t.z.F.3.|.f.D t p.Q.",
"p b p A p / d }.u.F z.F 3.R.u t.p.F z.z.2 J.^ O O %.P.<.y ",
"c p c p / q q q , ' k.3.m.=.!.=.=.2 u 8 X D 7 0 0 ! S.b T.",
"c / p / q B q q q d r O ^.h 9.1.L Y D 7 O 0 G., r b.S.d x "};
