/* XPM */
static char * MOZILLA_LARR_PRS_xpm[] = {
"29 29 207 2",
"  	c None",
". 	c #DEDEEE",
"+ 	c #DEE2E6",
"@ 	c #DEE2EE",
"# 	c #D5E6E6",
"$ 	c #CDD2DE",
"% 	c #C5D2D5",
"& 	c #C5CEDE",
"* 	c #C5CED5",
"= 	c #D5E2E6",
"- 	c #DEDEE6",
"; 	c #DEE6E6",
"> 	c #BDC6CD",
", 	c #A4B2BD",
"' 	c #73858B",
") 	c #6A6D7B",
"! 	c #52616A",
"~ 	c #52596A",
"{ 	c #4A5D62",
"] 	c #5A616A",
"^ 	c #6A7583",
"/ 	c #8B99AC",
"( 	c #ACBAC5",
"_ 	c #D5DADE",
": 	c #D5DEE6",
"< 	c #C5CAD5",
"[ 	c #94A1AC",
"} 	c #5A6573",
"| 	c #313C41",
"1 	c #414C52",
"2 	c #4A4C5A",
"3 	c #414C5A",
"4 	c #313841",
"5 	c #202829",
"6 	c #6A7D8B",
"7 	c #A4B6BD",
"8 	c #D5D6E6",
"9 	c #D5DEDE",
"0 	c #62717B",
"a 	c #738194",
"b 	c #737D94",
"c 	c #6A818B",
"d 	c #7B8194",
"e 	c #73818B",
"f 	c #4A5562",
"g 	c #292831",
"h 	c #394452",
"i 	c #738594",
"j 	c #BDCAD5",
"k 	c #D5DAE6",
"l 	c #94A5AC",
"m 	c #738994",
"n 	c #7B8594",
"o 	c #7B899C",
"p 	c #7B859C",
"q 	c #627983",
"r 	c #627183",
"s 	c #CDD6DE",
"t 	c #CDDADE",
"u 	c #94A5B4",
"v 	c #394052",
"w 	c #62757B",
"x 	c #7B8D94",
"y 	c #7B8D9C",
"z 	c #83899C",
"A 	c #7B8994",
"B 	c #202831",
"C 	c #5A6983",
"D 	c #B4C2CD",
"E 	c #C5D6D5",
"F 	c #4A556A",
"G 	c #7B819C",
"H 	c #738D94",
"I 	c #838DA4",
"J 	c #838D9C",
"K 	c #7B919C",
"L 	c #4A5962",
"M 	c #6A798B",
"N 	c #BDCACD",
"O 	c #626D7B",
"P 	c #627583",
"Q 	c #949DAC",
"R 	c #B4DEDE",
"S 	c #BDDEDE",
"T 	c #8B99A4",
"U 	c #83919C",
"V 	c #31384A",
"W 	c #8395A4",
"X 	c #5A6D7B",
"Y 	c #CDE6E6",
"Z 	c #DEFAF6",
"` 	c #CDEEEE",
" .	c #ACD6DE",
"..	c #83959C",
"+.	c #8391A4",
"@.	c #6A7983",
"#.	c #525D62",
"$.	c #ACB6C5",
"%.	c #BDC6D5",
"&.	c #6A7994",
"*.	c #DEEAEE",
"=.	c #E6FFF6",
"-.	c #E6F6F6",
";.	c #CDF2EE",
">.	c #A4D6DE",
",.	c #BDC2CD",
"'.	c #D5EAEE",
").	c #EEFAFF",
"!.	c #DEF2F6",
"~.	c #C5E2E6",
"{.	c #B4BEC5",
"].	c #8B95A4",
"^.	c #D5EAE6",
"/.	c #F6FAFF",
"(.	c #CDE6EE",
"_.	c #8399A4",
":.	c #39444A",
"<.	c #9CA5B4",
"[.	c #DEF6F6",
"}.	c #EEFFF6",
"|.	c #DEF2EE",
"1.	c #8B95AC",
"2.	c #737D8B",
"3.	c #BDCED5",
"4.	c #C5E6E6",
"5.	c #BDDEE6",
"6.	c #A4DAD5",
"7.	c #A4C6CD",
"8.	c #6A7D83",
"9.	c #E6FFFF",
"0.	c #EEFFFF",
"a.	c #D5F2EE",
"b.	c #D5EEF6",
"c.	c #C5F2EE",
"d.	c #C5EEEE",
"e.	c #B4E6E6",
"f.	c #73798B",
"g.	c #626973",
"h.	c #D5FFF6",
"i.	c #E6FAFF",
"j.	c #DEFFF6",
"k.	c #A4C6C5",
"l.	c #5A6973",
"m.	c #7B8183",
"n.	c #DEFAFF",
"o.	c #CDFAF6",
"p.	c #9CAABD",
"q.	c #D5F6F6",
"r.	c #D5FFFF",
"s.	c #D5FAF6",
"t.	c #62758B",
"u.	c #5A717B",
"v.	c #83858B",
"w.	c #BDEEEE",
"x.	c #C5FAF6",
"y.	c #CDF6F6",
"z.	c #5A7583",
"A.	c #626D83",
"B.	c #737D83",
"C.	c #A4AABD",
"D.	c #C5F6F6",
"E.	c #BDF6EE",
"F.	c #BDE2E6",
"G.	c #9CD2D5",
"H.	c #6A758B",
"I.	c #9499AC",
"J.	c #9CAEB4",
"K.	c #C5D2DE",
"L.	c #C5CADE",
"M.	c #B4E6DE",
"N.	c #ACEEEE",
"O.	c #A4E6DE",
"P.	c #7B858B",
"Q.	c #9CAEBD",
"R.	c #414C62",
"S.	c #94D2D5",
"T.	c #A4A5AC",
"U.	c #39384A",
"V.	c #5A697B",
"W.	c #9CB2BD",
"X.	c #8B91A4",
"Y.	c #A4B2B4",
"Z.	c #A4AEBD",
"`.	c #B4BECD",
" +	c #8B9DA4",
".+	c #ACAEBD",
"++	c #9CAAB4",
"@+	c #B4C6CD",
"#+	c #BDC2D5",
"$+	c #526573",
"%+	c #BDBAC5",
"&+	c #292839",
"*+	c #BDBECD",
"=+	c #414052",
"-+	c #B4BAC5",
";+	c #8B9DAC",
">+	c #626D73",
",+	c #9CA1AC",
"'+	c #B4C2C5",
")+	c #ACBABD",
"!+	c #202431",
"~+	c #ACB6BD",
"{+	c #ACBEC5",
"]+	c #B4BACD",
"^+	c #394C5A",
"/+	c #62696A",
"(+	c #B4FFFF",
". + @ @ + @ + @ + # @ @ $ % & * * = + = - = - . = - = . + ",
". = = @ @ = @ ; @ > , ' ) ! ~ { ] ^ / ( _ - : : : - - : - ",
"= + . + @ + @ < [ } | | 1 2 1 3 1 4 5 3 6 7 8 9 : : : - : ",
". @ = @ # - , ) | ~ 0 a b c d e c b ^ f g h i j k k k k k ",
"- + = @ - l 3 1 } e a m n o m p n i i a q h 5 r 7 s 8 t 8 ",
"= . @ : u 1 v w i n i o o x o y y z o A n i 2 B C D E $ s ",
"@ + @ 7 F h 6 a G m p o H x o y I J K z A A ' L B M < * % ",
"+ @ N O 3 P G i m o o y o Q R S T U I U o o n d | V W < * ",
"= + Q h X i n i p o m z [ Y Z `  ...+.U I y n i @.B #.$.%.",
"@ * 0 f &.i n p m o o [ *.=.-.;.>.+.U ..J K o ' d 1 V y ,.",
"= , 1 ] d m n m p A Q '.=.).!.~.T K +.+.U J o a e ^ B } {.",
"+ I | b i n i o o ].^.)./.Z (._.J +.U ..+.J A i b w V :.<.",
"- i ~ i n i p m I Y [./.}.|./ W 1.T ].W +.K o ' a 2.1 2 U ",
"3.O #.d i p o y 4.-.).=.).-.|.'.Y Y 4.5.6.7.o a 6 8.#.:.o ",
"< 0 ~ i n m x Q Y Z 9.0.).=.-.a.b.` c.d.e. .o 6 f.M ~ 3 o ",
"3.g.! d A p o I Y [.h.i.j.-.|.^.Y 4.5.R  .k.i 6 M P l.1 i ",
"s @.m.a m A o x [ ^.[.j.n.o.p./ _.].].+.+.A b q ^ r O 2 m ",
"- 6 f.M d n A o o l Y q.r.s.e.].y y x A i b M t.r u.v.3 ].",
"9 Q l.^ a i o o x z <.w.x.y.d.6.+.o o n a q t.z.A.e B.3 C.",
"s ( f W a d i p A y y C.d.D.E.F.G.x d 6 H.P r A.u.I.1 r J.",
"K.L.q ~ ' f.c d n p A o J.M.N.O.G.' 6 H.P A.A.u.J P.4 W Q.",
"* * <.R.P.o M 6 a e i d ' <.S.S.1.6 t.P A.A.X a T.U.V.p.W.",
"j < 3.o V P.X.M 6 6 f.6 6 6 c b w r r u.0 X d Y.2 3 / J.Z.",
"> %.> `.u.U.m. +f.w ^ H.w ^ r r r 0 u.C V.W .+1 | o ++@+u ",
"#+@+,.#+7 $+V B.u X.6 ^ r r z.A.u.A.V.A ,  +V 4 p J.%+0 &+",
"D ,.D D *+, q 4 =+v.7 ++].y a p W l -+;+L g 3 m p.{.>+5 ,+",
"`.D `.'+D `.)+z L | B f B.J ;+ +f.g.B g | V.Q p.J.o !+~+> ",
"{+{.`.`.]+{+]+( Z.p V.^+V 5 B B V | f P X.J.J.Z., L /+D (+",
"{+]+{+{+{+]+( ( ( $.7 p.T p i d y T p.Q.J.Z.Z., , f >+$.< "};
