/* XPM */
static char * MOZILLA_RARR_PRS_xpm[] = {
"29 29 210 2",
"  	c None",
". 	c #DEE2E6",
"+ 	c #D5E2E6",
"@ 	c #DEE2EE",
"# 	c #DEE6E6",
"$ 	c #C5CAD5",
"% 	c #B4C2CD",
"& 	c #BDBECD",
"* 	c #B4BECD",
"= 	c #DEDEEE",
"- 	c #DEDEE6",
"; 	c #ACB6C5",
"> 	c #94A5AC",
", 	c #7B8594",
"' 	c #62717B",
") 	c #5A616A",
"! 	c #5A6173",
"~ 	c #525D62",
"{ 	c #5A6573",
"] 	c #6A7583",
"^ 	c #838D9C",
"/ 	c #9CA5B4",
"( 	c #CDD6DE",
"_ 	c #D5DEE6",
": 	c #ACBAC5",
"< 	c #8B95A4",
"[ 	c #31384A",
"} 	c #313C41",
"| 	c #4A4C5A",
"1 	c #414C52",
"2 	c #4A5562",
"3 	c #292831",
"4 	c #6A7D8B",
"5 	c #8B9DA4",
"6 	c #CDD2DE",
"7 	c #D5DAE6",
"8 	c #D5DEDE",
"9 	c #52596A",
"0 	c #5A6D7B",
"a 	c #737D8B",
"b 	c #6A818B",
"c 	c #738594",
"d 	c #7B8194",
"e 	c #73858B",
"f 	c #738194",
"g 	c #6A7983",
"h 	c #202831",
"i 	c #414052",
"j 	c #B4BAC5",
"k 	c #D5DADE",
"l 	c #D5D6E6",
"m 	c #8B99A4",
"n 	c #394452",
"o 	c #7B859C",
"p 	c #738994",
"q 	c #7B899C",
"r 	c #7B8994",
"s 	c #6A7D83",
"t 	c #94A1AC",
"u 	c #CDDADE",
"v 	c #39444A",
"w 	c #627183",
"x 	c #7B8D9C",
"y 	c #83899C",
"z 	c #7B8D94",
"A 	c #4A556A",
"B 	c #5A697B",
"C 	c #A4B6BD",
"D 	c #94A1B4",
"E 	c #627583",
"F 	c #83919C",
"G 	c #838DA4",
"H 	c #7B919C",
"I 	c #4A5D62",
"J 	c #BDC6CD",
"K 	c #C5D2D5",
"L 	c #C5CED5",
"M 	c #738D9C",
"N 	c #8399A4",
"O 	c #BDDEE6",
"P 	c #A4DAD5",
"Q 	c #8391A4",
"R 	c #6A858B",
"S 	c #CDE2E6",
"T 	c #CDF2EE",
"U 	c #D5EEF6",
"V 	c #C5E6E6",
"W 	c #83959C",
"X 	c #4A5D6A",
"Y 	c #9CAAB4",
"Z 	c #5A6973",
"` 	c #DEF6F6",
" .	c #DEFFF6",
"..	c #E6F2F6",
"+.	c #C5E2E6",
"@.	c #39384A",
"#.	c #6A798B",
"$.	c #8BA1AC",
"%.	c #E6FFFF",
"&.	c #E6FFF6",
"*.	c #B4E6DE",
"=.	c #526573",
"-.	c #7B95A4",
";.	c #DEFAF6",
">.	c #EEFAFF",
",.	c #B4DEDE",
"'.	c #313841",
").	c #394052",
"!.	c #73818B",
"~.	c #ACAEB4",
"{.	c #EEFFFF",
"].	c #D5F2EE",
"^.	c #8B9DAC",
"/.	c #B4BEC5",
"(.	c #626D7B",
"_.	c #737D94",
":.	c #ACE2E6",
"<.	c #BDE2E6",
"[.	c #B4E6E6",
"}.	c #C5EEEE",
"|.	c #C5F2EE",
"1.	c #DEEEF6",
"2.	c #DEFAFF",
"3.	c #D5F2F6",
"4.	c #B4DAD5",
"5.	c #6A758B",
"6.	c #A4E6DE",
"7.	c #ACEEEE",
"8.	c #B4F2EE",
"9.	c #C5F6F6",
"0.	c #D5F6F6",
"a.	c #D5FAEE",
"b.	c #E6FAFF",
"c.	c #D5FFF6",
"d.	c #CDFAF6",
"e.	c #949DAC",
"f.	c #73798B",
"g.	c #ACBEC5",
"h.	c #9CD2D5",
"i.	c #A4E6E6",
"j.	c #CDEEEE",
"k.	c #B4DADE",
"l.	c #626973",
"m.	c #8395A4",
"n.	c #8BE2DE",
"o.	c #C5FAF6",
"p.	c #D5FFFF",
"q.	c #CDEEF6",
"r.	c #ACCACD",
"s.	c #414C5A",
"t.	c #737D83",
"u.	c #8BC2CD",
"v.	c #CDF6F6",
"w.	c #BDEEEE",
"x.	c #5A7583",
"y.	c #83858B",
"z.	c #8BC2C5",
"A.	c #A4F2EE",
"B.	c #BDF6F6",
"C.	c #A4C2CD",
"D.	c #414C62",
"E.	c #83AEB4",
"F.	c #ACF2EE",
"G.	c #BDEEF6",
"H.	c #A4C6CD",
"I.	c #626D83",
"J.	c #526173",
"K.	c #83AAB4",
"L.	c #94E6DE",
"M.	c #A4F2E6",
"N.	c #9CC2CD",
"O.	c #5A717B",
"P.	c #C5CADE",
"Q.	c #73999C",
"R.	c #8BD6D5",
"S.	c #8BD2D5",
"T.	c #9CC2C5",
"U.	c #A4A5AC",
"V.	c #9CAABD",
"W.	c #BDCAD5",
"X.	c #C5C6D5",
"Y.	c #7B858B",
"Z.	c #7B819C",
"`.	c #A4B2B4",
" +	c #9CAEBD",
".+	c #BDC6D5",
"++	c #BDCACD",
"@+	c #ACB2C5",
"#+	c #5A6983",
"$+	c #7B8183",
"%+	c #62757B",
"&+	c #62758B",
"*+	c #B4C6CD",
"=+	c #BDC2D5",
"-+	c #9CAEB4",
";+	c #BDBAC5",
">+	c #BDC2CD",
",+	c #626D73",
"'+	c #202829",
")+	c #4A5962",
"!+	c #9499AC",
"~+	c #4A5D73",
"{+	c #A4AEBD",
"]+	c #202431",
"^+	c #ACB6BD",
"/+	c #525D73",
"(+	c #A4B2BD",
"_+	c #62696A",
":+	c #B4BACD",
"<+	c #A4AABD",
". + . @ . @ @ . @ . @ # $ % & * * + . = + - - + - + = + = ",
". = . + @ . + @ # ; > , ' ) ! ~ { ] ^ / ( - _ - _ - _ - _ ",
"= + . = . @ . : < { [ } | 1 2 | 1 } 3 1 4 5 6 7 8 _ 8 _ - ",
"+ - + @ . 7 > ' } 9 0 a b c d e d f g 9 h i 4 j k l 7 7 _ ",
"= . . . 7 m | n { f c c o p q q r q r , s n h ' t ( ( ( u ",
"_ - + l m v [ w f c p q r q x y ^ x ^ z q c A h B C 6 6 6 ",
"+ = + D 1 [ E f c , o p q x , p F G H ^ ^ r , I h w J K L ",
"_ . ; ' i w f , c p o r M N O P ^ F Q F G x q c n } f $ $ ",
"+ = F [ { R d c o p q q F S T U V W Q Q W ^ x o g 3 X Y J ",
". j Z 1 E f p o p q q z Q V `  ...+.F W Q Q ^ r c 2 @.#.* ",
"- $.n 9 R c c q q q z q M 5 U %.&...*.< F W G r d E h =.* ",
". o h #.d c q p o r y q x -.Y ;.>.&...,.m ^ H q c ] '.).< ",
"( !.2 b c o p o c f e , , , r ~.{.>.&.].O ^.^ r d 4 | n b ",
"/.(.1 _.c r q c P :.<.[.}.|.1.2. . .%.2.3.4.m r f 4 ~ n 5.",
"* ' 2 4 e o p Q 6.7.8.9.|.0.a. .b.%.b.c.d.O e.d b f.) | E ",
"g.{ ~ f.f r q F h.:.i.<.*.}.T 0.c.2. .0.j.k.W b 4 E l.1 w ",
"$ g f.s f , r q x Q W m.< N e.n.o.p.d.q.r.F , 4 #.5.' s.E ",
"8 4 t.] b , r q x z ^ ^ x ^ u.8.v.v.w.r.W , 4 5.w x.y.1 o ",
"l x l.] f.f c q z y x x ^ z.A.B.B.[.C.F , 4 #.w w f t.D.Y ",
"( / 2 W 4 a f , p q z y E.:.F.G.A.H.W f 4 5.w E I.t | J./ ",
"K $ 5.~ f s 4 b f , , r K.L.A.M.N.^ _.4 ] w O.I.x y.} , Y ",
"P.L W | y.q g f.4 _.!.f Q.R.S.T.q 4 #.w w O.B f U.'.X / V.",
"W.X.W.4 n Y.< g #.#.4 f.4 Z.z e 5.E w O.I.B e `.| v q Y  +",
".+++.+@+#+} $+5 f.] %+] E ] ] w w O.' B 0 m.~.| } &+Y V.*+",
"J =+J J -+{ @.t.Y m._.E w w w I.O.I.B r @+e.} '.E / Y ;+' ",
"% >+% >+% > B } ).y.C / W ^ !., m./ g.e.2 h i E / -+/.,+'+",
"* % % % * * @+#.)+[ '+2 t.^ !+5 f.Z 3 h } ~+F V.Y {+q ]+^+",
"g.* g.* g.g.g.: / E J.D.} h h h '.} s./+, Y V.-+{+(+)+_+% ",
"* g.:+* g.:+j g.: : ; > o w I.O.4 o <+-+<+-+-+{+(+C 2 ,+; "};
