/* XPM */
static char * MOZILLA_CLO_HIL_xpm[] = {
"29 29 210 2",
"  	c None",
". 	c #DEE2E6",
"+ 	c #D5E2E6",
"@ 	c #DEE2EE",
"# 	c #D5E6E6",
"$ 	c #CDD6DE",
"% 	c #C5D2D5",
"& 	c #C5CADE",
"* 	c #C5CED5",
"= 	c #DEDEEE",
"- 	c #DEDEE6",
"; 	c #BDC6CD",
"> 	c #A4B2C5",
", 	c #738594",
"' 	c #62717B",
") 	c #5A6173",
"! 	c #525D62",
"~ 	c #4A5D62",
"{ 	c #5A616A",
"] 	c #6A7583",
"^ 	c #949DAC",
"/ 	c #ACBEC5",
"( 	c #CDDADE",
"_ 	c #D5DEE6",
": 	c #BDCACD",
"< 	c #52616A",
"[ 	c #313C41",
"} 	c #31384A",
"| 	c #4A5962",
"1 	c #737D83",
"2 	c #4A5562",
"3 	c #39384A",
"4 	c #202829",
"5 	c #4A4C5A",
"6 	c #6A7D8B",
"7 	c #D5DAE6",
"8 	c #A4AEBD",
"9 	c #5A6973",
"0 	c #626973",
"a 	c #BDCAD5",
"b 	c #BDC2CD",
"c 	c #B4C2C5",
"d 	c #9CA5B4",
"e 	c #202831",
"f 	c #394452",
"g 	c #7B859C",
"h 	c #C5C6D5",
"i 	c #D5D6E6",
"j 	c #D5DEDE",
"k 	c #94A1B4",
"l 	c #414C52",
"m 	c #414C5A",
"n 	c #A4B2B4",
"o 	c #CDCEDE",
"p 	c #C5CAD5",
"q 	c #BDCED5",
"r 	c #BDC6D5",
"s 	c #B4C2CD",
"t 	c #B4BECD",
"u 	c #B4BACD",
"v 	c #ACBABD",
"w 	c #A4B6BD",
"x 	c #D5D6DE",
"y 	c #ACB6C5",
"z 	c #A4B2BD",
"A 	c #9CAEB4",
"B 	c #5A697B",
"C 	c #CDD2DE",
"D 	c #C5D2DE",
"E 	c #B4CAD5",
"F 	c #94CECD",
"G 	c #A4C6CD",
"H 	c #B4C6CD",
"I 	c #ACB2C5",
"J 	c #94A1AC",
"K 	c #8BC2CD",
"L 	c #8BBABD",
"M 	c #8BA1AC",
"N 	c #6A798B",
"O 	c #C5CEDE",
"P 	c #39444A",
"Q 	c #94D2D5",
"R 	c #DEFAFF",
"S 	c #DEFFF6",
"T 	c #ACBAC5",
"U 	c #A4BABD",
"V 	c #94A5AC",
"W 	c #A4D6DE",
"X 	c #C5F6EE",
"Y 	c #ACEEEE",
"Z 	c #8B95A4",
"` 	c #E6FAFF",
" .	c #E6FFF6",
"..	c #CDFAF6",
"+.	c #9CCACD",
"@.	c #B4BAC5",
"#.	c #ACE2E6",
"$.	c #D5F6F6",
"%.	c #ACF2EE",
"&.	c #83A1AC",
"*.	c #7B899C",
"=.	c #EEFAFF",
"-.	c #F6FAFF",
";.	c #ACD6DE",
">.	c #E6FFFF",
",.	c #D5FFF6",
"'.	c #C5FAEE",
").	c #A4E2E6",
"!.	c #8395A4",
"~.	c #7B8D9C",
"{.	c #ACC6CD",
"].	c #8BC2C5",
"^.	c #EEFFF6",
"/.	c #EEFFFF",
"(.	c #BDF6F6",
"_.	c #83C2C5",
":.	c #A4B6C5",
"<.	c #94B6B4",
"[.	c #D5FAF6",
"}.	c #8B99A4",
"|.	c #83919C",
"1.	c #5A657B",
"2.	c #83899C",
"3.	c #BDC2D5",
"4.	c #C5F6F6",
"5.	c #A4F2E6",
"6.	c #B4DEDE",
"7.	c #8B99AC",
"8.	c #8399A4",
"9.	c #73818B",
"0.	c #6A7983",
"a.	c #9CBAC5",
"b.	c #ACCECD",
"c.	c #8391A4",
"d.	c #73798B",
"e.	c #B4BEC5",
"f.	c #9CBABD",
"g.	c #B4DAD5",
"h.	c #83959C",
"i.	c #838D9C",
"j.	c #52596A",
"k.	c #A4CED5",
"l.	c #8B91A4",
"m.	c #6A858B",
"n.	c #6A7994",
"o.	c #627583",
"p.	c #9CAAB4",
"q.	c #94B6BD",
"r.	c #7B8D94",
"s.	c #7B819C",
"t.	c #62758B",
"u.	c #5A717B",
"v.	c #9CB2BD",
"w.	c #A4E6DE",
"x.	c #DEF6F6",
"y.	c #C5E6E6",
"z.	c #6A818B",
"A.	c #6A758B",
"B.	c #5A6D83",
"C.	c #414052",
"D.	c #9CAABD",
"E.	c #738994",
"F.	c #738194",
"G.	c #627183",
"H.	c #5A6D7B",
"I.	c #52697B",
"J.	c #313841",
"K.	c #94E6E6",
"L.	c #BDDEE6",
"M.	c #52617B",
"N.	c #414C62",
"O.	c #ACB6BD",
"P.	c #8B9DA4",
"Q.	c #9499AC",
"R.	c #8B9DAC",
"S.	c #A4DAD5",
"T.	c #94C6C5",
"U.	c #C5FAF6",
"V.	c #B4F2EE",
"W.	c #52657B",
"X.	c #526173",
"Y.	c #627983",
"Z.	c #292831",
"`.	c #7B8994",
" +	c #83C6C5",
".+	c #9CD2D5",
"++	c #7B919C",
"@+	c #BDEEEE",
"#+	c #8BB2BD",
"$+	c #525D7B",
"%+	c #394052",
"&+	c #839DAC",
"*+	c #83AAB4",
"=+	c #A4F2EE",
"-+	c #9CE2E6",
";+	c #4A5D73",
">+	c #7B95A4",
",+	c #9CC2CD",
"'+	c #626D83",
")+	c #737D94",
"!+	c #4A6173",
"~+	c #526573",
"{+	c #4A5D6A",
"]+	c #A4AABD",
"^+	c #525D73",
"/+	c #5A6983",
"(+	c #A4BAC5",
"_+	c #7B8194",
":+	c #8B95AC",
"<+	c #9CAEBD",
". . + . + @ + . @ # @ @ $ % % & * + = . = + - + - + - - + ",
"= + = . @ . @ @ @ ; > , ' ) ! ~ { ] ^ / ( _ _ - _ - _ = _ ",
". = + + . + @ : ^ < [ } | ] 1 ] 2 3 4 5 6 > ( _ 7 7 _ _ _ ",
"+ - . @ @ _ 8 9 [ 0 8 * & a : b c / d < e f g h i ( 7 7 j ",
"- + = . _ k l m n o % p q r ; s t u v > d 5 e ' w $ i $ x ",
"= - + _ k f 0 a o * p a r ; s t / / y z A d 0 e B b C D C ",
"_ . @ w l 0 % E F G : r H s t / u y I J K L M 0 4 N : O o ",
"- + r 0 P a r Q R S K s s t / T U y V W X Y K Z l } Z : a ",
"- . ^ [ 8 * L `  . ...+./ @.v w > J #.S $.X %.&.*.e ! y r ",
"+ p 9 2 p a K S =.=.-.X K y w z J ;.>.,.$.'.).!.~.) [ ~.t ",
"- z f ^ : r {.]. .^.-./.(._.:.<.). .>.R [.;.}.|.*.6 e 1./ ",
". 2.4 r ; 3.s / K =. .=. .4.5.Y /.=.S R 6.7.8.|., 9.} P d ",
"7 0.m H b c t u a.+. .=. .=.=. . .=.>.b.7.8.c.2., d.l 3 |.",
"p ! 9 t e.t T v y f.#./.=. .=./.=. .g.}.!.h.i.g 6 N ! 4 *.",
"q j.0 / T T U w > 8 A 4.^.=.=. .=.>.k.l.h.i.~.m.n.o.2 e g ",
"a | ) w y y > z 8 p.J 4./. . .=. .S q.|.i.r.s.6 t.u.| e , ",
"C ' f 8 z v.8 8 A d w. .=.=.=./.>.x.y.|.*.*.z.A.' B.C.[ g ",
"7 6 e A D.D.A d V W ` >.S ` ,.S S ,.$.y.E.F.6 G.H.I.[ J.!.",
"i ^ e i.V J d J K.S ,.R S ).F k.$.$.$.4.L.6 G.H.B M.e N.p.",
"$ O.m 5 P.Q.R.S.$.$.[.R S.c.8.!.T.U.X (.V.;.H.W.X.P 4 G.d ",
"C * Y.Z.`.Z  +4.X '.$..+i.++*.`.~.v.V.@+Y w.#+X.$+e %+h.d ",
"& q d l 3 |.&+Q V.4.T.*.*., F.z.N z.*+5.=+-+&.;+[ e B p.D.",
"a a p *.e f `.>+].L F.9.6 N 6 A.G.B.B &.,+&.B f e N.8.d A ",
"r r r e.'+4 C., F.)+6 N A.o.'+u.B I.W.$+!+;+P Z.[ g d p.8 ",
"; ; H 3.y 9 e J.A.Y.o.A.o.B.H.B ~+M.!+{+{+} e [ *.p.A ]+z ",
"s b s b s z A.P Z.f B u.u.B B ~+X.^+{+f e 4 m g p.D.A z w ",
"t c s t t c T *.2 } 4 e C.l m 5 } e e Z.[ /+P.p.D.A 8 w y ",
"t e.t / / t u / z ~.B m [ e e 4 [ } 2 o.Z D.D.]+v.8 z w y ",
"u / / e.u / / T T T (+D.}.g , _+~.:+A D.<+A 8 v.z z I U y "};
