/* XPM */
static char * MOZILLA_MINIMIZE_PRS_xpm[] = {
"29 29 208 2",
"  	c None",
". 	c #DEE2E6",
"+ 	c #D5E2E6",
"@ 	c #DEE2EE",
"# 	c #DEE6E6",
"$ 	c #C5CAD5",
"% 	c #B4C2CD",
"& 	c #BDBECD",
"* 	c #B4BECD",
"= 	c #DEDEEE",
"- 	c #DEDEE6",
"; 	c #ACB6C5",
"> 	c #94A5AC",
", 	c #7B8594",
"' 	c #62717B",
") 	c #5A616A",
"! 	c #5A6173",
"~ 	c #525D62",
"{ 	c #5A6573",
"] 	c #6A7583",
"^ 	c #838D9C",
"/ 	c #9CA5B4",
"( 	c #CDD6DE",
"_ 	c #D5DEE6",
": 	c #ACBAC5",
"< 	c #8B95A4",
"[ 	c #31384A",
"} 	c #313C41",
"| 	c #4A4C5A",
"1 	c #414C52",
"2 	c #4A5562",
"3 	c #292831",
"4 	c #6A7D8B",
"5 	c #8B9DA4",
"6 	c #CDD2DE",
"7 	c #D5DAE6",
"8 	c #D5DEDE",
"9 	c #52596A",
"0 	c #5A6D7B",
"a 	c #737D8B",
"b 	c #6A818B",
"c 	c #738594",
"d 	c #7B8194",
"e 	c #73858B",
"f 	c #738194",
"g 	c #6A7983",
"h 	c #202831",
"i 	c #414052",
"j 	c #B4BAC5",
"k 	c #D5DADE",
"l 	c #D5D6E6",
"m 	c #8B99A4",
"n 	c #394452",
"o 	c #738994",
"p 	c #7B8994",
"q 	c #7B899C",
"r 	c #7B899B",
"s 	c #6A7D83",
"t 	c #94A1AC",
"u 	c #CDDADE",
"v 	c #39444A",
"w 	c #627183",
"x 	c #7B859C",
"y 	c #83899C",
"z 	c #7B8D9C",
"A 	c #7B8D94",
"B 	c #4A556A",
"C 	c #5A697B",
"D 	c #A4B6BD",
"E 	c #94A1B4",
"F 	c #627583",
"G 	c #83919C",
"H 	c #838DA4",
"I 	c #4A5D62",
"J 	c #BDC6CD",
"K 	c #C5D2D5",
"L 	c #C5CED5",
"M 	c #7B919C",
"N 	c #8391A4",
"O 	c #6A858B",
"P 	c #4A5D6A",
"Q 	c #9CAAB4",
"R 	c #5A6973",
"S 	c #7B8C94",
"T 	c #7F8DA0",
"U 	c #8190A1",
"V 	c #83959C",
"W 	c #39384A",
"X 	c #6A798B",
"Y 	c #8BA1AC",
"Z 	c #6A838B",
"` 	c #8391A2",
" .	c #7C8A9C",
"..	c #526573",
"+.	c #7B8996",
"@.	c #83939D",
"#.	c #83919D",
"$.	c #313841",
"%.	c #394052",
"&.	c #73818B",
"*.	c #7A8594",
"=.	c #8B99AC",
"-.	c #8395A4",
";.	c #8B95AC",
">.	c #B4BEC5",
",.	c #626D7B",
"'.	c #737D94",
").	c #A4DAD5",
"!.	c #ACE2E6",
"~.	c #BDE2E6",
"{.	c #B4E6E6",
"].	c #C5EEEE",
"^.	c #C5F2EE",
"/.	c #DEEEF6",
"(.	c #D5EAEE",
"_.	c #CDE6E6",
":.	c #C5E6E6",
"<.	c #BDDEE6",
"[.	c #A4C6CD",
"}.	c #6A758B",
"|.	c #A4E6DE",
"1.	c #ACEEEE",
"2.	c #B4F2EE",
"3.	c #C5F6F6",
"4.	c #D5F6F6",
"5.	c #D5FAEE",
"6.	c #D5F2EE",
"7.	c #D5EEF6",
"8.	c #CDEEEE",
"9.	c #ACD6DE",
"0.	c #73798B",
"a.	c #ACBEC5",
"b.	c #9CD2D5",
"c.	c #A4E6E6",
"d.	c #B4E6DE",
"e.	c #CDF2EE",
"f.	c #D5EAE6",
"g.	c #B4DEDE",
"h.	c #A4C6C5",
"i.	c #626973",
"j.	c #8399A4",
"k.	c #949DAC",
"l.	c #627983",
"m.	c #414C5A",
"n.	c #737D83",
"o.	c #7B819C",
"p.	c #748994",
"q.	c #79899A",
"r.	c #7E8B9A",
"s.	c #7D8D9D",
"t.	c #7C8C9B",
"u.	c #7B8F9A",
"v.	c #5A7583",
"w.	c #83858B",
"x.	c #7B8A98",
"y.	c #414C62",
"z.	c #818D9A",
"A.	c #626D83",
"B.	c #526173",
"C.	c #778993",
"D.	c #7F8C99",
"E.	c #5A717B",
"F.	c #C5CADE",
"G.	c #6F7F8F",
"H.	c #6C818D",
"I.	c #72818F",
"J.	c #72848B",
"K.	c #728193",
"L.	c #6B7D8C",
"M.	c #6A788B",
"N.	c #A4A5AC",
"O.	c #9CAABD",
"P.	c #BDCAD5",
"Q.	c #C5C6D5",
"R.	c #7B858B",
"S.	c #697986",
"T.	c #6C7C89",
"U.	c #727A8A",
"V.	c #6A7986",
"W.	c #697589",
"X.	c #62757B",
"Y.	c #A4B2B4",
"Z.	c #9CAEBD",
"`.	c #BDC6D5",
" +	c #BDCACD",
".+	c #ACB2C5",
"++	c #5A6983",
"@+	c #7B8183",
"#+	c #ACAEB4",
"$+	c #62758B",
"%+	c #B4C6CD",
"&+	c #BDC2D5",
"*+	c #9CAEB4",
"=+	c #BDBAC5",
"-+	c #BDC2CD",
";+	c #626D73",
">+	c #202829",
",+	c #4A5962",
"'+	c #9499AC",
")+	c #4A5D73",
"!+	c #A4AEBD",
"~+	c #202431",
"{+	c #ACB6BD",
"]+	c #525D73",
"^+	c #A4B2BD",
"/+	c #62696A",
"(+	c #B4BACD",
"_+	c #A4AABD",
". + . @ . @ @ . @ . @ # $ % & * * + . = + - - + - + = + = ",
". = . + @ . + @ # ; > , ' ) ! ~ { ] ^ / ( - _ - _ - _ - _ ",
"= + . = . @ . : < { [ } | 1 2 | 1 } 3 1 4 5 6 7 8 _ 8 _ - ",
"+ - + @ . 7 > ' } 9 0 a b c d e d f g 9 h i 4 j k l 7 7 _ ",
"= . . . 7 m | n { f c c o p q q r p o , s n h ' t ( ( ( u ",
"_ - + l m v [ w f c x o q y z z z ^ ^ A q c B h C D 6 6 6 ",
"+ = + E 1 [ F f c , p q A q q ^ ^ G H y ^ p , I h w J K L ",
"_ . ; ' i w f , c o x q z q z z H M N G q G q c n } f $ $ ",
"+ = G [ { O d c x o q q A ^ G ^ A q N G H G z x g 3 P Q J ",
". j R 1 F f o x o q q S T U G H y ^ G V ^ N ^ p c 2 W X * ",
"- Y n 9 Z c x q q q A q A y M `  .G q N V N M q d F h ..* ",
". x h X d c , z x +.q p q ` N G H G @.#.G M H p f ] $.%.< ",
"( &.2 b *., o x A q A y , ^ =.-.;.m < -.N M q q &.4 | n b ",
">.,.1 '.c x q c ).!.~.{.].^./.(._._.:.<.).[.q o f 4 ~ n }.",
"* ' 2 4 c o q N |.1.2.3.^.4.5.6.7.8.^.].{.9.q f 4 0.) | F ",
"a.{ ~ 0.d , p G b.!.c.~.d.].e.f._.:.<.g.9.h.c f 4 F i.1 w ",
"$ g 0.s f p q q z N V -.< j.k.=.j.< < N N p '.4 l.}.' m.F ",
"8 4 n.] 4 o.q q z A ^ p.q.r.s.t.^ u.^ A f c '.X w v.w.1 x ",
"l z i.] 0.f c q A y z z ^ r x.y ^ A p c f '.g F w f n.y.Q ",
"( / 2 V 4 a f , o q A y A q z.^ q q , f l.l.w F A.t | B./ ",
"K $ }.~ f s 4 b f , , p C.D.q p A d 4 }.F A.E.A.z w.} , Q ",
"F.L V | w.q g 0.4 '.&.G.H.I.J.f K.L.M.F w E.C f N.$.P / O.",
"P.Q.P.4 n R.< g X X 4 4 S.T.U.V.W.X.F E.A.C e Y.| v q Q Z.",
"`. +`..+++} @+5 0.] X.] F ] ] w w E.' C 0 -.#+| } $+Q O.%+",
"J &+J J *+{ W n.Q -.'.F w w w A.E.A.C p .+k.} $.F / Q =+' ",
"% -+% -+% > C } %.w.D / V ^ &., -./ a.k.2 h i F / *+>.;+>+",
"* % % % * * .+X ,+[ >+2 n.^ '+5 0.R 3 h } )+G O.Q !+q ~+{+",
"a.* a.* a.a.a.: / F B.y.} h h h $.} m.]+, Q O.*+!+^+,+/+% ",
"* a.(+* a.(+j a.: : ; > x w A.E.4 x _+*+_+*+*+!+^+D 2 ;+; "};
