/* XPM */
static char * mozilla_title_a_xpm[] = {
"10 20 16 1",
" 	c None",
".	c #E1EAF0",
"+	c #DEE2E9",
"@	c #DCE2E9",
"#	c #D9E0E9",
"$	c #D8DDE6",
"%	c #D5D8E2",
"&	c #CFD6DE",
"*	c #CCD2DD",
"=	c #C8CFDC",
"-	c #C2CDD5",
";	c #C2C8D5",
">	c #BBC7D0",
",	c #B8C2CA",
"'	c #B4BECD",
")	c #A7B3C0",
"..........",
"++++++++++",
"@@@@@@@@@@",
"##########",
"$$$$$$$$$$",
"%%%%%%%%%%",
"&&&&&&&&&&",
"**********",
"==========",
"----------",
";;;;;;;;;;",
">>>>>>>>>>",
",,,,,,,,,,",
"''''''''''",
"''''''''''",
"''''''''''",
"''''''''''",
"''''''''''",
"''''''''''",
"))))))))))"};
