/* XPM */
static char * MOZILLA_BUTTON_INC_xpm[] = {
"29 29 226 2",
"  	c None",
". 	c #DEE2EE",
"+ 	c #D5E2E6",
"@ 	c #DEE2E6",
"# 	c #DEDEEE",
"$ 	c #CDD2DE",
"% 	c #C5CED5",
"& 	c #DEDEE6",
"* 	c #BDCACD",
"= 	c #A4B2BD",
"- 	c #838DA4",
"; 	c #738994",
"> 	c #7B8194",
", 	c #73818B",
"' 	c #6A818B",
") 	c #738594",
"! 	c #949DAC",
"~ 	c #ACBEC5",
"{ 	c #D5DADE",
"] 	c #D5DEE6",
"^ 	c #BDC6CD",
"/ 	c #94A1AC",
"( 	c #7B859C",
"_ 	c #6A7983",
": 	c #737D8B",
"< 	c #83919C",
"[ 	c #8B99A4",
"} 	c #9CA1B4",
"| 	c #8B9DAC",
"1 	c #7B8994",
"2 	c #626D7B",
"3 	c #6A7583",
"4 	c #738194",
"5 	c #A4B6BD",
"6 	c #CDDADE",
"7 	c #D5DAE6",
"8 	c #9CAEB4",
"9 	c #7B899C",
"0 	c #8399A4",
"a 	c #B4BEC5",
"b 	c #C5CAD5",
"c 	c #BDC2CD",
"d 	c #B4C2CD",
"e 	c #B4BECD",
"f 	c #ACBAC5",
"g 	c #838D9C",
"h 	c #62717B",
"i 	c #626D83",
"j 	c #9CA5B4",
"k 	c #6A7D8B",
"l 	c #BDC6D5",
"m 	c #A4BABD",
"n 	c #ACB2C5",
"o 	c #A2B2BD",
"p 	c #A4AEBD",
"q 	c #5A6573",
"r 	c #737D94",
"s 	c #D5DEDE",
"t 	c #D5D6E6",
"u 	c #8B9DA4",
"v 	c #C5C6D5",
"w 	c #BDCAD5",
"x 	c #BDC2D5",
"y 	c #ACB6C5",
"z 	c #9CAAB4",
"A 	c #52616A",
"B 	c #6A758B",
"C 	c #CDDEDE",
"D 	c #B4C6CD",
"E 	c #B4C2C5",
"F 	c #9CAEBD",
"G 	c #94A5AC",
"H 	c #7B8594",
"I 	c #526173",
"J 	c #6A798B",
"K 	c #CDD6DE",
"L 	c #B4BAC5",
"M 	c #ACB3C5",
"N 	c #A2ADBA",
"O 	c #9CACB4",
"P 	c #9DA7B5",
"Q 	c #95A6AE",
"R 	c #94A1B4",
"S 	c #8B95AC",
"T 	c #8395A4",
"U 	c #62757B",
"V 	c #525D73",
"W 	c #D5D6DE",
"X 	c #9499AC",
"Y 	c #BDBECD",
"Z 	c #A6B3BD",
"` 	c #9CB2BD",
" .	c #A3AEBD",
"..	c #9DAEB5",
"+.	c #96A7AE",
"@.	c #969FAE",
"#.	c #949EAC",
"$.	c #7B8D9C",
"%.	c #5A6983",
"&.	c #A5B3C2",
"*.	c #9CB2B4",
"=.	c #A4ABBD",
"-.	c #9FAEBD",
";.	c #99AAB4",
">.	c #95A2AD",
",.	c #959EAD",
"'.	c #8C9EA5",
").	c #8B95A4",
"!.	c #83959C",
"~.	c #627983",
"{.	c #525D62",
"].	c #9CAABD",
"^.	c #ACB6BD",
"/.	c #9DB2BD",
"(.	c #A4B2BE",
"_.	c #A4AFBD",
":.	c #9DABBD",
"<.	c #98A8B0",
"[.	c #9BA7B7",
"}.	c #96A2B0",
"|.	c #94A1B3",
"1.	c #8A9AA4",
"2.	c #8894A3",
"3.	c #8391A4",
"4.	c #4A5562",
"5.	c #A3ABBD",
"6.	c #9FA9B7",
"7.	c #9DAAB6",
"8.	c #97A5B0",
"9.	c #8E9EA7",
"0.	c #8C99A5",
"a.	c #8997A9",
"b.	c #8592A0",
"c.	c #8591A0",
"d.	c #83949C",
"e.	c #5A616A",
"f.	c #CDCEDE",
"g.	c #9CA6B4",
"h.	c #98A7B2",
"i.	c #97A4B4",
"j.	c #8D9DA6",
"k.	c #82919F",
"l.	c #82909E",
"m.	c #8491A0",
"n.	c #52596A",
"o.	c #94A1AD",
"p.	c #90A3AE",
"q.	c #959FAD",
"r.	c #8B96A5",
"s.	c #8A95A4",
"t.	c #82929E",
"u.	c #828F9D",
"v.	c #81919C",
"w.	c #838E9E",
"x.	c #7C8A9C",
"y.	c #627583",
"z.	c #5A6D7B",
"A.	c #8B99AC",
"B.	c #A4B2C5",
"C.	c #A4AABD",
"D.	c #8C9DA5",
"E.	c #8692A1",
"F.	c #808F9B",
"G.	c #808E9C",
"H.	c #808D9B",
"I.	c #798795",
"J.	c #5A697B",
"K.	c #414C62",
"L.	c #6A7D83",
"M.	c #8BA1AC",
"N.	c #8598A4",
"O.	c #8692A0",
"P.	c #818D9C",
"Q.	c #7F8C9B",
"R.	c #788797",
"S.	c #718192",
"T.	c #707E91",
"U.	c #62798B",
"V.	c #62758B",
"W.	c #5A717B",
"X.	c #52657B",
"Y.	c #414C5A",
"Z.	c #8791A0",
"`.	c #808C9C",
" +	c #7D8A9A",
".+	c #7B8799",
"++	c #6F7F8F",
"@+	c #6B7D8C",
"#+	c #4A5D73",
"$+	c #6A6D7B",
"%+	c #8994A4",
"&+	c #7E909A",
"*+	c #7B8899",
"=+	c #798597",
"-+	c #778597",
";+	c #737F94",
">+	c #627183",
",+	c #5A657B",
"'+	c #394C5A",
")+	c #8B91A4",
"!+	c #788999",
"~+	c #768397",
"{+	c #748295",
"]+	c #758095",
"^+	c #6C7D8C",
"/+	c #5A7183",
"(+	c #526573",
"_+	c #394452",
":+	c #4A5962",
"<+	c #8B99A5",
"[+	c #79889A",
"}+	c #738394",
"|+	c #5C7183",
"1+	c #394052",
"2+	c #5A6173",
"3+	c #738094",
"4+	c #4A6173",
"5+	c #414052",
"6+	c #627173",
"7+	c #4A6573",
"8+	c #52697B",
"9+	c #4A5D6A",
"0+	c #5A6D83",
"a+	c #4A556A",
"b+	c #39444A",
"c+	c #B4BACD",
". + @ + @ # @ + # @ . @ $ % % % % + @ # . + # + # + # @ . ",
"# @ # & + & + # @ * = - ; > , ' > ) ! ~ { # & @ + # + # + ",
"+ & ] + & + & ^ / ( _ : < [ } | 1 _ 2 3 4 5 6 & & ] & + & ",
"# + # & ] 7 8 9 _ 0 a b * c d e ~ f = g h i 9 % + & + # & ",
"] ] ] ] 6 j k 9 a b * l c d e f m n o p j k q r f ] & ] ] ",
"7 7 s t j k u v w w x d e ~ f y = 5 p 8 z } 9 A B * 7 s 7 ",
"C 7 7 = r u % w l D E e ~ y n 5 5 = F G / ! u H I J K 7 { ",
"6 t d 9 1 v * ^ x d a L m M 5 p N O P Q R / S T U V [ 6 7 ",
"W 6 X 3 a ^ c Y a L f y Z = `  ...z +.@.#.[ T - $.V %.c 6 ",
"K d 1 - * c d ~ L y 5 &.= *.=.-.;.>.,.'.[ ).!.$.9 ~.{.!.K ",
"K ].3 = d e ~ L ^.= /.(._.:.<.[.}.|.1.2.T 3.< 9 ; 4 4.h $ ",
"$ !.3 E e ~ f 5 = *.5.6.7.8.,.9.0.a.b.c.d.g $.( 4 k e.I L ",
"f.9 1 ~ f y 5 = p ].z g.h.i.j.).T k.l.m.< 1 9 ) k J q n.G ",
"d k g y ^.= ` 8 z j j o.p.q.r.s.t.u.v.w.x.( 4 4 J y.z.4.A.",
"e : g 5 B.*.C.j G R G / D.[ T E.F.G.H.I.r : k r y.B J.K.[ ",
"a L.9 = p z j / M.! ! X X N.O.P.Q.R.S.T.r r U._ V.W.X.Y.).",
"l 4 k F z j G / u [ [ [ ).Z.`. +.+++@+k k B y.y.y.J.#+Y.X ",
"% ) $+z j / ! X 0 ).!.%+&+*+=+-+;+@+k k J y.y.>+i ,+'+K.` ",
"b A.J.A.! u [ ).)+< g !+~+{+]+^+k k J y.B J i /+(+X._+:+b ",
"w = i k | <+).!.g $.[+}+{+4 r k J y.B W.|+i z.J.I 4.1+k b ",
"l x , 2+T T < - $.( ) 3+4 r k k J y.B i W.%.J.I 4+_+'+C.^ ",
"^ * / W.2 - g 1 ( ) 4 r k k J y.B J W./+J.(+X.#+'+5+>+l * ",
"^ l x ( e.y.9 ( ) 4 r k J y.B W./+i z.,+(+X.#+:+_+4.= x ^ ",
"D x D ~ B n.6+4 r k k B y.>+W.J.J.J.J.,+7+#+4.1+Y.A.D c D ",
"c D d c 5 >+n.q k B y.y.>+/+J.8+X.(+4+#+9+Y.5+'+A.D c D x ",
"d Y d d d n k V 4.(+0+0+z.J.(+X.I V 9+a+b+_+4.).Y d Y d d ",
"e d E e E e ~ g I a+K.4.n.9+#+:+4.Y._+_+K.h n d E e d e E ",
"~ e a e a e e ~ n $.W.#+:+K.K.K.K.Y.V k G e ~ ~ e e ~ ~ e ",
"e ~ a ~ c+~ ~ c+~ ~ c+= / 9 $.$.[ R ~ a c+~ a c+~ ~ c+~ c+"};
