/* XPM */
static char * MOZILLA_BUTTON_PRS_xpm[] = {
"29 29 195 2",
"  	c None",
". 	c #DEE2E6",
"+ 	c #D5E2E6",
"@ 	c #DEE2EE",
"# 	c #DEE6E6",
"$ 	c #C5CAD5",
"% 	c #B4C2CD",
"& 	c #BDBECD",
"* 	c #B4BECD",
"= 	c #DEDEEE",
"- 	c #DEDEE6",
"; 	c #ACB6C5",
"> 	c #94A5AC",
", 	c #7B8594",
"' 	c #62717B",
") 	c #5A616A",
"! 	c #5A6173",
"~ 	c #525D62",
"{ 	c #5A6573",
"] 	c #6A7583",
"^ 	c #838D9C",
"/ 	c #9CA5B4",
"( 	c #CDD6DE",
"_ 	c #D5DEE6",
": 	c #ACBAC5",
"< 	c #8B95A4",
"[ 	c #31384A",
"} 	c #313C41",
"| 	c #4A4C5A",
"1 	c #414C52",
"2 	c #4A5562",
"3 	c #292831",
"4 	c #6A7D8B",
"5 	c #8B9DA4",
"6 	c #CDD2DE",
"7 	c #D5DAE6",
"8 	c #D5DEDE",
"9 	c #52596A",
"0 	c #5A6D7B",
"a 	c #737D8B",
"b 	c #6A818B",
"c 	c #738594",
"d 	c #7B8194",
"e 	c #73858B",
"f 	c #738194",
"g 	c #6A7983",
"h 	c #202831",
"i 	c #414052",
"j 	c #B4BAC5",
"k 	c #D5DADE",
"l 	c #D5D6E6",
"m 	c #8B99A4",
"n 	c #394452",
"o 	c #738994",
"p 	c #7B8994",
"q 	c #7B899C",
"r 	c #7B899B",
"s 	c #6A7D83",
"t 	c #94A1AC",
"u 	c #CDDADE",
"v 	c #39444A",
"w 	c #627183",
"x 	c #7B859C",
"y 	c #83899C",
"z 	c #7B8D9C",
"A 	c #7B8D94",
"B 	c #4A556A",
"C 	c #5A697B",
"D 	c #A4B6BD",
"E 	c #94A1B4",
"F 	c #627583",
"G 	c #83919C",
"H 	c #838DA4",
"I 	c #4A5D62",
"J 	c #BDC6CD",
"K 	c #C5D2D5",
"L 	c #C5CED5",
"M 	c #7B919C",
"N 	c #8391A4",
"O 	c #6A858B",
"P 	c #4A5D6A",
"Q 	c #9CAAB4",
"R 	c #5A6973",
"S 	c #7B8C94",
"T 	c #7F8DA0",
"U 	c #8190A1",
"V 	c #83959C",
"W 	c #39384A",
"X 	c #6A798B",
"Y 	c #8BA1AC",
"Z 	c #6A838B",
"` 	c #8391A2",
" .	c #7C8A9C",
"..	c #526573",
"+.	c #7B8996",
"@.	c #83939D",
"#.	c #83919D",
"$.	c #313841",
"%.	c #394052",
"&.	c #73818B",
"*.	c #7A8594",
"=.	c #8391A1",
"-.	c #B4BEC5",
";.	c #626D7B",
">.	c #737D94",
",.	c #7B8B9C",
"'.	c #7C8B9C",
").	c #8390A2",
"!.	c #6A758B",
"~.	c #7B8D96",
"{.	c #808999",
"].	c #808F9E",
"^.	c #83919F",
"/.	c #7C919C",
"(.	c #73798B",
"_.	c #ACBEC5",
":.	c #7B8D95",
"<.	c #808E9B",
"[.	c #83939F",
"}.	c #7F909D",
"|.	c #818A9C",
"1.	c #626973",
"2.	c #7B8C95",
"3.	c #7D8B98",
"4.	c #7D8B99",
"5.	c #808E9C",
"6.	c #798997",
"7.	c #627983",
"8.	c #414C5A",
"9.	c #737D83",
"0.	c #7B819C",
"a.	c #748994",
"b.	c #79899A",
"c.	c #7E8B9A",
"d.	c #7D8D9D",
"e.	c #7C8C9B",
"f.	c #7B8F9A",
"g.	c #5A7583",
"h.	c #83858B",
"i.	c #7B8A98",
"j.	c #414C62",
"k.	c #818D9A",
"l.	c #626D83",
"m.	c #526173",
"n.	c #778993",
"o.	c #7F8C99",
"p.	c #5A717B",
"q.	c #C5CADE",
"r.	c #6F7F8F",
"s.	c #6C818D",
"t.	c #72818F",
"u.	c #72848B",
"v.	c #728193",
"w.	c #6B7D8C",
"x.	c #6A788B",
"y.	c #A4A5AC",
"z.	c #9CAABD",
"A.	c #BDCAD5",
"B.	c #C5C6D5",
"C.	c #7B858B",
"D.	c #697986",
"E.	c #6C7C89",
"F.	c #727A8A",
"G.	c #6A7986",
"H.	c #697589",
"I.	c #62757B",
"J.	c #A4B2B4",
"K.	c #9CAEBD",
"L.	c #BDC6D5",
"M.	c #BDCACD",
"N.	c #ACB2C5",
"O.	c #5A6983",
"P.	c #7B8183",
"Q.	c #8395A4",
"R.	c #ACAEB4",
"S.	c #62758B",
"T.	c #B4C6CD",
"U.	c #BDC2D5",
"V.	c #9CAEB4",
"W.	c #949DAC",
"X.	c #BDBAC5",
"Y.	c #BDC2CD",
"Z.	c #626D73",
"`.	c #202829",
" +	c #4A5962",
".+	c #9499AC",
"++	c #4A5D73",
"@+	c #A4AEBD",
"#+	c #202431",
"$+	c #ACB6BD",
"%+	c #525D73",
"&+	c #A4B2BD",
"*+	c #62696A",
"=+	c #B4BACD",
"-+	c #A4AABD",
". + . @ . @ @ . @ . @ # $ % & * * + . = + - - + - + = + = ",
". = . + @ . + @ # ; > , ' ) ! ~ { ] ^ / ( - _ - _ - _ - _ ",
"= + . = . @ . : < { [ } | 1 2 | 1 } 3 1 4 5 6 7 8 _ 8 _ - ",
"+ - + @ . 7 > ' } 9 0 a b c d e d f g 9 h i 4 j k l 7 7 _ ",
"= . . . 7 m | n { f c c o p q q r p o , s n h ' t ( ( ( u ",
"_ - + l m v [ w f c x o q y z z z ^ ^ A q c B h C D 6 6 6 ",
"+ = + E 1 [ F f c , p q A q q ^ ^ G H y ^ p , I h w J K L ",
"_ . ; ' i w f , c o x q z q z z H M N G q G q c n } f $ $ ",
"+ = G [ { O d c x o q q A ^ G ^ A q N G H G z x g 3 P Q J ",
". j R 1 F f o x o q q S T U G H y ^ G V ^ N ^ p c 2 W X * ",
"- Y n 9 Z c x q q q A q A y M `  .G q N V N M q d F h ..* ",
". x h X d c , z x +.q p q ` N G H G @.#.G M H p f ] $.%.< ",
"( &.2 b *., o q A q A y , ^ G V ^ G =.M ^ ^ ^ q &.4 | n b ",
"-.;.1 >.c x q q q p q A ,.q '.).#.G M H q M ^ o f 4 ~ n !.",
"* ' 2 4 c o q A y q q ~.A {.].^./.^ ^ ^ p ^ A f 4 (.) | F ",
"_.{ ~ (.d , p q A ,.q z :.<.[.}.|.q M ^ q z x f 4 F 1.1 w ",
"$ g (.s f p q q ~.A q 2.3.4.5.6.q ^ M ^ o p c 4 7.!.' 8.F ",
"8 4 9.] 4 0.q q z A ^ a.b.c.d.e.^ f.^ A f c >.X w g.h.1 x ",
"l z 1.] (.f c q A y z z ^ r i.y ^ A p c f >.g F w f 9.j.Q ",
"( / 2 V 4 a f , o q A y A q k.^ q q , f 7.7.w F l.t | m./ ",
"K $ !.~ f s 4 b f , , p n.o.q p A d 4 !.F l.p.l.z h.} , Q ",
"q.L V | h.q g (.4 >.&.r.s.t.u.f v.w.x.F w p.C f y.$.P / z.",
"A.B.A.4 n C.< g X X 4 4 D.E.F.G.H.I.F p.l.C e J.| v q Q K.",
"L.M.L.N.O.} P.5 (.] I.] F ] ] w w p.' C 0 Q.R.| } S.Q z.T.",
"J U.J J V.{ W 9.Q Q.>.F w w w l.p.l.C p N.W.} $.F / Q X.' ",
"% Y.% Y.% > C } %.h.D / V ^ &., Q./ _.W.2 h i F / V.-.Z.`.",
"* % % % * * N.X  +[ `.2 9.^ .+5 (.R 3 h } ++G z.Q @+q #+$+",
"_.* _.* _._._.: / F m.j.} h h h $.} 8.%+, Q z.V.@+&+ +*+% ",
"* _.=+* _.=+j _.: : ; > x w l.p.4 x -+V.-+V.V.@+&+D 2 Z.; "};
