/* XPM */
static char * mozilla_sticky_xpm[] = {
"22 20 204 2",
"  	c None",
". 	c #CAD2DC",
"+ 	c #AAB7C0",
"@ 	c #9AA4AD",
"# 	c #96A1AB",
"$ 	c #A4AFB8",
"% 	c #C0CAD2",
"& 	c #C9D1D9",
"* 	c #8E98A1",
"= 	c #6F7984",
"- 	c #77818D",
"; 	c #86939A",
"> 	c #86909B",
", 	c #717C87",
"' 	c #636D79",
") 	c #74818E",
"! 	c #B5C0CA",
"~ 	c #C0C7D0",
"{ 	c #75808C",
"] 	c #87919E",
"^ 	c #B4BDC9",
"/ 	c #B9C5D1",
"( 	c #B5BFCA",
"_ 	c #AEBAC5",
": 	c #A7B5C0",
"< 	c #98A6B0",
"[ 	c #788290",
"} 	c #5D6875",
"| 	c #9AA7B3",
"1 	c #CAD2DA",
"2 	c #74808C",
"3 	c #95A0AD",
"4 	c #BCC8D3",
"5 	c #AAB7C2",
"6 	c #AAB6C3",
"7 	c #AAB4C1",
"8 	c #ABB4C0",
"9 	c #A8B3BF",
"0 	c #A3B0B9",
"a 	c #788590",
"b 	c #53616C",
"c 	c #A5B0BC",
"d 	c #8D95A1",
"e 	c #85909B",
"f 	c #BCC5D0",
"g 	c #B0BBC8",
"h 	c #C7CFD5",
"i 	c #F1F3F6",
"j 	c #F4F4F5",
"k 	c #EFEFF3",
"l 	c #E5EAEE",
"m 	c #D9DFE6",
"n 	c #8B9AA7",
"o 	c #8694A1",
"p 	c #65717E",
"q 	c #5D6A7A",
"r 	c #C8D0D9",
"s 	c #69727F",
"t 	c #AAB6BF",
"u 	c #B5C0C7",
"v 	c #A1AFB8",
"w 	c #DDE2E7",
"x 	c #FAFAFB",
"y 	c #F7F7FB",
"z 	c #BDC8CD",
"A 	c #98A5B1",
"B 	c #94A0AC",
"C 	c #86939F",
"D 	c #7E8D9E",
"E 	c #758492",
"F 	c #4B5560",
"G 	c #93A0B0",
"H 	c #B1B9C7",
"I 	c #707A85",
"J 	c #B0BEC8",
"K 	c #AAB9C2",
"L 	c #9DAAB5",
"M 	c #E1E3E7",
"N 	c #E3E7EB",
"O 	c #ECEDF0",
"P 	c #F1F2F4",
"Q 	c #ACB6C1",
"R 	c #828FA1",
"S 	c #7E8A9A",
"T 	c #778698",
"U 	c #707F91",
"V 	c #4E5B69",
"W 	c #6C798A",
"X 	c #98A2AD",
"Y 	c #7B8791",
"Z 	c #A9B5C1",
"` 	c #A2B0BC",
" .	c #98A5B0",
"..	c #DEE1E5",
"+.	c #CBD0D5",
"@.	c #ABB4BE",
"#.	c #ECEDEF",
"$.	c #DAE0E6",
"%.	c #8492A1",
"&.	c #768493",
"*.	c #6F7F90",
"=.	c #67798B",
"-.	c #546271",
";.	c #5B6775",
">.	c #959FAB",
",.	c #778590",
"'.	c #9FAEBA",
").	c #9CA9B7",
"!.	c #939FAC",
"~.	c #D6DDE3",
"{.	c #C3CBD3",
"].	c #8895A2",
"^.	c #C6CDD7",
"/.	c #DFE4E8",
"(.	c #939FAD",
"_.	c #6E7D8C",
":.	c #677688",
"<.	c #607281",
"[.	c #505D68",
"}.	c #576473",
"|.	c #A7AFB8",
"1.	c #66717E",
"2.	c #9AA6B3",
"3.	c #95A0AF",
"4.	c #8C9AA8",
"5.	c #A5B2BE",
"6.	c #A2ADB7",
"7.	c #7E8A9B",
"8.	c #A7B4C0",
"9.	c #D6DCE2",
"0.	c #96A3B1",
"a.	c #647585",
"b.	c #607081",
"c.	c #5A6C7B",
"d.	c #414D59",
"e.	c #626B7C",
"f.	c #B9C3CD",
"g.	c #596672",
"h.	c #8A95A2",
"i.	c #8998A4",
"j.	c #8492A2",
"k.	c #7D8D9E",
"l.	c #798897",
"m.	c #C8D0DA",
"n.	c #8A99A7",
"o.	c #5D707F",
"p.	c #56687C",
"q.	c #506274",
"r.	c #353E4A",
"s.	c #7B8A95",
"t.	c #6F7B89",
"u.	c #647180",
"v.	c #83909D",
"w.	c #7D8B9C",
"x.	c #788697",
"y.	c #728091",
"z.	c #7B8897",
"A.	c #B3BDC8",
"B.	c #B8C2CA",
"C.	c #7C8B9B",
"D.	c #55687A",
"E.	c #536375",
"F.	c #414E5D",
"G.	c #404B56",
"H.	c #A8B4C0",
"I.	c #58616F",
"J.	c #768595",
"K.	c #6D7E8F",
"L.	c #697A8A",
"M.	c #6C7A8C",
"N.	c #8E9DAC",
"O.	c #8A97A5",
"P.	c #596C7C",
"Q.	c #506074",
"R.	c #445364",
"S.	c #373F4E",
"T.	c #748392",
"U.	c #949FAD",
"V.	c #4D5966",
"W.	c #596573",
"X.	c #647385",
"Y.	c #627283",
"Z.	c #5D6E81",
"`.	c #59697B",
" +	c #536576",
".+	c #4C5E6F",
"++	c #414C5A",
"@+	c #353F4D",
"#+	c #6E7A8A",
"$+	c #98A5B2",
"%+	c #5C6672",
"&+	c #3E4952",
"*+	c #475060",
"=+	c #4A5767",
"-+	c #475364",
";+	c #3D4959",
">+	c #434C55",
",+	c #798595",
"'+	c #8D9DA9",
")+	c #6F7C8B",
"!+	c #5C6774",
"~+	c #576470",
"{+	c #636F7C",
"]+	c #7F8C9C",
"                                            ",
"                                            ",
"                . + @ # $ %                 ",
"            & * = - ; > , ' ) !             ",
"          ~ { ] ^ / ( _ : < [ } |           ",
"        1 2 3 4 5 6 7 8 9 0 3 a b c         ",
"        d e f g h i j k l m n o p q         ",
"      r s t u v w x y z A B C D E F G       ",
"      H I J K L M N O P Q R S T U V W       ",
"      X Y Z `  ...+.@.#.$.%.&.*.=.-.;.      ",
"      >.,.'.).!.~.{.].^./.(._.:.<.[.}.      ",
"      |.1.2.3.4.5.6.7.8.9.0.a.b.c.d.e.      ",
"      f.g.h.i.j.k.l.&.7 m.n.o.p.q.r.s.      ",
"        t.u.v.w.x.y.z.A.B.C.D.E.F.G.        ",
"        H.I.p J.K.L.M.N.O.P.Q.R.S.T.        ",
"          U.V.W.X.Y.Z.`. +.+++@+#+          ",
"            $+%+&+*+=+-+;+r.>+,+            ",
"                '+)+!+~+{+]+                ",
"                                            ",
"                                            "};
