/* XPM */
static char * MOZILLA_REL_ACT_xpm[] = {
"29 29 161 2",
"  	c None",
". 	c #DEE2E6",
"+ 	c #DEDEEE",
"@ 	c #DEE2EE",
"# 	c #D5E6E6",
"$ 	c #CDD6DE",
"% 	c #C5D2D5",
"& 	c #CDCEDE",
"* 	c #BDCED5",
"= 	c #C5CED5",
"- 	c #D5E2E6",
"; 	c #DEDEE6",
"> 	c #D5DEE6",
", 	c #BDCACD",
"' 	c #A4B2BD",
") 	c #7B899C",
"! 	c #6A7983",
"~ 	c #626973",
"{ 	c #5A6973",
"] 	c #626D7B",
"^ 	c #6A7D83",
"/ 	c #8B9DAC",
"( 	c #B4BAC5",
"_ 	c #D5DAE6",
": 	c #949DAC",
"< 	c #6A6D7B",
"[ 	c #414C52",
"} 	c #4A4C5A",
"| 	c #52616A",
"1 	c #737D83",
"2 	c #7B858B",
"3 	c #73798B",
"4 	c #5A6573",
"5 	c #39444A",
"6 	c #52596A",
"7 	c #6A7D8B",
"8 	c #CDDADE",
"9 	c #9CAEB4",
"0 	c #6A7583",
"a 	c #627583",
"b 	c #A4AEBD",
"c 	c #BDC6D5",
"d 	c #B4C6CD",
"e 	c #B4C2CD",
"f 	c #B4BEC5",
"g 	c #ACBEC5",
"h 	c #ACBAC5",
"i 	c #9CAAB4",
"j 	c #394452",
"k 	c #4A5562",
"l 	c #7B859C",
"m 	c #BDCAD5",
"n 	c #D5DEDE",
"o 	c #94A5AC",
"p 	c #C5CAD5",
"q 	c #BDBECD",
"r 	c #ACB6C5",
"s 	c #A4B6BD",
"t 	c #9CA5B4",
"u 	c #6A758B",
"v 	c #94A1AC",
"w 	c #62717B",
"x 	c #C5C6D5",
"y 	c #BDC6CD",
"z 	c #B4BECD",
"A 	c #B4B6C5",
"B 	c #313C41",
"C 	c #5A6D83",
"D 	c #C5D2DE",
"E 	c #CDD2DE",
"F 	c #C5CADE",
"G 	c #94A1B4",
"H 	c #8B9DA4",
"I 	c #627983",
"J 	c #4A5D62",
"K 	c #8391A4",
"L 	c #DEEAE6",
"M 	c #EEEEF6",
"N 	c #EEF2F6",
"O 	c #F6F2F6",
"P 	c #EEF2EE",
"Q 	c #E6EEEE",
"R 	c #E6E6EE",
"S 	c #8B99A4",
"T 	c #8B95A4",
"U 	c #8395A4",
"V 	c #525D62",
"W 	c #394052",
"X 	c #9499AC",
"Y 	c #A4AABD",
"Z 	c #BDC2D5",
"` 	c #F6F6F6",
" .	c #EEF6F6",
"..	c #8399A4",
"+.	c #8B91A4",
"@.	c #83959C",
"#.	c #838D9C",
"$.	c #52617B",
"%.	c #BDC2CD",
"&.	c #B4C2C5",
"*.	c #F7FBF7",
"=.	c #FFFAFF",
"-.	c #A4AEB4",
";.	c #83919C",
">.	c #838DA4",
",.	c #7B8D9C",
"'.	c #7B8994",
").	c #F6FAFF",
"!.	c #738594",
"~.	c #737D94",
"{.	c #5A697B",
"].	c #CDD2D5",
"^.	c #738194",
"/.	c #414C62",
"(.	c #94A5B4",
"_.	c #6A798B",
":.	c #627173",
"<.	c #ACB6BD",
"[.	c #7B8594",
"}.	c #6A7994",
"|.	c #526173",
"1.	c #313841",
"2.	c #A4B2C5",
"3.	c #9CAEBD",
"4.	c #A4BABD",
"5.	c #6A818B",
"6.	c #627183",
"7.	c #526573",
"8.	c #9CAABD",
"9.	c #DEE6E6",
"0.	c #737D8B",
"a.	c #5A717B",
"b.	c #31384A",
"c.	c #738994",
"d.	c #D5DADE",
"e.	c #626D83",
"f.	c #52697B",
"g.	c #414052",
"h.	c #8B99AC",
"i.	c #5A657B",
"j.	c #202829",
"k.	c #414C5A",
"l.	c #73818B",
"m.	c #52657B",
"n.	c #4A6573",
"o.	c #202831",
"p.	c #4A6173",
"q.	c #7B919C",
"r.	c #4A5D6A",
"s.	c #5A7583",
"t.	c #525D7B",
"u.	c #4A556A",
"v.	c #5A6D7B",
"w.	c #9CB2BD",
"x.	c #4A5D73",
"y.	c #292831",
"z.	c #394C5A",
"A.	c #39384A",
"B.	c #ACB2C5",
"C.	c #ACBABD",
"D.	c #B4BACD",
". + . . @ @ @ # @ @ @ # $ % & * = @ . - - ; > ; - . ; ; - ",
"- - + - @ . . @ . , ' ) ! ~ { ~ ] ^ / ( _ ; > ; > > > > + ",
"+ ; . - @ . @ , : < [ } | 1 2 3 4 } 5 6 7 ' 8 > _ _ _ > > ",
"- - . @ . + 9 0 [ a b * c d e f g h i ] j k l m _ 8 n _ > ",
"+ . + - ; o 6 6 b p m c e q g h r s b 9 t 6 5 u s $ $ $ 8 ",
"; - . > v k w , m x y d z g A r ' b 9 t i o 0 B C e D E E ",
"> @ @ s 6 ] F * c g / G v G v t i t i o : : H 0 B I x % = ",
"; - y 0 J y , c e K L M N O P M Q R @ ; S / T U V W U p * ",
". + X [ Y y Z e b y O `  .` ` O M Q L _ ..+.@.#.) B $.r c ",
"; * ] | y %.&.f o % ` *.=.=.. 9 s b -.t T ;.>.,.'.~ B ) e ",
"+ 9 } : d z f h v &  .=.*.).=.% T S T U @.#.,.) !.~.B {.z ",
"@ ;.5 e z g h s v ].` ).L =.*.=.% +.K >.#.) ) !.^.7 j /.(.",
"_ ~.6 f g r s b v E ` =.#.R *.` N h ;.,.'.l !.~.7 _.k 5 K ",
"p { :.r <.' b 9 : ].P ` @.: P O P @ +.) [.!.^.7 }.I |.1.,.",
"= 4 0 s 2.b 3.t H & M O K T s M Q R 4.!.5.~._.I a 6.6 B l ",
"p 7.w ' 9 8.i t T % Q Q K @.+.> R 9.%.~.0.7 u a 6.a.V b.c.",
"E 0 V 3.i t G v T e R R @.#.) c 9.; , ^.u I 6.6.a.{.[ 1.l ",
"n 0.j t t v v X ..K 9 i #.) l s > d.c ^.a 6.e.a.{.f.1.g.U ",
"8 : j #.o : h.T U K ,.) '.!.!.z 8 E g 7 a C {.i.7.i.j.k.i ",
"$ r J 6 X S @.;.>.,.) c.[.l.l y & = h u a.{.f.m.n./.o.6.9 ",
"D F 7 b.,.+.;.#.,.) [.^.~.0.v p , y z a.{.f.i.|.p.o.5 ;.8.",
"= * t V k.q.#.,.l !.^.l.7 7 Y e z f +.f.m.7.|.r.g.o.{.t 9 ",
"m p m ) g.V '.[.!.5.7 _._.u !.z h : s.7.|.t.r./.o./...i b ",
"c , c f 6.b.u.!.^.~.}.I u a e.s.e.a.i.|.p.r./.o.g.c.t i b ",
"y Z y %.r v.1.[ u _.a 6.6.C {.i.7.|.p.r.r.g.o.j ) 8.9 Y w.",
"e e e q e ' _.[ B k {.a.e.v.{.7.|.p.x.k.y.o.z.l 9 8.3.' r ",
"z e e e z z h #.6 B j.A.k./.k /.j b.o.y.5 { : 8.i b w.2.r ",
"g z g z g z g h ' ) {./.5 B B 1.B g.k a T 8.9 b ' b ' B.C.",
"D.g D.g D.g h D.h h 4.i h.l [.!.) ..b 8.3.9 Y w.' s r 4.r "};
