/* XPM */
static char * MOZILLA_CLO_PRS_xpm[] = {
"29 29 209 2",
"  	c None",
". 	c #DEE2E6",
"+ 	c #DEDEEE",
"@ 	c #D5E2E6",
"# 	c #DEE2EE",
"$ 	c #D5E6E6",
"% 	c #CDD6DE",
"& 	c #CDCEDE",
"* 	c #C5D2D5",
"= 	c #C5CADE",
"- 	c #C5CED5",
"; 	c #DEDEE6",
"> 	c #DEE6E6",
", 	c #BDCACD",
"' 	c #A4B2C5",
") 	c #738594",
"! 	c #626D7B",
"~ 	c #5A616A",
"{ 	c #52616A",
"] 	c #52596A",
"^ 	c #526573",
"/ 	c #6A7583",
"( 	c #949DAC",
"_ 	c #ACBAC5",
": 	c #CDDADE",
"< 	c #D5DEE6",
"[ 	c #BDCAD5",
"} 	c #9499AC",
"| 	c #5A6573",
"1 	c #313C41",
"2 	c #414C52",
"3 	c #4A556A",
"4 	c #4A4C5A",
"5 	c #202831",
"6 	c #6A7D8B",
"7 	c #D5DEDE",
"8 	c #D5DAE6",
"9 	c #9CB2BD",
"0 	c #6A6D7B",
"a 	c #313841",
"b 	c #4A5D62",
"c 	c #5A697B",
"d 	c #737D8B",
"e 	c #737D94",
"f 	c #738194",
"g 	c #7B8594",
"h 	c #73858B",
"i 	c #6A758B",
"j 	c #394452",
"k 	c #738994",
"l 	c #C5C6D5",
"m 	c #D5D6E6",
"n 	c #94A1AC",
"o 	c #39444A",
"p 	c #7B8994",
"q 	c #7B899C",
"r 	c #73798B",
"s 	c #627183",
"t 	c #A4B6BD",
"u 	c #CDD6E6",
"v 	c #9CA1B4",
"w 	c #626D83",
"x 	c #7B859C",
"y 	c #83899C",
"z 	c #7B8D9C",
"A 	c #838D9C",
"B 	c #292831",
"C 	c #B4C2CD",
"D 	c #CDD2DE",
"E 	c #414C5A",
"F 	c #31384A",
"G 	c #738D9C",
"H 	c #7B8D94",
"I 	c #83919C",
"J 	c #838DA4",
"K 	c #8399A4",
"L 	c #839DAC",
"M 	c #7B919C",
"N 	c #C5CEDE",
"O 	c #BDC6D5",
"P 	c #62717B",
"Q 	c #5A717B",
"R 	c #83AAB4",
"S 	c #B4DAD5",
"T 	c #B4D6DE",
"U 	c #83A1A4",
"V 	c #8B99A4",
"W 	c #9CCACD",
"X 	c #B4E6E6",
"Y 	c #9CD2D5",
"Z 	c #8BA1AC",
"` 	c #8B91A4",
" .	c #BDCED5",
"..	c #73999C",
"+.	c #C5E6E6",
"@.	c #DEEEF6",
"#.	c #DEF2EE",
"$.	c #BDDEE6",
"%.	c #A4CED5",
"&.	c #CDF2EE",
"*.	c #CDEEEE",
"=.	c #627983",
"-.	c #525D62",
";.	c #ACB6C5",
">.	c #BDC2D5",
",.	c #626973",
"'.	c #7B99A4",
").	c #DEF2F6",
"!.	c #EEFAFF",
"~.	c #E6F2EE",
"{.	c #BDDEDE",
"].	c #8B99AC",
"^.	c #9CD2CD",
"/.	c #DEF6F6",
"(.	c #D5FAF6",
"_.	c #BDE2E6",
":.	c #8BBABD",
"<.	c #4A5562",
"[.	c #394052",
"}.	c #6A818B",
"|.	c #CDE6E6",
"1.	c #EEEEF6",
"2.	c #F6FAFF",
"3.	c #B4DEDE",
"4.	c #8395A4",
"5.	c #A4D2D5",
"6.	c #E6F2F6",
"7.	c #D5EEF6",
"8.	c #94B6BD",
"9.	c #202829",
"0.	c #ACBEC5",
"a.	c #6A798B",
"b.	c #7B8194",
"c.	c #D5EAEE",
"d.	c #DEFAF6",
"e.	c #A4DAD5",
"f.	c #ACD6DE",
"g.	c #E6F6F6",
"h.	c #D5F2EE",
"i.	c #9CBEBD",
"j.	c #627583",
"k.	c #9CA5B4",
"l.	c #4A5962",
"m.	c #94B2BD",
"n.	c #E6FFF6",
"o.	c #C5CAD5",
"p.	c #9CC2CD",
"q.	c #EEFFFF",
"r.	c #EEFFF6",
"s.	c #A4BAC5",
"t.	c #CDEAE6",
"u.	c #6A7D83",
"v.	c #83A1AC",
"w.	c #5A6973",
"x.	c #6A7983",
"y.	c #ACC6D5",
"z.	c #737D83",
"A.	c #7B819C",
"B.	c #D5EEEE",
"C.	c #83858B",
"D.	c #414C62",
"E.	c #8B95A4",
"F.	c #8BB2BD",
"G.	c #C5F2EE",
"H.	c #9CBAC5",
"I.	c #73818B",
"J.	c #9CAABD",
"K.	c #A4BABD",
"L.	c #94BAC5",
"M.	c #BDEEEE",
"N.	c #BDEEE6",
"O.	c #BDE6E6",
"P.	c #5A7583",
"Q.	c #9CAAB4",
"R.	c #C5D2DE",
"S.	c #6A959C",
"T.	c #A4D6DE",
"U.	c #A4E6E6",
"V.	c #A4E6DE",
"W.	c #8BC2C5",
"X.	c #738D94",
"Y.	c #838594",
"Z.	c #9CAEB4",
"`.	c #7B959C",
" +	c #6A8194",
".+	c #A4A5AC",
"++	c #39384A",
"@+	c #7B858B",
"#+	c #7B95A4",
"$+	c #62757B",
"%+	c #A4B2B4",
"&+	c #BDC6CD",
"*+	c #B4BECD",
"=+	c #7B8183",
"-+	c #A4AEBD",
";+	c #B4C6CD",
">+	c #ACB2C5",
",+	c #5A6D7B",
"'+	c #ACB2BD",
")+	c #8B9DA4",
"!+	c #BDC2CD",
"~+	c #A4B2BD",
"{+	c #B4BEC5",
"]+	c #B4C2C5",
"^+	c #9CAEBD",
"/+	c #A4AABD",
"(+	c #B4BACD",
"_+	c #B4BAC5",
":+	c #ACB6BD",
". + . @ # @ # . # # $ # % & * = - # @ . ; + ; @ ; . ; . @ ",
"+ @ + . . # # > . , ' ) ! ~ { ] ^ / ( _ : < < ; ; < < @ ; ",
"@ ; . @ + . # [ } | 1 1 2 2 3 2 4 1 5 2 6 ' % < 7 8 < ; < ",
"; @ + . # < 9 0 a b c d e f ) g h ) i ] 5 j k l : m 8 7 < ",
"< + . @ < n 4 o | f ) ) k p q q q p k g r j 5 s t % % u : ",
"; @ # < v o 1 w f ) x k q y z z z A A z p x 2 B c C D D D ",
"; + . ' E F i ) G G p q H q q A A I J K L M k ] 5 i [ * N ",
"@ @ O P o Q f R S T U q z q z z J M V W X Y Z p j 1 ` [  .",
"< # V F | f ..+.@.#.$.L H A I A A V %.&.*.X W q =.B -.;.>.",
"+ [ ,.2 i f '.+.).!.~.{.L z J M ].^./.(.&._.:.q f <.a z C ",
"; 9 [.-.}.) x R |.1.2.#.3.L 4.K 5.6./.7.+.8.A p ) / 9.| 0.",
"@ y 5 a.b.) g z R c.d.!.6.X e.f.#.g.h.+.i.J M q b.j.F j k.",
"8 b.l.}.g g k q H m.c.!.n.!./.!.n.6.|.9 A I J p f 6 4 j 4.",
"o.P 2 e ) x q q q z p.#.q.n.2.r.!.#.s.M A M z x }.6 -.o q ",
" .0 <.6 ) k q H y H q X !.!.n.!./.t.m.J I A q ) 6 a.~ 2 q ",
"l | -.u.b.g p q H q I _.n.!.!.n.g.c.v.M A H g }.r j.w.4 ) ",
"D x.r a.f p q q H A W #.!.!.n.!./.t.y.A H x ) e a.i ! 2 x ",
"8 6 z./ 6 A.q H A p.t.6.).h.*.B.h.7.+.0.y ) 6 =.j.w C.D.E.",
": n ,.j.r f ) y W |.@.h.|.%.F.:.+.G.&.$.H.d a.i w I.r E J.",
"u K.<.` 6 6 I.L.M.*.&.+.9 H A z n $.N.O.e.m.P.w Q n 4 s Q.",
"R.= a.-.f r S.T._.N.3.m.p q p x k L f.U.V.W.X.c z Y.1 ` Z.",
"- - k.E C.q }.R e.f.v.f ) h f f e 6 `.W Y :. +b..+1 c Q.J.",
", [ l k ++@+E.}.#+M 6 u.6 r u.i $+j.s ) ..f g %+2 D.K J.Z.",
"O O &+*+P a =+} u./ j./ / j.j.s Q w P c c E.%+4 1 q J.Q.-+",
"&+;+&+;+>+^ F z.Q.4.r i j.s w Q w ,+c H '+)+a 1 q Q.Z.Z.9 ",
"C !+C !+C ~+=.1 j C.t k.4.A I.x 4.k.{+n <.5 D.x Z.J.-+-+;.",
"]+]+*+]+*+C _ A 3 1 B l.r z ( )+z.,.5 B 1 c )+Q.J.^+~+t ;.",
"*+{+*+0.*+0.0._ ~+q c D.1 5 9.B a 1 <.j.` J.Q./+9 -+~+>+;.",
"0.(+0.(+0.(+_+0._ _ K.Q.E.x g f y V ^+Z.Z.Z./+~+~+~+t ;.:+"};
